<svg width="384" height="248" viewBox="0 0 384 248" fill="none" xmlns="http://www.w3.org/2000/svg">
<g clip-path="url(#clip0_2301_136)">
<rect x="304" y="54" width="80" height="4" fill="#96A2B1"/>
<rect y="111" width="304" height="4" fill="#96A2B1"/>
<rect y="32" width="48" height="48" rx="16" fill="#22282F"/>
<rect y="88" width="48" height="48" rx="16" fill="#45515F"/>
<rect x="56" y="32" width="48" height="48" rx="16" fill="#22282F"/>
<rect x="56" y="88" width="48" height="48" rx="16" fill="#45515F"/>
<rect x="112" y="32" width="48" height="48" rx="16" fill="#22282F"/>
<rect x="112" y="88" width="48" height="48" rx="16" fill="#45515F"/>
<rect x="168" y="32" width="48" height="48" rx="16" fill="#22282F"/>
<rect x="168" y="88" width="48" height="48" rx="16" fill="#45515F"/>
<rect x="224" y="32" width="48" height="48" rx="16" fill="#22282F"/>
<rect x="224" y="88" width="48" height="48" rx="16" fill="#45515F"/>
<rect x="280" y="32" width="48" height="48" rx="16" fill="#E5EA11"/>
<rect x="280" y="88" width="48" height="48" rx="16" fill="#E5EA11"/>
<rect x="336" y="32" width="48" height="48" rx="16" fill="#45515F"/>
<rect x="336" y="88" width="48" height="48" rx="16" fill="#22282F"/>
<path fill-rule="evenodd" clip-rule="evenodd" d="M0 160C0 151.163 7.16344 144 16 144H32C40.8366 144 48 151.163 48 160V176C48 184.837 40.8366 192 32 192H16C7.16344 192 0 184.837 0 176V160ZM72 144C63.1634 144 56 151.163 56 160V176C56 184.837 63.1634 192 72 192H88C96.8366 192 104 184.837 104 176V160C104 151.163 96.8366 144 88 144H72ZM112 160C112 151.163 119.163 144 128 144H144C152.837 144 160 151.163 160 160V176C160 184.837 152.837 192 144 192H128C119.163 192 112 184.837 112 176V160ZM240 144C231.163 144 224 151.163 224 160V176C224 184.837 231.163 192 240 192H256C264.837 192 272 184.837 272 176V160C272 151.163 264.837 144 256 144H240ZM352 144C343.163 144 336 151.163 336 160V176C336 184.837 343.163 192 352 192H368C376.837 192 384 184.837 384 176V160C384 151.163 376.837 144 368 144H352ZM296 144C287.163 144 280 151.163 280 160V176C280 184.837 287.163 192 296 192H312C320.837 192 328 184.837 328 176V160C328 151.163 320.837 144 312 144H296ZM168 160C168 151.163 175.163 144 184 144H200C208.837 144 216 151.163 216 160V176C216 184.837 208.837 192 200 192H184C175.163 192 168 184.837 168 176V160ZM352 200C343.163 200 336 207.163 336 216V232C336 240.837 343.163 248 352 248H368C376.837 248 384 240.837 384 232V216C384 207.163 376.837 200 368 200H352ZM224 216C224 207.163 231.163 200 240 200H256C264.837 200 272 207.163 272 216V232C272 240.837 264.837 248 256 248H240C231.163 248 224 240.837 224 232V216ZM128 200C119.163 200 112 207.163 112 216V232C112 240.837 119.163 248 128 248H144C152.837 248 160 240.837 160 232V216C160 207.163 152.837 200 144 200H128ZM280 216C280 207.163 287.163 200 296 200H312C320.837 200 328 207.163 328 216V232C328 240.837 320.837 248 312 248H296C287.163 248 280 240.837 280 232V216ZM184 200C175.163 200 168 207.163 168 216V232C168 240.837 175.163 248 184 248H200C208.837 248 216 240.837 216 232V216C216 207.163 208.837 200 200 200H184ZM56 216C56 207.163 63.1634 200 72 200H88C96.8366 200 104 207.163 104 216V232C104 240.837 96.8366 248 88 248H72C63.1634 248 56 240.837 56 232V216ZM16 200C7.16344 200 0 207.163 0 216V232C0 240.837 7.16344 248 16 248H32C40.8366 248 48 240.837 48 232V216C48 207.163 40.8366 200 32 200H16Z" fill="url(#paint0_linear_2301_136)"/>
<path d="M292.391 61.44L297.691 55.9C298.064 55.5 298.364 55.1467 298.591 54.84C298.831 54.52 299.004 54.22 299.111 53.94C299.218 53.6467 299.271 53.3533 299.271 53.06C299.271 52.4733 299.078 52.0133 298.691 51.68C298.318 51.3467 297.831 51.18 297.231 51.18C296.618 51.18 296.071 51.34 295.591 51.66C295.124 51.98 294.684 52.4867 294.271 53.18L292.411 51.6C292.971 50.6533 293.664 49.94 294.491 49.46C295.331 48.9667 296.291 48.72 297.371 48.72C298.291 48.72 299.091 48.9 299.771 49.26C300.464 49.62 300.998 50.12 301.371 50.76C301.744 51.4 301.931 52.1467 301.931 53C301.931 53.5733 301.858 54.0933 301.711 54.56C301.578 55.0267 301.344 55.4933 301.011 55.96C300.691 56.4133 300.244 56.9267 299.671 57.5L295.811 61.44H292.391ZM292.391 63V61.44L294.711 60.64H302.231V63H292.391ZM309.566 63.2C308.459 63.2 307.459 62.9 306.566 62.3C305.672 61.7 304.959 60.8533 304.426 59.76C303.906 58.6667 303.646 57.3933 303.646 55.94C303.646 54.4867 303.906 53.22 304.426 52.14C304.946 51.06 305.646 50.22 306.526 49.62C307.419 49.02 308.412 48.72 309.506 48.72C310.626 48.72 311.626 49.02 312.506 49.62C313.399 50.22 314.106 51.0667 314.626 52.16C315.146 53.24 315.406 54.5133 315.406 55.98C315.406 57.4333 315.146 58.7067 314.626 59.8C314.106 60.88 313.406 61.72 312.526 62.32C311.646 62.9067 310.659 63.2 309.566 63.2ZM309.526 60.74C310.166 60.74 310.719 60.56 311.186 60.2C311.652 59.84 312.012 59.3067 312.266 58.6C312.532 57.8933 312.666 57.0133 312.666 55.96C312.666 54.9067 312.532 54.0267 312.266 53.32C312.012 52.6133 311.646 52.0867 311.166 51.74C310.699 51.38 310.146 51.2 309.506 51.2C308.879 51.2 308.332 51.38 307.866 51.74C307.399 52.0867 307.032 52.6133 306.766 53.32C306.512 54.0133 306.386 54.8867 306.386 55.94C306.386 57.0067 306.512 57.8933 306.766 58.6C307.032 59.3067 307.399 59.84 307.866 60.2C308.332 60.56 308.886 60.74 309.526 60.74Z" fill="#1B1E22"/>
<path d="M351.321 61.44L356.621 55.9C356.994 55.5 357.294 55.1467 357.521 54.84C357.761 54.52 357.934 54.22 358.041 53.94C358.147 53.6467 358.201 53.3533 358.201 53.06C358.201 52.4733 358.007 52.0133 357.621 51.68C357.247 51.3467 356.761 51.18 356.161 51.18C355.547 51.18 355.001 51.34 354.521 51.66C354.054 51.98 353.614 52.4867 353.201 53.18L351.341 51.6C351.901 50.6533 352.594 49.94 353.421 49.46C354.261 48.9667 355.221 48.72 356.301 48.72C357.221 48.72 358.021 48.9 358.701 49.26C359.394 49.62 359.927 50.12 360.301 50.76C360.674 51.4 360.861 52.1467 360.861 53C360.861 53.5733 360.787 54.0933 360.641 54.56C360.507 55.0267 360.274 55.4933 359.941 55.96C359.621 56.4133 359.174 56.9267 358.601 57.5L354.741 61.44H351.321ZM351.321 63V61.44L353.641 60.64H361.161V63H351.321ZM365.075 63V48.94H367.755V63H365.075ZM362.315 51.3V48.94H367.555V51.3H362.315Z" fill="#96A2B1"/>
<path d="M297.915 20.132C297.219 20.132 296.619 20.02 296.115 19.796C295.619 19.564 295.163 19.216 294.747 18.752L295.971 17.54C296.243 17.852 296.543 18.096 296.871 18.272C297.207 18.44 297.595 18.524 298.035 18.524C298.435 18.524 298.743 18.452 298.959 18.308C299.183 18.164 299.295 17.964 299.295 17.708C299.295 17.476 299.223 17.288 299.079 17.144C298.935 17 298.743 16.876 298.503 16.772C298.271 16.668 298.011 16.568 297.723 16.472C297.443 16.376 297.163 16.268 296.883 16.148C296.603 16.02 296.343 15.864 296.103 15.68C295.871 15.488 295.683 15.252 295.539 14.972C295.395 14.684 295.323 14.324 295.323 13.892C295.323 13.372 295.447 12.924 295.695 12.548C295.951 12.172 296.303 11.888 296.751 11.696C297.199 11.496 297.715 11.396 298.299 11.396C298.891 11.396 299.431 11.5 299.919 11.708C300.415 11.916 300.823 12.2 301.143 12.56L299.919 13.772C299.663 13.508 299.403 13.312 299.139 13.184C298.883 13.056 298.591 12.992 298.263 12.992C297.935 12.992 297.675 13.056 297.483 13.184C297.291 13.304 297.195 13.48 297.195 13.712C297.195 13.928 297.267 14.104 297.411 14.24C297.555 14.368 297.743 14.48 297.975 14.576C298.215 14.672 298.475 14.768 298.755 14.864C299.043 14.96 299.327 15.072 299.607 15.2C299.887 15.328 300.143 15.492 300.375 15.692C300.615 15.884 300.807 16.132 300.951 16.436C301.095 16.732 301.167 17.1 301.167 17.54C301.167 18.348 300.879 18.984 300.303 19.448C299.727 19.904 298.931 20.132 297.915 20.132ZM304.6 20.12C304.064 20.12 303.584 19.988 303.16 19.724C302.744 19.46 302.412 19.1 302.164 18.644C301.924 18.188 301.804 17.668 301.804 17.084C301.804 16.5 301.924 15.98 302.164 15.524C302.412 15.068 302.744 14.708 303.16 14.444C303.584 14.18 304.064 14.048 304.6 14.048C304.992 14.048 305.344 14.124 305.656 14.276C305.976 14.428 306.236 14.64 306.436 14.912C306.636 15.176 306.748 15.48 306.772 15.824V18.344C306.748 18.688 306.636 18.996 306.436 19.268C306.244 19.532 305.988 19.74 305.668 19.892C305.348 20.044 304.992 20.12 304.6 20.12ZM304.972 18.464C305.364 18.464 305.68 18.336 305.92 18.08C306.16 17.816 306.28 17.484 306.28 17.084C306.28 16.812 306.224 16.572 306.112 16.364C306.008 16.156 305.856 15.996 305.656 15.884C305.464 15.764 305.24 15.704 304.984 15.704C304.728 15.704 304.5 15.764 304.3 15.884C304.108 15.996 303.952 16.156 303.832 16.364C303.72 16.572 303.664 16.812 303.664 17.084C303.664 17.348 303.72 17.584 303.832 17.792C303.944 18 304.1 18.164 304.3 18.284C304.5 18.404 304.724 18.464 304.972 18.464ZM306.208 20V18.428L306.484 17.012L306.208 15.596V14.168H308.008V20H306.208ZM310.128 20V11.756H311.964V20H310.128ZM308.808 15.728V14.168H313.284V15.728H308.808Z" fill="#45515F"/>
<path d="M353.194 20.132C352.498 20.132 351.898 20.02 351.394 19.796C350.898 19.564 350.442 19.216 350.026 18.752L351.25 17.54C351.522 17.852 351.822 18.096 352.15 18.272C352.486 18.44 352.874 18.524 353.314 18.524C353.714 18.524 354.022 18.452 354.238 18.308C354.462 18.164 354.574 17.964 354.574 17.708C354.574 17.476 354.502 17.288 354.358 17.144C354.214 17 354.022 16.876 353.782 16.772C353.55 16.668 353.29 16.568 353.002 16.472C352.722 16.376 352.442 16.268 352.162 16.148C351.882 16.02 351.622 15.864 351.382 15.68C351.15 15.488 350.962 15.252 350.818 14.972C350.674 14.684 350.602 14.324 350.602 13.892C350.602 13.372 350.726 12.924 350.974 12.548C351.23 12.172 351.582 11.888 352.03 11.696C352.478 11.496 352.994 11.396 353.578 11.396C354.17 11.396 354.71 11.5 355.198 11.708C355.694 11.916 356.102 12.2 356.422 12.56L355.198 13.772C354.942 13.508 354.682 13.312 354.418 13.184C354.162 13.056 353.87 12.992 353.542 12.992C353.214 12.992 352.954 13.056 352.762 13.184C352.57 13.304 352.474 13.48 352.474 13.712C352.474 13.928 352.546 14.104 352.69 14.24C352.834 14.368 353.022 14.48 353.254 14.576C353.494 14.672 353.754 14.768 354.034 14.864C354.322 14.96 354.606 15.072 354.886 15.2C355.166 15.328 355.422 15.492 355.654 15.692C355.894 15.884 356.086 16.132 356.23 16.436C356.374 16.732 356.446 17.1 356.446 17.54C356.446 18.348 356.158 18.984 355.582 19.448C355.006 19.904 354.21 20.132 353.194 20.132ZM360.07 20.132C359.534 20.132 359.058 20.024 358.642 19.808C358.234 19.584 357.914 19.28 357.682 18.896C357.45 18.504 357.334 18.056 357.334 17.552V14.168H359.17V17.528C359.17 17.728 359.202 17.9 359.266 18.044C359.338 18.188 359.442 18.3 359.578 18.38C359.714 18.46 359.878 18.5 360.07 18.5C360.342 18.5 360.558 18.416 360.718 18.248C360.878 18.072 360.958 17.832 360.958 17.528V14.168H362.794V17.54C362.794 18.052 362.678 18.504 362.446 18.896C362.214 19.28 361.894 19.584 361.486 19.808C361.078 20.024 360.606 20.132 360.07 20.132ZM367.799 20V16.676C367.799 16.372 367.703 16.128 367.511 15.944C367.327 15.752 367.091 15.656 366.803 15.656C366.603 15.656 366.427 15.7 366.275 15.788C366.123 15.868 366.003 15.988 365.915 16.148C365.827 16.3 365.783 16.476 365.783 16.676L365.075 16.328C365.075 15.872 365.175 15.472 365.375 15.128C365.575 14.784 365.851 14.52 366.203 14.336C366.563 14.144 366.967 14.048 367.415 14.048C367.847 14.048 368.227 14.152 368.555 14.36C368.891 14.56 369.155 14.828 369.347 15.164C369.539 15.5 369.635 15.868 369.635 16.268V20H367.799ZM363.947 20V14.168H365.783V20H363.947Z" fill="#45515F"/>
<path d="M349.446 117.44L354.746 111.9C355.119 111.5 355.419 111.147 355.646 110.84C355.886 110.52 356.059 110.22 356.166 109.94C356.272 109.647 356.326 109.353 356.326 109.06C356.326 108.473 356.132 108.013 355.746 107.68C355.372 107.347 354.886 107.18 354.286 107.18C353.672 107.18 353.126 107.34 352.646 107.66C352.179 107.98 351.739 108.487 351.326 109.18L349.466 107.6C350.026 106.653 350.719 105.94 351.546 105.46C352.386 104.967 353.346 104.72 354.426 104.72C355.346 104.72 356.146 104.9 356.826 105.26C357.519 105.62 358.052 106.12 358.426 106.76C358.799 107.4 358.986 108.147 358.986 109C358.986 109.573 358.912 110.093 358.766 110.56C358.632 111.027 358.399 111.493 358.066 111.96C357.746 112.413 357.299 112.927 356.726 113.5L352.866 117.44H349.446ZM349.446 119V117.44L351.766 116.64H359.286V119H349.446ZM365.54 119.2C364.54 119.2 363.674 119.027 362.94 118.68C362.22 118.333 361.654 117.847 361.24 117.22C360.84 116.593 360.64 115.887 360.64 115.1C360.64 114.447 360.767 113.853 361.02 113.32C361.274 112.787 361.634 112.34 362.1 111.98C362.58 111.607 363.14 111.347 363.78 111.2L363.72 111.86C363.187 111.727 362.734 111.493 362.36 111.16C361.987 110.827 361.707 110.433 361.52 109.98C361.334 109.513 361.24 109.033 361.24 108.54C361.24 107.78 361.42 107.113 361.78 106.54C362.154 105.967 362.66 105.52 363.3 105.2C363.954 104.88 364.7 104.72 365.54 104.72C366.38 104.72 367.12 104.88 367.76 105.2C368.4 105.52 368.9 105.967 369.26 106.54C369.634 107.113 369.82 107.78 369.82 108.54C369.82 109.033 369.727 109.513 369.54 109.98C369.354 110.433 369.074 110.827 368.7 111.16C368.34 111.493 367.887 111.727 367.34 111.86L367.28 111.2C367.934 111.347 368.494 111.607 368.96 111.98C369.427 112.34 369.787 112.787 370.04 113.32C370.294 113.853 370.42 114.447 370.42 115.1C370.42 115.887 370.22 116.593 369.82 117.22C369.42 117.847 368.854 118.333 368.12 118.68C367.387 119.027 366.527 119.2 365.54 119.2ZM365.54 116.82C365.98 116.82 366.374 116.733 366.72 116.56C367.067 116.373 367.334 116.12 367.52 115.8C367.72 115.48 367.82 115.12 367.82 114.72C367.82 114.307 367.72 113.947 367.52 113.64C367.334 113.32 367.067 113.073 366.72 112.9C366.374 112.713 365.98 112.62 365.54 112.62C365.087 112.62 364.687 112.713 364.34 112.9C364.007 113.073 363.74 113.32 363.54 113.64C363.34 113.947 363.24 114.307 363.24 114.72C363.24 115.12 363.34 115.48 363.54 115.8C363.74 116.12 364.007 116.373 364.34 116.56C364.687 116.733 365.087 116.82 365.54 116.82ZM365.54 110.56C366.06 110.56 366.487 110.393 366.82 110.06C367.154 109.727 367.32 109.3 367.32 108.78C367.32 108.247 367.154 107.813 366.82 107.48C366.487 107.147 366.06 106.98 365.54 106.98C365.02 106.98 364.587 107.147 364.24 107.48C363.907 107.813 363.74 108.24 363.74 108.76C363.74 109.293 363.907 109.727 364.24 110.06C364.587 110.393 365.02 110.56 365.54 110.56Z" fill="#45515F"/>
<path d="M237.309 117.44L242.609 111.9C242.982 111.5 243.282 111.147 243.509 110.84C243.749 110.52 243.922 110.22 244.029 109.94C244.136 109.647 244.189 109.353 244.189 109.06C244.189 108.473 243.996 108.013 243.609 107.68C243.236 107.347 242.749 107.18 242.149 107.18C241.536 107.18 240.989 107.34 240.509 107.66C240.042 107.98 239.602 108.487 239.189 109.18L237.329 107.6C237.889 106.653 238.582 105.94 239.409 105.46C240.249 104.967 241.209 104.72 242.289 104.72C243.209 104.72 244.009 104.9 244.689 105.26C245.382 105.62 245.916 106.12 246.289 106.76C246.662 107.4 246.849 108.147 246.849 109C246.849 109.573 246.776 110.093 246.629 110.56C246.496 111.027 246.262 111.493 245.929 111.96C245.609 112.413 245.162 112.927 244.589 113.5L240.729 117.44H237.309ZM237.309 119V117.44L239.629 116.64H247.149V119H237.309ZM253.524 119.2C252.564 119.2 251.697 118.987 250.924 118.56C250.164 118.12 249.557 117.533 249.104 116.8C248.664 116.053 248.444 115.227 248.444 114.32C248.444 113.08 248.87 111.833 249.724 110.58L253.624 104.94H256.744L252.484 110.9L251.484 111.18C251.63 110.873 251.804 110.607 252.004 110.38C252.217 110.153 252.49 109.98 252.824 109.86C253.157 109.74 253.577 109.68 254.084 109.68C254.924 109.68 255.684 109.88 256.364 110.28C257.044 110.667 257.59 111.207 258.004 111.9C258.417 112.58 258.624 113.367 258.624 114.26C258.624 115.18 258.397 116.013 257.944 116.76C257.49 117.507 256.877 118.1 256.104 118.54C255.33 118.98 254.47 119.2 253.524 119.2ZM253.524 116.76C253.99 116.76 254.404 116.653 254.764 116.44C255.124 116.213 255.41 115.913 255.624 115.54C255.837 115.153 255.944 114.72 255.944 114.24C255.944 113.76 255.837 113.333 255.624 112.96C255.41 112.573 255.124 112.273 254.764 112.06C254.404 111.847 253.99 111.74 253.524 111.74C253.057 111.74 252.637 111.853 252.264 112.08C251.904 112.293 251.617 112.587 251.404 112.96C251.204 113.333 251.104 113.76 251.104 114.24C251.104 114.72 251.204 115.153 251.404 115.54C251.617 115.913 251.904 116.213 252.264 116.44C252.637 116.653 253.057 116.76 253.524 116.76Z" fill="#96A2B1"/>
<path d="M186.001 63V48.94H188.681V63H186.001ZM183.241 51.3V48.94H188.481V51.3H183.241ZM195.685 63.2C194.685 63.2 193.818 63.0267 193.085 62.68C192.365 62.3333 191.798 61.8467 191.385 61.22C190.985 60.5933 190.785 59.8867 190.785 59.1C190.785 58.4467 190.912 57.8533 191.165 57.32C191.418 56.7867 191.778 56.34 192.245 55.98C192.725 55.6067 193.285 55.3467 193.925 55.2L193.865 55.86C193.332 55.7267 192.878 55.4933 192.505 55.16C192.132 54.8267 191.852 54.4333 191.665 53.98C191.478 53.5133 191.385 53.0333 191.385 52.54C191.385 51.78 191.565 51.1133 191.925 50.54C192.298 49.9667 192.805 49.52 193.445 49.2C194.098 48.88 194.845 48.72 195.685 48.72C196.525 48.72 197.265 48.88 197.905 49.2C198.545 49.52 199.045 49.9667 199.405 50.54C199.778 51.1133 199.965 51.78 199.965 52.54C199.965 53.0333 199.872 53.5133 199.685 53.98C199.498 54.4333 199.218 54.8267 198.845 55.16C198.485 55.4933 198.032 55.7267 197.485 55.86L197.425 55.2C198.078 55.3467 198.638 55.6067 199.105 55.98C199.572 56.34 199.932 56.7867 200.185 57.32C200.438 57.8533 200.565 58.4467 200.565 59.1C200.565 59.8867 200.365 60.5933 199.965 61.22C199.565 61.8467 198.998 62.3333 198.265 62.68C197.532 63.0267 196.672 63.2 195.685 63.2ZM195.685 60.82C196.125 60.82 196.518 60.7333 196.865 60.56C197.212 60.3733 197.478 60.12 197.665 59.8C197.865 59.48 197.965 59.12 197.965 58.72C197.965 58.3067 197.865 57.9467 197.665 57.64C197.478 57.32 197.212 57.0733 196.865 56.9C196.518 56.7133 196.125 56.62 195.685 56.62C195.232 56.62 194.832 56.7133 194.485 56.9C194.152 57.0733 193.885 57.32 193.685 57.64C193.485 57.9467 193.385 58.3067 193.385 58.72C193.385 59.12 193.485 59.48 193.685 59.8C193.885 60.12 194.152 60.3733 194.485 60.56C194.832 60.7333 195.232 60.82 195.685 60.82ZM195.685 54.56C196.205 54.56 196.632 54.3933 196.965 54.06C197.298 53.7267 197.465 53.3 197.465 52.78C197.465 52.2467 197.298 51.8133 196.965 51.48C196.632 51.1467 196.205 50.98 195.685 50.98C195.165 50.98 194.732 51.1467 194.385 51.48C194.052 51.8133 193.885 52.24 193.885 52.76C193.885 53.2933 194.052 53.7267 194.385 54.06C194.732 54.3933 195.165 54.56 195.685 54.56Z" fill="#45515F"/>
<path d="M241.865 63V48.94H244.545V63H241.865ZM239.105 51.3V48.94H244.345V51.3H239.105ZM248.448 63L252.728 57.04L253.708 56.74C253.548 57.0467 253.362 57.32 253.148 57.56C252.948 57.7867 252.688 57.96 252.368 58.08C252.048 58.2 251.628 58.26 251.108 58.26C250.282 58.26 249.522 58.0667 248.828 57.68C248.148 57.28 247.602 56.7333 247.188 56.04C246.775 55.3467 246.568 54.5533 246.568 53.66C246.568 52.7533 246.795 51.9267 247.248 51.18C247.702 50.42 248.315 49.82 249.088 49.38C249.862 48.94 250.722 48.72 251.668 48.72C252.628 48.72 253.488 48.94 254.248 49.38C255.022 49.82 255.628 50.4067 256.068 51.14C256.522 51.8733 256.748 52.6933 256.748 53.6C256.748 54.84 256.315 56.0933 255.448 57.36L251.548 63H248.448ZM251.668 56.18C252.135 56.18 252.548 56.0733 252.908 55.86C253.268 55.6467 253.548 55.3533 253.748 54.98C253.962 54.5933 254.068 54.1667 254.068 53.7C254.068 53.2067 253.962 52.7733 253.748 52.4C253.548 52.0267 253.268 51.7333 252.908 51.52C252.548 51.2933 252.135 51.18 251.668 51.18C251.202 51.18 250.782 51.2933 250.408 51.52C250.048 51.7333 249.762 52.0267 249.548 52.4C249.348 52.7733 249.248 53.2067 249.248 53.7C249.248 54.18 249.348 54.6067 249.548 54.98C249.762 55.3533 250.055 55.6467 250.428 55.86C250.802 56.0733 251.215 56.18 251.668 56.18Z" fill="#45515F"/>
<path d="M130.294 63V48.94H132.974V63H130.294ZM127.534 51.3V48.94H132.774V51.3H127.534ZM136.818 63L141.758 50.52H144.438L139.638 63H136.818ZM134.878 51.3V48.94H144.438V50.52L143.418 51.3H134.878Z" fill="#45515F"/>
<path d="M293.924 117.44L299.224 111.9C299.598 111.5 299.898 111.147 300.124 110.84C300.364 110.52 300.538 110.22 300.644 109.94C300.751 109.647 300.804 109.353 300.804 109.06C300.804 108.473 300.611 108.013 300.224 107.68C299.851 107.347 299.364 107.18 298.764 107.18C298.151 107.18 297.604 107.34 297.124 107.66C296.658 107.98 296.218 108.487 295.804 109.18L293.944 107.6C294.504 106.653 295.198 105.94 296.024 105.46C296.864 104.967 297.824 104.72 298.904 104.72C299.824 104.72 300.624 104.9 301.304 105.26C301.998 105.62 302.531 106.12 302.904 106.76C303.278 107.4 303.464 108.147 303.464 109C303.464 109.573 303.391 110.093 303.244 110.56C303.111 111.027 302.878 111.493 302.544 111.96C302.224 112.413 301.778 112.927 301.204 113.5L297.344 117.44H293.924ZM293.924 119V117.44L296.244 116.64H303.764V119H293.924ZM306.488 119L311.428 106.52H314.108L309.308 119H306.488ZM304.548 107.3V104.94H314.108V106.52L313.088 107.3H304.548Z" fill="#1B1E22"/>
<path d="M73.8645 63V48.94H76.5445V63H73.8645ZM71.1045 51.3V48.94H76.3445V51.3H71.1045ZM83.6683 63.2C82.7083 63.2 81.8416 62.9867 81.0683 62.56C80.3083 62.12 79.7016 61.5333 79.2483 60.8C78.8083 60.0533 78.5883 59.2267 78.5883 58.32C78.5883 57.08 79.0149 55.8333 79.8683 54.58L83.7683 48.94H86.8883L82.6283 54.9L81.6283 55.18C81.7749 54.8733 81.9483 54.6067 82.1483 54.38C82.3616 54.1533 82.6349 53.98 82.9683 53.86C83.3016 53.74 83.7216 53.68 84.2283 53.68C85.0683 53.68 85.8283 53.88 86.5083 54.28C87.1883 54.6667 87.7349 55.2067 88.1483 55.9C88.5616 56.58 88.7683 57.3667 88.7683 58.26C88.7683 59.18 88.5416 60.0133 88.0883 60.76C87.6349 61.5067 87.0216 62.1 86.2483 62.54C85.4749 62.98 84.6149 63.2 83.6683 63.2ZM83.6683 60.76C84.1349 60.76 84.5483 60.6533 84.9083 60.44C85.2683 60.2133 85.5549 59.9133 85.7683 59.54C85.9816 59.1533 86.0883 58.72 86.0883 58.24C86.0883 57.76 85.9816 57.3333 85.7683 56.96C85.5549 56.5733 85.2683 56.2733 84.9083 56.06C84.5483 55.8467 84.1349 55.74 83.6683 55.74C83.2016 55.74 82.7816 55.8533 82.4083 56.08C82.0483 56.2933 81.7616 56.5867 81.5483 56.96C81.3483 57.3333 81.2483 57.76 81.2483 58.24C81.2483 58.72 81.3483 59.1533 81.5483 59.54C81.7616 59.9133 82.0483 60.2133 82.4083 60.44C82.7816 60.6533 83.2016 60.76 83.6683 60.76Z" fill="#45515F"/>
<path d="M18.0208 63V48.94H20.7008V63H18.0208ZM15.2608 51.3V48.94H20.5008V51.3H15.2608ZM27.1445 63.2C26.1712 63.2 25.2845 63.0333 24.4845 62.7C23.6845 62.3533 23.0179 61.86 22.4845 61.22L24.2845 59.44C24.5512 59.84 24.9312 60.16 25.4245 60.4C25.9312 60.64 26.4845 60.76 27.0845 60.76C27.6312 60.76 28.1045 60.66 28.5045 60.46C28.9179 60.26 29.2379 59.98 29.4645 59.62C29.7045 59.2467 29.8245 58.8133 29.8245 58.32C29.8245 57.8 29.7045 57.36 29.4645 57C29.2379 56.64 28.9312 56.3667 28.5445 56.18C28.1579 55.9933 27.7245 55.9 27.2445 55.9C26.7379 55.9 26.2779 55.9667 25.8645 56.1C25.4645 56.22 25.0779 56.42 24.7045 56.7L24.8645 54.98C25.1179 54.7133 25.3845 54.5 25.6645 54.34C25.9445 54.1667 26.2579 54.04 26.6045 53.96C26.9645 53.8667 27.3845 53.82 27.8645 53.82C28.8912 53.82 29.7445 54.0333 30.4245 54.46C31.1179 54.8733 31.6445 55.4333 32.0045 56.14C32.3645 56.8333 32.5445 57.6 32.5445 58.44C32.5445 59.36 32.3179 60.18 31.8645 60.9C31.4112 61.62 30.7779 62.1867 29.9645 62.6C29.1645 63 28.2245 63.2 27.1445 63.2ZM24.7045 56.7L23.4045 55.42L24.0445 48.94H26.5045L25.7845 55.52L24.7045 56.7ZM24.4645 51.3L24.0445 48.94H31.7645V51.3H24.4645Z" fill="#45515F"/>
<path d="M181.465 117.44L186.765 111.9C187.139 111.5 187.439 111.147 187.665 110.84C187.905 110.52 188.079 110.22 188.185 109.94C188.292 109.647 188.345 109.353 188.345 109.06C188.345 108.473 188.152 108.013 187.765 107.68C187.392 107.347 186.905 107.18 186.305 107.18C185.692 107.18 185.145 107.34 184.665 107.66C184.199 107.98 183.759 108.487 183.345 109.18L181.485 107.6C182.045 106.653 182.739 105.94 183.565 105.46C184.405 104.967 185.365 104.72 186.445 104.72C187.365 104.72 188.165 104.9 188.845 105.26C189.539 105.62 190.072 106.12 190.445 106.76C190.819 107.4 191.005 108.147 191.005 109C191.005 109.573 190.932 110.093 190.785 110.56C190.652 111.027 190.419 111.493 190.085 111.96C189.765 112.413 189.319 112.927 188.745 113.5L184.885 117.44H181.465ZM181.465 119V117.44L183.785 116.64H191.305V119H181.465ZM197 119.2C196.027 119.2 195.14 119.033 194.34 118.7C193.54 118.353 192.873 117.86 192.34 117.22L194.14 115.44C194.407 115.84 194.787 116.16 195.28 116.4C195.787 116.64 196.34 116.76 196.94 116.76C197.487 116.76 197.96 116.66 198.36 116.46C198.773 116.26 199.093 115.98 199.32 115.62C199.56 115.247 199.68 114.813 199.68 114.32C199.68 113.8 199.56 113.36 199.32 113C199.093 112.64 198.787 112.367 198.4 112.18C198.013 111.993 197.58 111.9 197.1 111.9C196.593 111.9 196.133 111.967 195.72 112.1C195.32 112.22 194.933 112.42 194.56 112.7L194.72 110.98C194.973 110.713 195.24 110.5 195.52 110.34C195.8 110.167 196.113 110.04 196.46 109.96C196.82 109.867 197.24 109.82 197.72 109.82C198.747 109.82 199.6 110.033 200.28 110.46C200.973 110.873 201.5 111.433 201.86 112.14C202.22 112.833 202.4 113.6 202.4 114.44C202.4 115.36 202.173 116.18 201.72 116.9C201.267 117.62 200.633 118.187 199.82 118.6C199.02 119 198.08 119.2 197 119.2ZM194.56 112.7L193.26 111.42L193.9 104.94H196.36L195.64 111.52L194.56 112.7ZM194.32 107.3L193.9 104.94H201.62V107.3H194.32Z" fill="#96A2B1"/>
<path d="M184.392 20V11.648H186.276V20H184.392ZM181.74 13.172V11.528H188.928V13.172H181.74ZM193.664 20V16.676C193.664 16.372 193.568 16.128 193.376 15.944C193.192 15.752 192.956 15.656 192.668 15.656C192.468 15.656 192.292 15.7 192.14 15.788C191.988 15.868 191.868 15.988 191.78 16.148C191.692 16.3 191.648 16.476 191.648 16.676L190.94 16.328C190.94 15.872 191.036 15.472 191.228 15.128C191.42 14.784 191.688 14.52 192.032 14.336C192.376 14.144 192.772 14.048 193.22 14.048C193.676 14.048 194.076 14.144 194.42 14.336C194.764 14.52 195.028 14.78 195.212 15.116C195.404 15.444 195.5 15.828 195.5 16.268V20H193.664ZM189.812 20V11.288H191.648V20H189.812ZM199.271 20.132C198.735 20.132 198.259 20.024 197.843 19.808C197.435 19.584 197.115 19.28 196.883 18.896C196.651 18.504 196.535 18.056 196.535 17.552V14.168H198.371V17.528C198.371 17.728 198.403 17.9 198.467 18.044C198.539 18.188 198.643 18.3 198.779 18.38C198.915 18.46 199.079 18.5 199.271 18.5C199.543 18.5 199.759 18.416 199.919 18.248C200.079 18.072 200.159 17.832 200.159 17.528V14.168H201.995V17.54C201.995 18.052 201.879 18.504 201.647 18.896C201.415 19.28 201.095 19.584 200.687 19.808C200.279 20.024 199.807 20.132 199.271 20.132Z" fill="#45515F"/>
<path d="M241.152 20V11.528H243.036V20H241.152ZM242.592 16.676V15.056H246.828V16.676H242.592ZM242.592 13.148V11.528H247.02V13.148H242.592ZM248.062 20V14.168H249.898V20H248.062ZM249.898 16.796L249.13 16.196C249.282 15.516 249.538 14.988 249.898 14.612C250.258 14.236 250.758 14.048 251.398 14.048C251.678 14.048 251.922 14.092 252.13 14.18C252.346 14.26 252.534 14.388 252.694 14.564L251.602 15.944C251.522 15.856 251.422 15.788 251.302 15.74C251.182 15.692 251.046 15.668 250.894 15.668C250.59 15.668 250.346 15.764 250.162 15.956C249.986 16.14 249.898 16.42 249.898 16.796ZM253.183 20V14.168H255.019V20H253.183ZM254.107 13.364C253.819 13.364 253.579 13.268 253.387 13.076C253.203 12.876 253.111 12.636 253.111 12.356C253.111 12.068 253.203 11.828 253.387 11.636C253.579 11.444 253.819 11.348 254.107 11.348C254.395 11.348 254.631 11.444 254.815 11.636C254.999 11.828 255.091 12.068 255.091 12.356C255.091 12.636 254.999 12.876 254.815 13.076C254.631 13.268 254.395 13.364 254.107 13.364Z" fill="#45515F"/>
<path d="M124.958 117.44L130.258 111.9C130.631 111.5 130.931 111.147 131.158 110.84C131.398 110.52 131.571 110.22 131.678 109.94C131.784 109.647 131.838 109.353 131.838 109.06C131.838 108.473 131.644 108.013 131.258 107.68C130.884 107.347 130.398 107.18 129.798 107.18C129.184 107.18 128.638 107.34 128.158 107.66C127.691 107.98 127.251 108.487 126.838 109.18L124.978 107.6C125.538 106.653 126.231 105.94 127.058 105.46C127.898 104.967 128.858 104.72 129.938 104.72C130.858 104.72 131.658 104.9 132.338 105.26C133.031 105.62 133.564 106.12 133.938 106.76C134.311 107.4 134.498 108.147 134.498 109C134.498 109.573 134.424 110.093 134.278 110.56C134.144 111.027 133.911 111.493 133.578 111.96C133.258 112.413 132.811 112.927 132.238 113.5L128.378 117.44H124.958ZM124.958 119V117.44L127.278 116.64H134.798V119H124.958ZM135.992 114.04L140.792 104.94H143.792L138.872 114.04H135.992ZM135.992 115.64V114.04L136.992 113.26H147.072V115.64H135.992ZM142.632 119V110.04H145.312V119H142.632Z" fill="#96A2B1"/>
<path d="M126.436 20L123.712 11.528H125.584L127.576 18.044H126.844L128.788 11.528H130.264L132.208 18.044H131.488L133.468 11.528H135.328L132.604 20H131.128L129.172 13.484H129.868L127.912 20H126.436ZM138.309 20.132C137.677 20.132 137.113 20.004 136.617 19.748C136.129 19.484 135.745 19.12 135.465 18.656C135.185 18.192 135.045 17.668 135.045 17.084C135.045 16.5 135.181 15.98 135.453 15.524C135.733 15.06 136.109 14.696 136.581 14.432C137.053 14.168 137.585 14.036 138.177 14.036C138.753 14.036 139.261 14.16 139.701 14.408C140.141 14.656 140.485 15 140.733 15.44C140.989 15.88 141.117 16.384 141.117 16.952C141.117 17.056 141.109 17.168 141.093 17.288C141.085 17.4 141.065 17.532 141.033 17.684L136.005 17.696V16.436L140.253 16.424L139.461 16.952C139.453 16.616 139.401 16.34 139.305 16.124C139.209 15.9 139.065 15.732 138.873 15.62C138.689 15.5 138.461 15.44 138.189 15.44C137.901 15.44 137.649 15.508 137.433 15.644C137.225 15.772 137.061 15.956 136.941 16.196C136.829 16.436 136.773 16.728 136.773 17.072C136.773 17.416 136.833 17.712 136.953 17.96C137.081 18.2 137.257 18.388 137.481 18.524C137.713 18.652 137.985 18.716 138.297 18.716C138.585 18.716 138.845 18.668 139.077 18.572C139.309 18.468 139.513 18.316 139.689 18.116L140.697 19.124C140.409 19.46 140.061 19.712 139.653 19.88C139.245 20.048 138.797 20.132 138.309 20.132ZM144.487 20.12C143.935 20.12 143.443 19.988 143.011 19.724C142.587 19.46 142.251 19.1 142.003 18.644C141.763 18.188 141.643 17.668 141.643 17.084C141.643 16.5 141.763 15.98 142.003 15.524C142.251 15.068 142.587 14.708 143.011 14.444C143.443 14.18 143.935 14.048 144.487 14.048C144.887 14.048 145.247 14.124 145.567 14.276C145.895 14.428 146.163 14.64 146.371 14.912C146.587 15.176 146.707 15.48 146.731 15.824V18.284C146.707 18.628 146.591 18.94 146.383 19.22C146.175 19.492 145.907 19.712 145.579 19.88C145.251 20.04 144.887 20.12 144.487 20.12ZM144.811 18.464C145.075 18.464 145.303 18.408 145.495 18.296C145.687 18.176 145.839 18.012 145.951 17.804C146.063 17.596 146.119 17.356 146.119 17.084C146.119 16.812 146.063 16.576 145.951 16.376C145.847 16.168 145.695 16.004 145.495 15.884C145.303 15.764 145.079 15.704 144.823 15.704C144.567 15.704 144.339 15.764 144.139 15.884C143.947 16.004 143.791 16.168 143.671 16.376C143.559 16.584 143.503 16.82 143.503 17.084C143.503 17.348 143.559 17.584 143.671 17.792C143.783 18 143.939 18.164 144.139 18.284C144.339 18.404 144.563 18.464 144.811 18.464ZM147.847 20H146.047V18.428L146.323 17.012L146.011 15.596V11.288H147.847V20Z" fill="#45515F"/>
<path d="M69.4946 117.44L74.7946 111.9C75.1679 111.5 75.4679 111.147 75.6946 110.84C75.9346 110.52 76.1079 110.22 76.2146 109.94C76.3213 109.647 76.3746 109.353 76.3746 109.06C76.3746 108.473 76.1813 108.013 75.7946 107.68C75.4213 107.347 74.9346 107.18 74.3346 107.18C73.7213 107.18 73.1746 107.34 72.6946 107.66C72.2279 107.98 71.7879 108.487 71.3746 109.18L69.5146 107.6C70.0746 106.653 70.7679 105.94 71.5946 105.46C72.4346 104.967 73.3946 104.72 74.4746 104.72C75.3946 104.72 76.1946 104.9 76.8746 105.26C77.5679 105.62 78.1013 106.12 78.4746 106.76C78.8479 107.4 79.0346 108.147 79.0346 109C79.0346 109.573 78.9613 110.093 78.8146 110.56C78.6813 111.027 78.4479 111.493 78.1146 111.96C77.7946 112.413 77.3479 112.927 76.7746 113.5L72.9146 117.44H69.4946ZM69.4946 119V117.44L71.8146 116.64H79.3346V119H69.4946ZM85.0093 119.2C84.0626 119.2 83.196 119.033 82.4093 118.7C81.6226 118.353 80.9626 117.86 80.4293 117.22L82.2293 115.44C82.496 115.84 82.876 116.16 83.3693 116.4C83.8626 116.64 84.396 116.76 84.9693 116.76C85.5026 116.76 85.9626 116.667 86.3493 116.48C86.736 116.28 87.036 116.007 87.2493 115.66C87.476 115.3 87.5893 114.887 87.5893 114.42C87.5893 113.927 87.476 113.507 87.2493 113.16C87.036 112.813 86.7226 112.547 86.3093 112.36C85.896 112.173 85.4026 112.08 84.8293 112.08C84.576 112.08 84.316 112.1 84.0493 112.14C83.7826 112.167 83.556 112.213 83.3693 112.28L84.5693 110.76C84.9026 110.653 85.2293 110.567 85.5493 110.5C85.8826 110.42 86.1893 110.38 86.4693 110.38C87.1893 110.38 87.836 110.553 88.4093 110.9C88.996 111.233 89.456 111.713 89.7893 112.34C90.136 112.953 90.3093 113.68 90.3093 114.52C90.3093 115.453 90.0893 116.273 89.6493 116.98C89.2093 117.673 88.5893 118.22 87.7893 118.62C87.0026 119.007 86.076 119.2 85.0093 119.2ZM83.3693 112.28V110.72L86.9693 106.54L90.0893 106.5L86.3693 110.76L83.3693 112.28ZM81.2093 107.3V104.94H90.0893V106.5L87.8693 107.3H81.2093Z" fill="#96A2B1"/>
<path d="M73.1244 20V11.648H75.0084V20H73.1244ZM70.4724 13.172V11.528H77.6604V13.172H70.4724ZM79.9646 20.132C79.4286 20.132 78.9526 20.024 78.5366 19.808C78.1286 19.584 77.8086 19.28 77.5766 18.896C77.3446 18.504 77.2286 18.056 77.2286 17.552V14.168H79.0646V17.528C79.0646 17.728 79.0966 17.9 79.1606 18.044C79.2326 18.188 79.3366 18.3 79.4726 18.38C79.6086 18.46 79.7726 18.5 79.9646 18.5C80.2366 18.5 80.4526 18.416 80.6126 18.248C80.7726 18.072 80.8526 17.832 80.8526 17.528V14.168H82.6886V17.54C82.6886 18.052 82.5726 18.504 82.3406 18.896C82.1086 19.28 81.7886 19.584 81.3806 19.808C80.9726 20.024 80.5006 20.132 79.9646 20.132ZM86.7214 20.132C86.0894 20.132 85.5254 20.004 85.0294 19.748C84.5414 19.484 84.1574 19.12 83.8774 18.656C83.5974 18.192 83.4574 17.668 83.4574 17.084C83.4574 16.5 83.5934 15.98 83.8654 15.524C84.1454 15.06 84.5214 14.696 84.9934 14.432C85.4654 14.168 85.9974 14.036 86.5894 14.036C87.1654 14.036 87.6734 14.16 88.1134 14.408C88.5534 14.656 88.8974 15 89.1454 15.44C89.4014 15.88 89.5294 16.384 89.5294 16.952C89.5294 17.056 89.5214 17.168 89.5054 17.288C89.4974 17.4 89.4774 17.532 89.4454 17.684L84.4174 17.696V16.436L88.6654 16.424L87.8734 16.952C87.8654 16.616 87.8134 16.34 87.7174 16.124C87.6214 15.9 87.4774 15.732 87.2854 15.62C87.1014 15.5 86.8734 15.44 86.6014 15.44C86.3134 15.44 86.0614 15.508 85.8454 15.644C85.6374 15.772 85.4734 15.956 85.3534 16.196C85.2414 16.436 85.1854 16.728 85.1854 17.072C85.1854 17.416 85.2454 17.712 85.3654 17.96C85.4934 18.2 85.6694 18.388 85.8934 18.524C86.1254 18.652 86.3974 18.716 86.7094 18.716C86.9974 18.716 87.2574 18.668 87.4894 18.572C87.7214 18.468 87.9254 18.316 88.1014 18.116L89.1094 19.124C88.8214 19.46 88.4734 19.712 88.0654 19.88C87.6574 20.048 87.2094 20.132 86.7214 20.132Z" fill="#45515F"/>
<path d="M13.4653 117.44L18.7653 111.9C19.1386 111.5 19.4386 111.147 19.6653 110.84C19.9053 110.52 20.0786 110.22 20.1853 109.94C20.292 109.647 20.3453 109.353 20.3453 109.06C20.3453 108.473 20.152 108.013 19.7653 107.68C19.392 107.347 18.9053 107.18 18.3053 107.18C17.692 107.18 17.1453 107.34 16.6653 107.66C16.1986 107.98 15.7586 108.487 15.3453 109.18L13.4853 107.6C14.0453 106.653 14.7386 105.94 15.5653 105.46C16.4053 104.967 17.3653 104.72 18.4453 104.72C19.3653 104.72 20.1653 104.9 20.8453 105.26C21.5386 105.62 22.072 106.12 22.4453 106.76C22.8186 107.4 23.0053 108.147 23.0053 109C23.0053 109.573 22.932 110.093 22.7853 110.56C22.652 111.027 22.4186 111.493 22.0853 111.96C21.7653 112.413 21.3186 112.927 20.7453 113.5L16.8853 117.44H13.4653ZM13.4653 119V117.44L15.7853 116.64H23.3053V119H13.4653ZM24.52 117.44L29.82 111.9C30.1933 111.5 30.4933 111.147 30.72 110.84C30.96 110.52 31.1333 110.22 31.24 109.94C31.3467 109.647 31.4 109.353 31.4 109.06C31.4 108.473 31.2067 108.013 30.82 107.68C30.4467 107.347 29.96 107.18 29.36 107.18C28.7467 107.18 28.2 107.34 27.72 107.66C27.2533 107.98 26.8133 108.487 26.4 109.18L24.54 107.6C25.1 106.653 25.7933 105.94 26.62 105.46C27.46 104.967 28.42 104.72 29.5 104.72C30.42 104.72 31.22 104.9 31.9 105.26C32.5933 105.62 33.1267 106.12 33.5 106.76C33.8733 107.4 34.06 108.147 34.06 109C34.06 109.573 33.9867 110.093 33.84 110.56C33.7067 111.027 33.4733 111.493 33.14 111.96C32.82 112.413 32.3733 112.927 31.8 113.5L27.94 117.44H24.52ZM24.52 119V117.44L26.84 116.64H34.36V119H24.52Z" fill="#96A2B1"/>
<path d="M12.775 20V11.528H14.119L17.455 16.724H16.771L20.095 11.528H21.451V20H19.567V14.708L19.903 14.792L17.731 18.176H16.483L14.323 14.792L14.647 14.708V20H12.775ZM25.7158 20.132C25.1158 20.132 24.5718 20 24.0838 19.736C23.6038 19.464 23.2238 19.096 22.9438 18.632C22.6638 18.168 22.5238 17.648 22.5238 17.072C22.5238 16.496 22.6638 15.98 22.9438 15.524C23.2238 15.068 23.6038 14.708 24.0838 14.444C24.5638 14.172 25.1078 14.036 25.7158 14.036C26.3238 14.036 26.8678 14.168 27.3478 14.432C27.8278 14.696 28.2078 15.06 28.4878 15.524C28.7678 15.98 28.9078 16.496 28.9078 17.072C28.9078 17.648 28.7678 18.168 28.4878 18.632C28.2078 19.096 27.8278 19.464 27.3478 19.736C26.8678 20 26.3238 20.132 25.7158 20.132ZM25.7158 18.464C25.9798 18.464 26.2118 18.408 26.4118 18.296C26.6118 18.176 26.7638 18.012 26.8678 17.804C26.9798 17.588 27.0358 17.344 27.0358 17.072C27.0358 16.8 26.9798 16.564 26.8678 16.364C26.7558 16.156 26.5998 15.996 26.3998 15.884C26.2078 15.764 25.9798 15.704 25.7158 15.704C25.4598 15.704 25.2318 15.764 25.0318 15.884C24.8318 15.996 24.6758 16.156 24.5638 16.364C24.4518 16.572 24.3958 16.812 24.3958 17.084C24.3958 17.348 24.4518 17.588 24.5638 17.804C24.6758 18.012 24.8318 18.176 25.0318 18.296C25.2318 18.408 25.4598 18.464 25.7158 18.464ZM33.6738 20V16.676C33.6738 16.372 33.5778 16.128 33.3858 15.944C33.2018 15.752 32.9658 15.656 32.6778 15.656C32.4778 15.656 32.3018 15.7 32.1498 15.788C31.9978 15.868 31.8778 15.988 31.7898 16.148C31.7018 16.3 31.6578 16.476 31.6578 16.676L30.9498 16.328C30.9498 15.872 31.0498 15.472 31.2498 15.128C31.4498 14.784 31.7258 14.52 32.0778 14.336C32.4378 14.144 32.8418 14.048 33.2898 14.048C33.7218 14.048 34.1018 14.152 34.4298 14.36C34.7658 14.56 35.0298 14.828 35.2218 15.164C35.4138 15.5 35.5098 15.868 35.5098 16.268V20H33.6738ZM29.8218 20V14.168H31.6578V20H29.8218Z" fill="#45515F"/>
<path opacity="0.16" d="M186.993 173.44L192.293 167.9C192.666 167.5 192.966 167.147 193.193 166.84C193.433 166.52 193.606 166.22 193.713 165.94C193.819 165.647 193.873 165.353 193.873 165.06C193.873 164.473 193.679 164.013 193.293 163.68C192.919 163.347 192.433 163.18 191.833 163.18C191.219 163.18 190.673 163.34 190.193 163.66C189.726 163.98 189.286 164.487 188.873 165.18L187.013 163.6C187.573 162.653 188.266 161.94 189.093 161.46C189.933 160.967 190.893 160.72 191.973 160.72C192.893 160.72 193.693 160.9 194.373 161.26C195.066 161.62 195.599 162.12 195.973 162.76C196.346 163.4 196.533 164.147 196.533 165C196.533 165.573 196.459 166.093 196.313 166.56C196.179 167.027 195.946 167.493 195.613 167.96C195.293 168.413 194.846 168.927 194.273 169.5L190.413 173.44H186.993ZM186.993 175V173.44L189.313 172.64H196.833V175H186.993Z" fill="#45515F"/>
<path opacity="0.16" d="M247.482 175.2C246.535 175.2 245.669 175.033 244.882 174.7C244.095 174.353 243.435 173.86 242.902 173.22L244.702 171.44C244.969 171.84 245.349 172.16 245.842 172.4C246.335 172.64 246.869 172.76 247.442 172.76C247.975 172.76 248.435 172.667 248.822 172.48C249.209 172.28 249.509 172.007 249.722 171.66C249.949 171.3 250.062 170.887 250.062 170.42C250.062 169.927 249.949 169.507 249.722 169.16C249.509 168.813 249.195 168.547 248.782 168.36C248.369 168.173 247.875 168.08 247.302 168.08C247.049 168.08 246.789 168.1 246.522 168.14C246.255 168.167 246.029 168.213 245.842 168.28L247.042 166.76C247.375 166.653 247.702 166.567 248.022 166.5C248.355 166.42 248.662 166.38 248.942 166.38C249.662 166.38 250.309 166.553 250.882 166.9C251.469 167.233 251.929 167.713 252.262 168.34C252.609 168.953 252.782 169.68 252.782 170.52C252.782 171.453 252.562 172.273 252.122 172.98C251.682 173.673 251.062 174.22 250.262 174.62C249.475 175.007 248.549 175.2 247.482 175.2ZM245.842 168.28V166.72L249.442 162.54L252.562 162.5L248.842 166.76L245.842 168.28ZM243.682 163.3V160.94H252.562V162.5L250.342 163.3H243.682Z" fill="#45515F"/>
<path opacity="0.16" d="M298.465 170.04L303.265 160.94H306.265L301.345 170.04H298.465ZM298.465 171.64V170.04L299.465 169.26H309.545V171.64H298.465ZM305.105 175V166.04H307.785V175H305.105Z" fill="#45515F"/>
<path opacity="0.16" d="M359.473 175.2C358.499 175.2 357.613 175.033 356.813 174.7C356.013 174.353 355.346 173.86 354.813 173.22L356.613 171.44C356.879 171.84 357.259 172.16 357.753 172.4C358.259 172.64 358.813 172.76 359.413 172.76C359.959 172.76 360.433 172.66 360.833 172.46C361.246 172.26 361.566 171.98 361.793 171.62C362.033 171.247 362.153 170.813 362.153 170.32C362.153 169.8 362.033 169.36 361.793 169C361.566 168.64 361.259 168.367 360.873 168.18C360.486 167.993 360.053 167.9 359.573 167.9C359.066 167.9 358.606 167.967 358.193 168.1C357.793 168.22 357.406 168.42 357.033 168.7L357.193 166.98C357.446 166.713 357.713 166.5 357.993 166.34C358.273 166.167 358.586 166.04 358.933 165.96C359.293 165.867 359.713 165.82 360.193 165.82C361.219 165.82 362.073 166.033 362.753 166.46C363.446 166.873 363.973 167.433 364.333 168.14C364.693 168.833 364.873 169.6 364.873 170.44C364.873 171.36 364.646 172.18 364.193 172.9C363.739 173.62 363.106 174.187 362.293 174.6C361.493 175 360.553 175.2 359.473 175.2ZM357.033 168.7L355.733 167.42L356.373 160.94H358.833L358.113 167.52L357.033 168.7ZM356.793 163.3L356.373 160.94H364.093V163.3H356.793Z" fill="#45515F"/>
<path opacity="0.16" d="M135.548 175V160.94H138.228V175H135.548ZM132.788 163.3V160.94H138.028V163.3H132.788Z" fill="#45515F"/>
<path opacity="0.16" d="M72.8804 175.2C71.9337 175.2 71.0671 175.033 70.2804 174.7C69.4937 174.353 68.8337 173.86 68.3004 173.22L70.1004 171.44C70.3671 171.84 70.7471 172.16 71.2404 172.4C71.7337 172.64 72.2671 172.76 72.8404 172.76C73.3737 172.76 73.8337 172.667 74.2204 172.48C74.6071 172.28 74.9071 172.007 75.1204 171.66C75.3471 171.3 75.4604 170.887 75.4604 170.42C75.4604 169.927 75.3471 169.507 75.1204 169.16C74.9071 168.813 74.5937 168.547 74.1804 168.36C73.7671 168.173 73.2737 168.08 72.7004 168.08C72.4471 168.08 72.1871 168.1 71.9204 168.14C71.6537 168.167 71.4271 168.213 71.2404 168.28L72.4404 166.76C72.7737 166.653 73.1004 166.567 73.4204 166.5C73.7537 166.42 74.0604 166.38 74.3404 166.38C75.0604 166.38 75.7071 166.553 76.2804 166.9C76.8671 167.233 77.3271 167.713 77.6604 168.34C78.0071 168.953 78.1804 169.68 78.1804 170.52C78.1804 171.453 77.9604 172.273 77.5204 172.98C77.0804 173.673 76.4604 174.22 75.6604 174.62C74.8737 175.007 73.9471 175.2 72.8804 175.2ZM71.2404 168.28V166.72L74.8404 162.54L77.9604 162.5L74.2404 166.76L71.2404 168.28ZM69.0804 163.3V160.94H77.9604V162.5L75.7404 163.3H69.0804ZM85.5365 175.2C84.4298 175.2 83.4298 174.9 82.5365 174.3C81.6432 173.7 80.9298 172.853 80.3965 171.76C79.8765 170.667 79.6165 169.393 79.6165 167.94C79.6165 166.487 79.8765 165.22 80.3965 164.14C80.9165 163.06 81.6165 162.22 82.4965 161.62C83.3898 161.02 84.3832 160.72 85.4765 160.72C86.5965 160.72 87.5965 161.02 88.4765 161.62C89.3698 162.22 90.0765 163.067 90.5965 164.16C91.1165 165.24 91.3765 166.513 91.3765 167.98C91.3765 169.433 91.1165 170.707 90.5965 171.8C90.0765 172.88 89.3765 173.72 88.4965 174.32C87.6165 174.907 86.6298 175.2 85.5365 175.2ZM85.4965 172.74C86.1365 172.74 86.6898 172.56 87.1565 172.2C87.6232 171.84 87.9832 171.307 88.2365 170.6C88.5032 169.893 88.6365 169.013 88.6365 167.96C88.6365 166.907 88.5032 166.027 88.2365 165.32C87.9832 164.613 87.6165 164.087 87.1365 163.74C86.6698 163.38 86.1165 163.2 85.4765 163.2C84.8498 163.2 84.3032 163.38 83.8365 163.74C83.3698 164.087 83.0032 164.613 82.7365 165.32C82.4832 166.013 82.3565 166.887 82.3565 167.94C82.3565 169.007 82.4832 169.893 82.7365 170.6C83.0032 171.307 83.3698 171.84 83.8365 172.2C84.3032 172.56 84.8565 172.74 85.4965 172.74Z" fill="#45515F"/>
<path opacity="0.16" d="M13.3091 173.44L18.6091 167.9C18.9824 167.5 19.2824 167.147 19.5091 166.84C19.7491 166.52 19.9224 166.22 20.0291 165.94C20.1357 165.647 20.1891 165.353 20.1891 165.06C20.1891 164.473 19.9957 164.013 19.6091 163.68C19.2357 163.347 18.7491 163.18 18.1491 163.18C17.5357 163.18 16.9891 163.34 16.5091 163.66C16.0424 163.98 15.6024 164.487 15.1891 165.18L13.3291 163.6C13.8891 162.653 14.5824 161.94 15.4091 161.46C16.2491 160.967 17.2091 160.72 18.2891 160.72C19.2091 160.72 20.0091 160.9 20.6891 161.26C21.3824 161.62 21.9157 162.12 22.2891 162.76C22.6624 163.4 22.8491 164.147 22.8491 165C22.8491 165.573 22.7757 166.093 22.6291 166.56C22.4957 167.027 22.2624 167.493 21.9291 167.96C21.6091 168.413 21.1624 168.927 20.5891 169.5L16.7291 173.44H13.3091ZM13.3091 175V173.44L15.6291 172.64H23.1491V175H13.3091ZM26.3038 175L30.5838 169.04L31.5638 168.74C31.4038 169.047 31.2171 169.32 31.0038 169.56C30.8038 169.787 30.5438 169.96 30.2238 170.08C29.9038 170.2 29.4838 170.26 28.9638 170.26C28.1371 170.26 27.3771 170.067 26.6838 169.68C26.0038 169.28 25.4571 168.733 25.0438 168.04C24.6304 167.347 24.4238 166.553 24.4238 165.66C24.4238 164.753 24.6504 163.927 25.1038 163.18C25.5571 162.42 26.1704 161.82 26.9438 161.38C27.7171 160.94 28.5771 160.72 29.5238 160.72C30.4838 160.72 31.3438 160.94 32.1038 161.38C32.8771 161.82 33.4838 162.407 33.9238 163.14C34.3771 163.873 34.6038 164.693 34.6038 165.6C34.6038 166.84 34.1704 168.093 33.3038 169.36L29.4038 175H26.3038ZM29.5238 168.18C29.9904 168.18 30.4038 168.073 30.7638 167.86C31.1238 167.647 31.4038 167.353 31.6038 166.98C31.8171 166.593 31.9238 166.167 31.9238 165.7C31.9238 165.207 31.8171 164.773 31.6038 164.4C31.4038 164.027 31.1238 163.733 30.7638 163.52C30.4038 163.293 29.9904 163.18 29.5238 163.18C29.0571 163.18 28.6371 163.293 28.2638 163.52C27.9038 163.733 27.6171 164.027 27.4038 164.4C27.2038 164.773 27.1038 165.207 27.1038 165.7C27.1038 166.18 27.2038 166.607 27.4038 166.98C27.6171 167.353 27.9104 167.647 28.2838 167.86C28.6571 168.073 29.0704 168.18 29.5238 168.18Z" fill="#45515F"/>
</g>
<defs>
<linearGradient id="paint0_linear_2301_136" x1="192" y1="144" x2="192" y2="248" gradientUnits="userSpaceOnUse">
<stop stop-color="#22282F"/>
<stop offset="1" stop-color="#1B1E22" stop-opacity="0"/>
</linearGradient>
<clipPath id="clip0_2301_136">
<rect width="384" height="248" fill="white"/>
</clipPath>
</defs>
</svg>
