<svg width="176" height="256" viewBox="0 0 176 256" fill="none" xmlns="http://www.w3.org/2000/svg">
<g clip-path="url(#clip0_2301_215)">
<path d="M62.1502 44.1309C66.2733 44.1309 69.6253 40.1906 69.6253 35.3498C69.6253 30.509 66.2733 26.5686 62.1502 26.5686C58.027 26.5686 54.675 30.509 54.675 35.3498C54.675 40.1906 58.027 44.1309 62.1502 44.1309ZM62.1502 29.096C64.8781 29.096 67.098 31.8997 67.098 35.3453C67.098 38.7909 64.8781 41.5991 62.1502 41.5991C59.4222 41.5991 57.2024 38.7954 57.2024 35.3453C57.2024 31.8953 59.4178 29.096 62.1502 29.096Z" fill="#22282F"/>
<path d="M253.802 166.403L252.229 162.868C250.936 159.984 249.648 157.096 248.422 154.176C245.668 147.619 240.515 143.162 233.107 140.924C227.682 139.284 222.03 138.776 216.057 139.342L222.516 87.8095L222.533 87.5331C222.533 87.2434 222.529 86.9447 222.476 86.6416C222.431 86.7085 222.377 86.7709 222.333 86.8377C222.386 86.4856 222.533 86.1468 222.533 85.7858C222.533 70.2471 171.108 61.8627 122.722 61.8627C107.465 61.8627 92.3181 62.6606 78.7319 64.1761L78.7185 58.4394C78.7853 58.1006 79.0483 57.1913 79.4094 55.9164C80.8937 50.7101 83.6529 41.0107 83.4612 35.9738C83.4612 24.692 74.2833 15.5142 63.0015 15.5142C51.7197 15.5142 42.5419 24.692 42.5419 36.0229C42.6221 39.678 44.6369 47.2512 46.6962 54.6906C47.2133 56.5761 47.61 57.9624 47.6679 58.1496V66.904C47.6679 67.4033 47.6412 67.8044 47.6189 68.2101C47.5921 68.6424 47.5654 69.0837 47.5565 69.632C30.9748 73.8799 22.9113 79.1709 22.9113 85.7813C22.9113 86.1067 22.9648 86.4232 23.0093 86.7397C22.938 87.0963 22.9246 87.4529 22.9291 87.8006L35.1737 185.401C34.9909 185.365 34.8171 185.321 34.6343 185.285C17.8298 182.396 2.37582 190.674 1.72503 191.026L0 191.962L1.28374 193.446C1.75623 193.995 13.0826 206.895 29.9005 209.787C32.3923 210.215 34.8483 210.398 37.2375 210.398C46.2683 210.398 54.1758 207.795 58.7358 205.914C54.9514 208.169 49.5623 212.186 46.5224 218.11C41.5835 227.742 44.8909 238.409 45.0336 238.859L45.5551 240.486L47.133 239.84C47.6011 239.648 58.6689 235.03 63.5765 225.451C65.3372 222.014 66.0237 218.466 66.2064 215.279C78.9815 219.478 97.0118 222.487 122.709 222.487C148.157 222.487 168.237 219.643 182.992 214.178C187.467 217.396 193.007 219.772 199.85 221.328C203.273 222.099 206.669 222.487 210.044 222.487C215.589 222.487 221.049 221.444 226.371 219.358C236.757 215.288 244.888 207.924 250.544 197.472C253.981 191.115 255.813 184.549 255.987 177.952C256.111 173.825 255.367 169.933 253.802 166.403ZM215.415 108.67C212.919 111.982 206.447 115.241 196.618 118.026L197.233 105.501C197.269 104.801 196.729 104.208 196.03 104.177C195.339 104.146 194.741 104.676 194.706 105.376L194.05 118.708C188.67 120.113 182.466 121.383 175.445 122.457L175.717 111.737C175.735 111.037 175.187 110.458 174.487 110.44C173.649 110.391 173.212 110.975 173.194 111.67L172.913 122.814C166.24 123.763 158.917 124.534 151.027 125.092L151.09 116.747C151.094 116.052 150.532 115.481 149.837 115.472C149.833 115.472 149.833 115.472 149.828 115.472C149.137 115.472 148.571 116.034 148.567 116.729L148.518 123.491C145.656 118.78 142.803 114.064 139.95 109.348C171.313 108.06 201.218 103.326 214.835 95.4495C214.876 95.454 214.898 95.4941 214.938 95.4941C215.451 95.4941 215.803 95.1464 216.003 94.7096C216.454 94.4199 216.868 94.1301 217.274 93.8315L215.415 108.67ZM195.553 139.627L196.489 120.594C204.632 118.356 211.029 115.682 214.92 112.611L212.535 131.68C209.549 134.497 203.736 137.234 195.553 139.627ZM212.094 135.197L211.497 139.957C208.738 140.461 205.912 141.17 202.997 142.115C200.3 142.988 197.75 144.036 195.281 145.168L195.423 142.23C202.542 140.22 208.27 137.867 212.094 135.197ZM174.897 144.071L175.383 124.909C182.122 123.892 188.367 122.676 193.921 121.272L192.985 140.336C187.77 141.736 181.708 142.997 174.897 144.071ZM192.86 142.935L192.686 146.487C185.608 150.111 179.483 154.796 174.482 160.586L174.839 146.554C181.382 145.538 187.471 144.334 192.86 142.935ZM162.019 145.77L161.319 144.62C157.869 138.954 154.455 133.266 151.009 127.597V127.57C158.6 127.017 165.951 126.25 172.851 125.279L172.365 144.468C169.08 144.949 165.616 145.382 162.019 145.77ZM172.298 146.946L171.915 162.044L163.419 148.074C166.445 147.735 169.423 147.365 172.298 146.946ZM137.307 104.975C134.864 100.928 132.391 96.9027 129.957 92.8464C126.823 87.6133 123.092 82.8617 118.827 78.4265C120.039 78.4132 121.243 78.3953 122.504 78.3953C170.832 78.3953 205.889 85.1439 212.464 91.9504C201.227 98.2221 173.769 103.776 137.307 104.975ZM50.3558 73.5367L52.1521 73.0999L52.054 71.2545C51.9827 69.9173 52.0273 69.1863 52.0719 68.482C52.1031 67.9917 52.1298 67.5147 52.1298 66.9085V58.1541C52.1298 57.6504 52.0362 57.2581 50.9976 53.505C49.6247 48.5527 47.0751 39.3303 47.0038 35.9783C47.0038 27.157 54.1802 19.9761 63.006 19.9761C71.8317 19.9761 79.0082 27.157 79.0082 36.063C79.1776 40.4759 76.4407 50.0816 75.1258 54.6996C74.3814 57.3161 74.2878 57.6771 74.2878 58.1541V69.1907L76.7839 68.8921C90.816 67.2116 106.707 66.3201 122.731 66.3201C178.922 66.3201 218.085 76.5767 218.085 85.7858C218.085 87.3905 216.89 89.0263 214.626 90.6355C206.014 81.0163 163.138 75.868 122.513 75.868C120.489 75.868 118.439 75.8858 116.388 75.9081C114.752 74.3435 113.05 72.8146 111.244 71.3347C108.499 68.8564 105.61 67.7153 102.209 68.0452C96.682 69.1551 93.6331 72.0034 92.7728 76.6346C62.0922 78.2393 34.5363 82.5631 31.3403 90.9743C28.7594 89.2581 27.3865 87.5064 27.3865 85.7902C27.3732 84.2257 29.0313 78.7252 50.3558 73.5367ZM99.6016 86.9224C106.288 90.7915 111.646 96.4525 116.923 105.171C76.775 104.65 46.1256 98.904 33.6002 92.2803C34.4382 86.7843 55.0272 81.1233 92.9377 79.1531C93.9852 82.3491 96.1426 84.921 99.6016 86.9224ZM30.5692 113.012C35.2138 116.444 42.9921 119.373 52.8475 121.735L53.8504 141.499C42.0872 138.678 34.5229 135.058 32.8202 130.953L30.5692 113.012ZM33.4308 135.825C37.4381 139.248 44.6591 142.03 53.9886 144.205L56.5962 195.492C52.5265 192.31 46.7675 188.673 39.8005 186.542L33.4308 135.825ZM55.406 122.319C61.067 123.576 67.3119 124.655 73.9668 125.551L74.4794 145.092C67.7799 144.259 61.7178 143.251 56.409 142.083L55.406 122.319ZM34.1039 188.405C35.8691 188.708 37.5495 189.158 39.1809 189.675L45.1495 198.684L35.245 196.99L29.223 187.897C30.8277 187.968 32.4591 188.12 34.1039 188.405ZM26.7982 187.906L32.5037 196.522L24.0256 195.073L19.6885 188.521C21.944 188.151 24.3287 187.942 26.7982 187.906ZM17.5222 188.918L21.2888 194.605L6.8823 192.145C9.42304 191.102 13.1361 189.818 17.5222 188.918ZM30.4443 206.681C19.3319 204.768 10.6221 197.975 6.42764 194.12L57.7729 202.892C52.4151 205.103 41.6415 208.602 30.4443 206.681ZM47.8195 199.139C47.8016 199.098 47.8195 199.058 47.7972 199.018L42.3636 190.817C49.4331 193.696 54.9336 198.042 58.0359 200.881L47.8195 199.139ZM60.2557 223.338C56.9528 229.784 50.222 233.835 47.0929 235.445C46.4377 232.231 45.5774 225.197 48.8224 218.872C52.1254 212.431 58.8561 208.379 61.9852 206.765C62.6405 209.979 63.4963 217.013 60.2557 223.338ZM66.144 210.621C65.8365 207.278 65.1456 204.92 65.0787 204.715L64.5572 203.088L64.5304 203.097L63.2556 201.626C63.0951 201.439 61.6688 199.83 59.235 197.685L56.5471 144.776C61.9852 145.935 68.0518 146.906 74.5508 147.695L76.2758 213.532C72.5182 212.649 69.1617 211.668 66.144 210.621ZM76.5031 125.876C83.4701 126.75 90.8204 127.423 98.3714 127.882L98.514 147.156C90.8472 146.755 83.644 146.162 77.0157 145.4L76.5031 125.876ZM78.6249 214.062C78.6873 213.906 78.8076 213.777 78.8032 213.599L77.0826 147.998C83.8713 148.761 91.0968 149.327 98.5318 149.71L99.0266 217.031C91.2528 216.34 84.482 215.324 78.6249 214.062ZM123.458 218.034C123.204 218.034 122.981 218.047 122.722 218.047C114.931 218.043 107.946 217.744 101.554 217.249L101.059 149.839C108.111 150.16 115.332 150.321 122.54 150.321C123.106 150.321 123.672 150.294 124.233 150.294L123.458 218.034ZM124.265 147.758C123.681 147.762 123.132 147.784 122.54 147.784C115.064 147.784 107.901 147.597 101.041 147.281L100.894 128.033C108.004 128.417 115.252 128.622 122.464 128.622C123.137 128.622 123.81 128.591 124.483 128.586L124.265 147.758ZM124.599 118.062L124.505 126.072C123.814 126.077 123.159 126.099 122.459 126.099C114.9 126.099 107.719 125.889 100.872 125.537L100.827 119.529C100.823 118.833 100.257 118.272 99.566 118.272C99.5615 118.272 99.5615 118.272 99.557 118.272C98.8617 118.276 98.3 118.847 98.3045 119.546L98.3491 125.39C90.5084 124.931 83.167 124.276 76.4363 123.429L76.1956 114.273C76.1777 113.587 75.6161 113.043 74.9341 113.043C74.9252 113.043 74.9118 113.043 74.8984 113.043C74.2031 113.061 73.6548 113.64 73.6727 114.34L73.9 123.09C67.0043 122.159 60.7594 121.049 55.2723 119.801L54.6795 108.18C54.6394 107.48 53.9975 106.972 53.3512 106.981C52.6558 107.017 52.1209 107.609 52.1521 108.305L52.7048 119.185C41.2135 116.35 33.3907 112.918 30.1011 109.383L28.1577 93.8894C42.0649 103.945 81.4375 109.41 119.647 109.687C121.296 112.455 122.972 115.2 124.63 117.964C124.635 118 124.599 118.022 124.599 118.062ZM147.969 216.919C141.421 217.534 134.12 217.909 125.985 217.989L126.761 150.249C132.457 150.187 138.136 150.004 143.744 149.692C143.958 150.044 144.167 150.401 144.386 150.758C145.683 152.902 146.971 155.05 148.272 157.194L147.836 216.576C147.827 216.705 147.929 216.795 147.969 216.919ZM130.973 128.484C134.749 134.742 138.497 141.018 142.282 147.272C137.312 147.517 132.137 147.668 126.788 147.726L127.006 128.551C128.33 128.533 129.649 128.515 130.973 128.484ZM127.033 126.037L127.077 122.016C127.875 123.344 128.678 124.677 129.48 126.005C128.673 126.019 127.853 126.028 127.033 126.037ZM170.613 213.318C164.845 214.717 158.15 215.89 150.301 216.714C150.305 216.67 150.35 216.639 150.35 216.594L150.755 161.326C155.779 169.626 160.811 177.921 165.795 186.243C167.961 189.858 169.592 193.861 171.014 197.556L170.613 213.318ZM173.158 212.676L173.404 203.07C174.924 206.025 176.818 208.624 179.082 210.897C177.237 211.512 175.271 212.11 173.158 212.676ZM251.556 177.85C251.391 183.818 249.786 189.546 246.644 195.363C241.504 204.862 234.141 211.544 224.762 215.221C217.051 218.239 209.001 218.836 200.852 216.991C187.627 213.995 179.684 207.844 175.846 197.632C174.237 193.353 172.294 188.414 169.624 183.952C162.523 172.091 155.36 160.27 148.197 148.444C139.135 133.494 130.077 118.544 121.144 103.509C115.332 93.7334 109.381 87.4261 101.839 83.0623C99.2584 81.569 97.7295 79.8128 97.0564 77.5707C97.5334 74.6734 99.2985 73.1712 103.02 72.4357C104.688 72.3109 106.466 73.0286 108.334 74.709C115.711 80.7667 121.537 87.4484 126.141 95.1375C136.509 112.459 147.015 129.701 157.513 146.946L169.459 166.577C169.682 166.934 169.913 167.281 170.154 167.638L172.236 170.794L175.271 166.751C175.98 165.784 176.662 164.852 177.402 163.974C184.306 155.777 193.132 150.013 204.383 146.358C214.523 143.059 223.492 142.676 231.827 145.19C237.987 147.049 242.075 150.557 244.321 155.901C245.561 158.848 246.862 161.763 248.168 164.683L249.737 168.208C251.052 171.177 251.65 174.333 251.556 177.85Z" fill="#22282F"/>
<path d="M233.222 152.639C229.509 150.659 225.569 150.138 220.015 149.911H219.939L219.868 149.915C202.769 151.172 189.401 158.268 180.134 170.999C178.788 172.853 177.687 175.287 176.871 178.242C175.512 183.15 177.331 187.206 181.989 189.671C185.354 191.45 189.12 192.319 193.462 192.319C193.89 192.319 194.322 192.31 194.764 192.292C207.45 191.815 218.834 187.251 228.6 178.732C233.94 174.074 237.047 169.457 238.371 164.206C239.637 159.187 237.809 155.081 233.222 152.639ZM235.928 163.591C234.734 168.32 231.881 172.523 226.942 176.829C217.626 184.955 206.768 189.31 194.674 189.765C190.253 189.947 186.468 189.176 183.179 187.433C179.573 185.526 178.271 182.659 179.314 178.911C180.05 176.25 181.017 174.088 182.189 172.483C190.988 160.395 203.701 153.65 219.988 152.434C225.137 152.652 228.765 153.124 232.037 154.867C235.598 156.762 236.904 159.699 235.928 163.591Z" fill="#22282F"/>
</g>
<defs>
<clipPath id="clip0_2301_215">
<rect width="176" height="256" fill="white"/>
</clipPath>
</defs>
</svg>
