<svg width="384" height="224" viewBox="0 0 384 224" fill="none" xmlns="http://www.w3.org/2000/svg">
<g clip-path="url(#clip0_2301_196)">
<g clip-path="url(#clip1_2301_196)">
<path d="M143.813 16.8471L143.779 17.0863L143.622 17.6109L143.472 17.8917L143.263 18.1366L142.986 18.3104L141.272 18.4594L141.039 18.6384L140.863 18.9446L140.753 19.408L140.647 20.7986L140.461 21.4727L140.174 22.0523L139.809 22.5054L139.383 22.7996L138.917 22.9054L138.431 22.7897L135.466 19.7115L135.071 19.5289L134.754 19.6228L134.538 20.0613L133.899 23.7679L133.181 24.4409L132.932 24.787L132.731 25.1876L132.615 25.6365L132.645 26.5851L132.568 26.9665L132.412 27.2841L131.13 28.4807L130.892 28.804L129.852 31.5075L129.054 32.0119L128.792 32.2957L128.594 32.6424L128.507 33.0518L128.575 33.5245L131.769 43.593L135.816 46.9437L136.255 48.9924L135.868 49.2648L135.657 49.5824L135.49 49.9285L135.41 50.2352L135.349 50.643V51.1889L135.278 51.9154L135.084 52.6071L134.996 52.8308L134.909 53.0082L134.548 53.2755L134.086 53.5215L132.431 54.9064L131.938 55.1965L131.604 55.3397L131.304 55.3122L131.005 55.2318L130.253 54.8878L129.795 54.8047L129.584 54.9801L129.531 55.3345L129.611 55.6942L129.874 56.4824L129.963 56.8233L129.989 57.1725L129.928 57.7434L129.919 58.048L129.989 58.336L130.2 58.969L130.28 59.2674V59.599L130.227 59.8154L129.954 60.2253L129.856 60.4319L129.734 60.8044L129.539 61.2512L129.09 61.9268L128.642 62.1733L128.202 62.2673L127.203 62.1988L125.601 62.3316L125.16 62.4608L124.685 62.7706L123.458 63.7981L123.045 64.0004L122.754 64.07L120.902 63.3762L116.426 64.1437L115.282 64.001L113.95 63.5163L112.559 63.2428L110.187 63.3212L109.5 63.4826L109.06 63.6896L108.823 64.071L108.69 64.4571L108.628 64.9485L108.617 65.3257L108.69 65.8914L108.673 66.1892L108.558 66.5203L108.22 67.0439L107.781 67.2234L107.305 67.2691L106.539 67.2182L106.001 67.4341L102.636 69.5508L102.293 69.941L101.937 70.4282L101.611 70.766L100.977 71.2684L100.582 71.3327L100.15 71.1718L99.7805 70.8968L99.3223 70.6986L98.8382 70.7406L93.4259 73.5666L92.4275 73.8328H92.1452L91.9081 73.755L91.5562 73.5806L91.2034 73.4888L90.5781 73.48L90.0939 73.6398L89.6809 73.8925L89.4873 74.0581L88.956 74.6169L86.5264 76.2058L83.2033 77.5877L82.5406 77.9686L82.2236 78.3261L81.4659 79.5326L80.9206 80.8449L80.3741 81.5315L79.7141 81.9803L78.258 83.4447L77.695 83.7338L76.8139 83.9761L76.0978 84.3466L75.5088 85.1929L74.3018 86.0575L73.5156 86.0507L70.9626 85.4078L70.4421 85.1452L70.0815 84.7581L69.4624 83.8982L68.9347 83.3077L68.273 82.7037L67.0826 81.8485L66.6597 81.4137L66.4838 81.1345L66.5798 80.777L66.6857 80.5824L67.5081 79.5082L67.7365 79.1372L67.93 78.7387L67.8065 78.0148L67.4282 77.0434L66.228 75.1867L65.7962 74.2879L65.6203 73.5723L65.7527 73.1567L65.8585 72.7187L65.9109 72.2507L65.8409 71.3338L65.6375 70.1999L65.5415 69.1527L65.5238 68.5601L65.6286 66.6334L65.611 65.8784L65.515 65.1104L65.2332 63.934L64.9426 63.3596L64.582 62.9393L63.7071 62.4582L62.1047 62.0446L60.3762 61.9564L58.9585 61.6622L58.2362 61.1225L57.8221 60.5699L57.45 59.8086L57.1594 59.4329L56.8164 59.1688L53.1062 58.7366L52.1379 58.1834L50.2324 56.5898L51.4711 55.3657L52.2754 54.4119L52.6454 52.7851L53.0154 49.147L53.485 48.8196L53.9603 48.7044L54.4299 48.8061L54.87 49.1382L55.3686 49.2861L55.8969 49.3323L56.4309 49.2907L56.9472 49.1475H56.9529L56.9648 49.1382L58.5672 48.5845L61.5609 48.7599L62.9578 47.7122L63.7735 46.2307L65.6634 41.1635L66.7671 41.2652L67.6887 41.9123L68.6337 42.3326L69.8251 41.7224L70.4296 39.9103L70.7467 39.3416L72.8774 37.8248L73.2178 37.4548L73.2531 37.131L73.4113 37.0199L74.1041 37.2742L74.4092 37.6214L75.2073 38.9674L75.583 39.4391L76.8507 40.0634L77.9072 39.7998L78.8698 38.9212L79.8557 37.6862L80.4193 37.3671L80.7597 36.9463L80.8126 36.405L80.4842 35.6879L81.4291 34.9702L82.1862 33.989L82.4093 32.7804L81.7519 31.4048L84.0761 29.9959L86.653 29.5092L91.754 29.5372L92.8489 29.3192L95.0091 28.517L96.2358 28.3919L98.8418 28.6841L99.8631 28.4755L101.506 27.446L101.853 27.4366L102.181 27.3209L102.569 26.7646L102.598 26.2914L102.463 25.6604L102.393 24.8996L102.634 24.0273L103.156 23.3823L103.638 23.3636L104.189 23.5307L104.905 23.4238L105.487 22.9874L106.355 21.8733L106.965 21.4369L108.075 21.1956L110.153 21.4649L111.244 21.3907L120.096 17.3162L120.789 16.6655L121.828 15.0937L122.444 14.4845L124.487 14.0564L128.942 14.4098L130.608 12.991L130.949 10.7478L129.434 9.86769L127.339 9.24811L125.889 7.80864L125.942 6.86266L126.424 6.52692L126.512 6.3453L125.379 5.88398L123.46 5.63231L122.797 5.19434L123.431 4.27586L124.229 1.67765L125.59 0.286961L127.398 0L129.511 0.69327L129.94 1.08505L130.239 1.58684L130.609 2.07929L131.226 2.41503L131.854 2.42904L133.444 1.72228L135.504 1.83904L136.15 1.5033L136.643 0.254786L136.971 1.02019L137.095 1.56401L137.288 2.10524L137.822 2.8447L138.526 3.33922L140.058 3.72633L140.757 4.27638L141.444 5.1108L141.878 5.82379L142.054 6.7049L141.948 8.06083L141.508 9.14588L140.827 10.4406L140.516 11.5391L141.168 12.056L144.308 10.7478L144.995 10.7618L145.3 11.7815L144.971 12.9776L144.009 15.2431L143.813 16.8471Z" stroke="#45515F" stroke-linecap="round" stroke-linejoin="round"/>
<path d="M143.811 16.8473L144.087 17.5213L146.06 18.0792L146.87 18.5301L149.041 20.1844L151.149 20.6582L152.381 20.7049L153.297 20.4542L153.849 19.8181L154.389 18.7771L155.287 16.3647L156.496 16.4067L158.551 15.8302L165.037 16.3091L165.154 15.5323L165.083 12.4064L165.019 12.1506L164.984 11.806L165.037 11.3032L165.195 10.996L165.753 10.3629L165.929 9.90677L165.864 7.28884L165.001 6.0258L164.08 5.29413L163.839 4.27291H163.845L164.103 3.96519L164.39 3.72753L164.713 3.57341L165.036 3.50335L165.858 2.90193L166.122 2.4868L166.28 1.74268L167.36 2.73847L170.237 3.37311L170.718 4.26356L171.387 4.9257L172.185 5.32215L172.825 5.19139L173.013 4.27291V4.26356L173.523 3.08355L174.257 2.56567L174.92 2.90141L175.184 4.27239L175.718 5.59614L178.953 5.64751L180.467 6.40253L181.377 7.87989L181.318 8.75115L180.825 9.69661L180.426 11.354L180.596 12.6337L181.124 14.2205L181.793 15.7088L182.398 16.6854L183.531 17.5966L184.558 18.0522L185.421 18.7678L186.102 20.4542L186.12 21.3276L185.961 22.2284L185.914 23.0826L186.278 23.8251L186.987 24.0503L187.082 24.0804L187.71 23.4167L188.25 22.4604L188.778 21.8008L191.144 21.6011L195.708 23.2045L196.512 25.7887L198.399 29.6214L198.53 30.3287L198.429 30.8352L198.22 31.3286L198.075 32.012L198.002 32.8205L198.083 34.5641L198.249 35.372L198.504 36.0539L199.205 36.9547L199.463 37.4129L199.635 37.9106L199.733 38.4357L199.758 38.9764L199.723 39.5213L199.323 41.4298L199.341 41.7837L199.413 42.1267L201.36 46.6112L201.479 47.1322L201.502 47.6848L201.409 48.2832L201.192 48.7777L200.871 49.0413L200.459 49.1248L196.109 48.3537L195.464 47.9152L194.274 46.6418L193.953 46.4732L193.626 46.4145L193.29 46.442L191.826 46.9444L191.509 47.2007L191.33 47.6776L191.137 50.5228L191.007 51.1554L190.761 51.6317L190.423 51.9161L190.052 52.0287L189.657 51.9846L189.244 51.7983L188.396 51.0671L186.658 48.8285L185.57 47.9495L183.094 46.9449L182.484 46.9506L181.93 47.1805L179.473 49.9582L179.142 50.1045L178.788 50.0636L178.402 49.8643L175.262 47.2126L174.355 46.8919L174.032 46.8997L173.789 46.9703L173.619 47.0673L173.488 47.1888L171.468 45.37L170.87 44.2652L170.368 41.6416L168.898 42.0344L168.516 41.9508L168.094 41.7936L167.749 41.4656L166.667 40.1761L166.368 39.9727L166.077 39.8892L164.718 39.9867L164.252 39.7646L163.707 39.3064L163.31 39.2463L162.895 39.3526L162.25 39.6484L161.784 39.6344L161.23 39.4035L160.904 39.3848L160.63 39.5145L160.42 39.7729L159.758 40.8481L159.43 41.257L158.259 42.2513L157.897 42.6597L157.669 43.0084L157.07 44.2045L156.664 44.7084L156.189 45.1333L155.245 45.646L154.813 45.9465L154.144 46.6112L153.642 46.9942L151.562 47.9843L149.261 49.5254L144.168 50.8559L143.18 50.941L142.687 50.8746L142.529 50.7599L142.396 50.5519L142.325 50.2981L142.299 50.0096L142.264 49.7538L142.22 49.5369L142.114 49.2758L142 49.0574L141.745 48.9277L141.348 48.868L140.477 48.9277L139.4 48.7523L136.869 48.813L136.253 48.9925L135.814 46.9438L131.767 43.5932L128.572 33.5247L128.505 33.052L128.592 32.6425L128.789 32.2959L129.051 32.012L129.85 31.5077L130.889 28.8041L131.127 28.4808L132.409 27.2842L132.565 26.9666L132.643 26.5852L132.613 25.6367L132.729 25.1878L132.93 24.7872L133.178 24.4411L133.897 23.768L134.536 20.0614L134.752 19.6229L135.069 19.529L135.464 19.7117L138.429 22.7899L138.914 22.9056L139.381 22.7997L139.806 22.5055L140.172 22.0525L140.459 21.4729L140.645 20.7988L140.751 19.4081L140.861 18.9447L141.037 18.6386L141.27 18.4595L142.984 18.3106L143.261 18.1368L143.469 17.8918L143.619 17.6111L143.777 17.0865L143.811 16.8473Z" stroke="#45515F" stroke-linecap="round" stroke-linejoin="round"/>
<path d="M1.43117 65.0673L4.15547 65.2692L5.24727 66.046L5.58197 66.8685L5.56433 68.3936L5.78746 69.0869L6.42158 69.6468L7.24925 69.9036L8.88124 69.9451L9.28651 70.1698L9.47436 70.491L9.4453 70.8994L9.19311 71.3997L9.10489 71.4137L9.02861 71.4412L8.95233 71.4915L8.88176 71.5559L8.72919 71.7255L8.67627 71.9046L8.7349 72.1018L8.88176 72.3083L9.87392 73.3129L10.1204 73.6476L10.355 74.2257L10.4546 74.7441L10.5132 75.2028L11.194 77.6459L11.7695 78.5441L12.7378 78.6676L13.5302 78.0906V77.3023L13.2017 76.3537L13.0315 75.2537L13.2074 73.6761L13.5126 72.8412L14.6334 71.4007L14.786 69.9918L15.2499 69.2986L15.884 68.8533L16.5295 68.1736L18.2907 64.962L18.901 64.3554L20.5683 63.4177L21.2434 62.8106L21.4488 62.6912L21.9595 62.7099L22.1883 62.5859L22.3118 62.2595L22.2765 61.9097L22.2002 61.6108L22.1883 61.4271L22.3409 61.0271L22.4581 60.5761L22.6579 60.1345L23.0803 59.7666L24.6532 58.4133L26.9426 57.7366L31.1925 57.419L34.2271 57.9717L34.9666 57.8887L35.6007 57.2763L36.857 55.3237L37.585 54.6003L38.5123 54.264L39.422 54.2085L40.4375 54.3512L40.7899 54.2132L41.588 53.6834L42.0986 53.5775L42.5739 53.7202L47.8331 56.9313L49.7759 57.0418L50.2336 56.5898L52.1391 58.1834L53.1074 58.7366L56.8176 59.1688L57.1606 59.433L57.4512 59.8086L57.8233 60.5699L58.2374 61.1225L58.9597 61.6622L60.3774 61.9564L62.1059 62.0447L63.7083 62.4582L64.5832 62.9393L64.9438 63.3596L65.2344 63.934L65.5162 65.1104L65.6122 65.8784L65.6298 66.6334L65.525 68.5602L65.5427 69.1528L65.6387 70.1999L65.8421 71.3338L65.9121 72.2507L65.8597 72.7187L65.7539 73.1567L65.6215 73.5724L65.7974 74.2879L66.2292 75.1867L67.4294 77.0434L67.8077 78.0148L67.9312 78.7387L67.7377 79.1372L67.5093 79.5082L66.6869 80.5824L66.581 80.777L66.485 81.1345L66.6609 81.4137L67.0838 81.8485L68.2742 82.7037L68.9358 83.3077L68.3515 83.5682L67.9732 83.9517L67.7714 84.4234L67.7138 84.9517L67.7688 85.5033L67.9058 86.046L68.3028 86.9713L68.3427 87.2977L68.0921 87.5369L64.7965 88.2649L64.5769 88.4964L64.4633 88.8492L64.4374 89.295L64.4846 89.8098L65.1524 92.4318L65.0678 92.7598L64.853 92.9907L64.5422 93.1303L63.7757 93.1495L63.043 92.861L61.0125 90.5637L57.0942 89.7952L56.8321 89.8518L56.238 90.2218L55.0149 91.5689L49.7552 94.439L49.4532 94.7057L49.2285 95.1541L48.4636 98.8856L48.2192 99.1959L47.8585 99.3007L46.9411 99.0838L45.4186 98.3122L45.2287 98.2909L44.7782 98.4149L43.3642 99.4735L43.1556 99.5228L42.9449 99.4771L42.7316 99.3521L41.4925 98.0465L37.0822 97.9572L36.7055 98.1601L34.991 100.176L34.7212 100.353L33.9101 100.489L32.9169 100.383L31.2423 99.7584L30.9279 99.7729L30.6259 99.9094L29.0857 101.466L28.6638 101.706L28.1273 101.801L25.4388 101.291L25.0864 100.654L24.2764 100.339L21.9522 98.9717L22.0171 98.0143L22.4104 96.8239L22.2635 95.5329L21.3067 94.6201L19.217 94.4011L18.3483 93.5428H18.2897L9.69645 88.9297L9.51431 88.3677L9.50238 87.5634L9.3851 86.6579L8.8802 85.7845L8.05824 85.071L7.14858 84.5448L6.34426 83.808L5.85129 82.4671L5.816 81.1397L6.21505 79.1248L6.05055 77.7917L5.61622 76.7377L4.9764 75.7477L3.58519 74.2163L0.779411 72.4593L0.192518 71.4038L0.902913 70.3297L1.48981 69.9441L1.87121 69.5311L1.97707 68.392L1.76587 67.1243L1.30819 66.334L0 64.961L1.43117 65.0673Z" stroke="#45515F" stroke-linecap="round" stroke-linejoin="round"/>
<path d="M82.138 183.006L81.7721 182.929L80.9855 183.291L80.4453 184.243L79.8584 185.749L78.532 185.11L76.7361 183.818L75.1041 182.285L74.2883 180.957L74.2531 178.527L73.6189 177.019L71.2065 174.556L69.4806 172.239L68.7878 171.639L67.6488 171.199L64.2152 171.038L62.607 170.096L61.7031 168.639L60.9574 166.929L55.6396 159.685L54.9354 159.285L54.9235 159.276L53.1098 157.108L52.8514 156.299L52.7751 155.458L52.4581 154.747L51.4721 154.337L49.8754 152.64L49.0535 151.974L48.0909 151.456L45.9192 150.857L45.1388 151.105L45.391 152.226L44.3288 152.371L40.9828 151.88L39.8557 151.47L38.9575 150.537L37.0966 146.36L35.9519 145.173L33.334 143.937L32.2245 143.012L31.579 141.748L31.2972 140.331L31.1327 137.463L31.0565 135.99L30.6341 135.646L30.0352 135.732L29.3954 135.537L28.7789 134.89L28.3327 134.235L27.9746 133.453L27.6109 132.403L27.382 131.376L27.1179 129.435L26.7188 128.484L26.12 127.823L24.7641 127.076L24.1829 126.369L24.2239 126.156L24.4937 125.467L24.0418 125.245L23.8949 125.128L24.3759 124.053L24.335 122.888L23.8653 121.959L23.0787 121.547L21.1888 120.639L20.3201 120.045L19.5044 119.306L18.3306 117.613L17.7437 116.487L17.4619 115.561L18.1313 114.239L20.4794 113.24L21.3834 112.322L21.5655 110.876L21.5951 109.03L21.9412 107.788L23.0802 108.138L23.4969 106.778L24.8056 104.351L25.2633 103.003L25.4392 101.29L28.1277 101.8L28.6643 101.705L29.0861 101.465L30.6263 99.9083L30.9283 99.7718L31.2428 99.7573L32.9173 100.382L33.9105 100.488L34.7216 100.351L34.9914 100.175L36.7059 98.159L37.0826 97.9561L41.4929 98.0454L42.7321 99.351L42.9453 99.476L43.156 99.5217L43.3646 99.4724L44.7787 98.4138L45.2291 98.2898L45.419 98.3111L46.9415 99.0827L47.8589 99.2996L48.2196 99.1948L48.464 98.8845L49.2289 95.153L49.4536 94.7046L49.7556 94.4379L55.0153 91.5678L56.2384 90.2207L56.8325 89.8507L57.0946 89.7941L61.0129 90.5626L63.0434 92.8599L63.7762 93.1484L64.5426 93.1292L64.8534 92.9896L65.0683 92.7587L65.1528 92.4307L64.485 89.8087L64.4378 89.2939L64.4637 88.8481L64.5774 88.4953L64.7969 88.2638L68.0925 87.5358L68.3431 87.2966L68.3032 86.9702L67.9062 86.045L67.7692 85.5022L67.7142 84.9506L67.7718 84.4223L67.9737 83.9506L68.3519 83.5671L68.9362 83.3066L69.464 83.8972L70.0831 84.757L70.4437 85.1441L70.9642 85.4067L73.5172 86.0496L74.3034 86.0564L75.5104 85.1919L76.1881 86.9624L76.2146 87.3464L76.1881 87.8217L76.021 88.2561L75.7927 88.7215L75.5545 89.3572L75.5633 89.737L75.774 90.011L76.0563 90.1293L76.3733 90.1714L76.6577 90.1568L77.2742 90.0022L78.4272 89.3572L78.7178 89.2659L79.0437 89.2757L79.7925 89.5679L80.7286 89.7863L81.7156 90.2663L84.4736 92.9336L84.9754 93.2491L85.9914 93.3772L86.7838 93.3015L87.5503 93.1209L88.0085 93.082L88.5715 93.1235L89.641 93.4244L90.2564 93.7099L90.7504 94.0389L92.2381 95.6817L92.6247 96.0144L92.9454 96.1929L94.8384 96.772L95.1991 97.005L95.4362 97.3288L95.4902 97.6728L95.6137 98.0724L98.5923 99.5954L99.0961 100.13L99.3343 100.552L99.2456 100.862L99.2108 101.245L99.2285 101.619L99.326 102.066L99.8802 103.952L99.9425 104.38L99.915 104.615L99.8537 104.772L99.7126 104.862L99.4755 104.974L99.1672 105.068L98.6182 105.122L98.4511 105.165L98.3276 105.295L98.2041 105.588L98.1865 105.969L98.2212 106.729L98.2036 107.125L98.1512 107.467L98.09 107.708L97.3759 109.505V109.75L97.4107 110.059L97.543 110.582L97.6042 110.958L97.5695 111.4L97.0065 113.346L96.9089 113.791L96.8913 114.313L96.9701 114.541L97.1113 114.667L97.6665 114.89L98.0708 115.126L98.2119 115.426L98.2207 115.694L98.036 116.08L96.6271 117.662L96.1881 118.071L95.7528 118.289L94.0891 118.704L93.3751 119.003L92.7327 119.409L92.0612 120.06L91.753 120.476L91.603 120.891L91.8313 121.253L92.6948 122.033L92.7685 122.348L92.6777 122.605L92.2195 122.872L91.8765 123.162L91.8853 123.28L92.619 123.729L92.7602 123.957L92.7949 124.173L92.6953 124.405L92.3606 124.695L92.2112 124.921L92.1577 125.233L92.29 125.909L92.5194 126.226L92.8038 126.421L93.058 126.507L93.3403 126.647L93.7196 126.917L94.2214 127.508L94.4409 127.943L94.5468 128.432L94.4944 130.6L94.5727 131.5L94.7139 132.026L94.9074 132.428L95.4539 133.098L95.8405 133.69L95.9665 134.3V134.811L95.7995 135.662L95.5535 136.425L95.445 136.669L95.3739 136.974L95.3828 137.771L96.1876 139.572L96.9089 142.4L96.9888 143.145L96.9333 143.578L96.5379 145.217L96.4403 146.563L96.5638 147.638L96.8721 149.175L96.9421 149.918L96.8721 150.504L96.6339 151.041L95.5395 152.875L95.0289 153.996L94.7118 155.092L94.4819 155.704L94.2884 156.082L94.0165 156.315L93.0295 156.91L92.8012 157.121L92.5277 157.465L92.4576 157.804L92.4753 158.088L92.7923 158.92V159.4L92.7213 159.74L92.5453 160.064L92.1821 160.539L91.9787 160.879L91.9439 161.216L92.0238 161.521L92.2522 161.84L93.0471 162.658L93.2941 163.269L93.2505 163.595L92.9423 163.882L92.4805 164.05L91.8915 164.435L91.3809 164.935L89.8833 167.774L89.3343 168.525L89.1148 168.686L88.8678 168.736L88.1813 168.597L87.6535 168.848L87.0547 169.527L86.3235 171.419L86.1191 172.677L86.1476 173.613L86.241 174.114L86.2945 174.545L86.2768 175.291L86.1124 175.804L85.8451 176.265L84.621 177.476L83.3009 179.537L82.0653 182.171L82.1354 182.981L82.138 183.006Z" stroke="#45515F" stroke-linecap="round" stroke-linejoin="round"/>
<path d="M98.7964 200.525L97.687 199.372L94.9456 193.89L93.6249 191.825L92.8268 191.378L90.7107 191.044L89.6365 190.535L88.6682 189.567L87.7819 188.219L87.1774 186.646L87.0368 185.011L86.0036 185.128L85.0353 184.592L84.0727 183.818L83.0748 183.206L82.1377 183.007L82.1356 182.982L82.0656 182.172L83.3011 179.538L84.6212 177.477L85.8453 176.266L86.1126 175.805L86.2771 175.292L86.2947 174.546L86.2413 174.115L86.1479 173.614L86.1193 172.678L86.3238 171.42L87.0549 169.528L87.6538 168.849L88.1815 168.598L88.868 168.737L89.115 168.687L89.3345 168.526L89.8835 167.775L91.3811 164.936L91.8917 164.436L92.4807 164.051L92.9425 163.883L93.2508 163.596L93.2944 163.27L93.0474 162.659L92.2524 161.841L92.0241 161.522L91.9441 161.217L91.9789 160.88L92.1823 160.54L92.5456 160.065L92.7215 159.741L92.7926 159.401V158.921L92.4755 158.089L92.4579 157.805L92.5279 157.466L92.8014 157.122L93.0297 156.911L94.0167 156.316L94.2886 156.083L94.4822 155.705L94.712 155.093L95.0291 153.997L95.5397 152.876L96.6341 151.042L96.8723 150.505L96.9423 149.919L96.8723 149.176L96.564 147.639L96.4405 146.564L96.5381 145.218L96.9335 143.579L96.987 143.143L96.9071 142.399L96.1858 139.57L95.3809 137.769L98.6766 135.831L99.0024 135.79L99.2697 135.859L99.9297 136.319L100.247 136.426L101.436 136.469L101.814 136.555L102.131 136.672L102.452 136.907L103.482 137.501L103.957 137.558L104.548 137.49L105.564 136.961L105.872 136.726L106.303 136.504L109.044 135.646L109.229 135.501L109.37 135.334L109.678 134.325L109.952 133.729L110.321 133.421L110.955 133.078L111.361 133.006L111.795 133.054L112.367 133.367L113.063 133.919L113.398 134.029L114.454 134.113L115.187 134.37L116.694 134.427L120.007 133.991L121.134 133.529L122.159 132.498L122.397 132.335L122.669 132.247L123.347 132.118L124.257 132.125L124.935 132.301L125.234 132.461L125.419 132.655L125.63 133.228L125.744 133.457L125.868 133.587L126.026 133.651L126.245 133.687L126.519 133.791L126.721 133.933L126.96 134.216L127.073 134.42L127.347 134.82L127.473 134.942L127.614 135.05L127.781 135.138L128.037 135.229L128.469 135.267L129.049 135.199L131.711 133.7L132.177 133.596L132.882 133.565L133.64 133.754L134.584 134.279L135.65 134.42L141.96 134.164L142.655 134.351L142.602 134.614L142.585 134.858L142.611 135.08L142.709 135.179L144.059 135.396L144.665 135.315L145.282 135.134L146.638 134.28L147.468 133.42L147.856 133.24L149.696 132.844L150.492 132.212L150.852 131.67L150.994 129.375L151.028 129.104L151.082 128.855L151.434 128.135L151.671 127.781L151.847 127.573L152.543 126.971L152.817 126.876L153.036 126.925L153.347 127.256L153.753 127.812L153.937 128.003L154.237 128.175L155.918 128.691L156.229 128.958L156.423 129.289L156.458 129.524L156.484 130.089L156.775 130.271L157.348 130.325L158.44 130.126L159.126 130.37L159.504 130.615L159.64 130.899L159.816 131.455L159.992 131.845L160.229 132.203L160.52 132.525L160.784 132.76L161.039 132.923L161.304 133.026L161.673 132.972L162.482 133.839L162.716 134.229L162.859 134.642L162.855 135.054L162.653 135.444L162.262 135.743L160.255 136.328L159.928 136.551L159.784 136.897L160.63 139.953L160.782 141.376L160.736 142.982L159.537 147.723L159.524 148.338L159.67 148.872L159.918 149.292L160.858 150.207L161.018 150.436L161.124 150.74L161.161 151.16L161.029 152.957L161.089 153.388L161.251 153.827L161.548 154.279L163.679 156.275L164.756 156.932L165.276 157.003L165.783 156.838L166.759 155.933L167.254 155.759L167.744 155.807L168.659 156.339L169.929 157.584L171.561 158.673L173.059 160.673L175.34 162.163L175.587 162.153L175.829 161.982L176.823 160.467L177.109 160.262L177.424 160.165L177.777 160.185L180.762 161.751L180.999 161.909L181.646 162.088L184.41 162.412L184.898 162.605L185.215 163.057L185.443 163.791L185.558 165.204L185.699 165.977L185.884 166.564L186.166 166.938L188.863 169.508L189.074 169.629L189.338 169.683L190.289 169.512L190.545 169.501L193.224 169.992L194.034 169.934L196.238 169.05L196.476 168.997L196.67 169.01L196.88 169.153L199.578 171.822L199.939 172.301L200.045 172.611L200.035 172.844L199.886 173.05L199.648 173.234L199.358 173.388L198.971 173.484L197.717 173.565L197.418 173.621L197.268 173.769L197.136 174.115L197.074 174.496L197.013 175.117L196.889 175.54L196.607 176.118L194.759 178.307L194.518 178.652L194.412 178.987L194.29 179.681L194.336 180.034L194.412 180.253L194.518 180.291H194.697L194.891 180.372L195.067 180.585L195.313 181.171L195.525 181.557L195.877 181.802L196.273 181.891L197.171 181.962L197.835 182.106L198.107 182.28L198.363 182.526L198.645 182.97L198.697 183.277V183.632L198.424 184.537L197.557 186.726L197.347 187.418L197.11 187.937L196.968 188.754L196.964 188.775L195.662 188.268L192.856 185.829L191.635 185.127L189.111 184.273L186.382 182.879L185.114 182.516L182.455 182.485L182.173 182.289L181.939 181.859L181.651 181.501L181.217 181.506L180.988 181.859L180.847 183.022L180.659 183.478L179.872 184.426L179.579 184.613L175.247 185.784L174.12 185.762L174.495 184.528L174.519 183.353L174.278 182.177L173.861 180.956L169.441 180.594L166.283 179.507L165.039 179.668L164.856 179.811L164.768 180.101V180.504L164.821 180.974L164.046 182.798L164.023 185.261L164.258 187.905L164.252 190.294L163.049 195.7L162.638 196.788L162.544 197.389L162.656 197.932L162.902 198.614L163.154 199.171L163.278 199.327L162.626 200.836L161.476 200.943L158.541 199.737L155.577 199.327L154.72 199.656L154.385 200.476L154.156 201.522L153.587 202.532L153.3 204.179L150.312 206.812L149.238 208.559L149.032 210.88L149.061 213.507L148.774 215.739L148.516 215.997L147.635 216.882L146.702 216.819L146.255 216.258L145.921 215.451L145.31 214.641L144.94 214.559L144.072 214.863L143.632 214.814L143.45 214.453L143.444 213.88L143.373 213.332L143.01 213.01L142.135 213.082L140.433 213.903L139.582 214.094L138.913 213.93L136.647 212.74L135.286 211.133L134.458 211.705L133.184 215.095L132.286 216.02L129.333 217.296L128.188 218.216L127.742 218.393L127.196 218.455L121.561 216.46L113.514 215.555L111.583 214.743L111.108 214.317L110.127 213.091L109.881 212.621L109.617 211.449L109.723 211.2L110.045 211.08L110.427 210.276L110.597 210.152L110.873 210.205L111.132 210.125L111.237 209.588L111.091 209.064L110.75 208.824L110.357 208.664L110.069 208.393L109.706 207.686L108.761 206.232L108.261 205.69L104.44 203.581L103.196 202.544L102.163 201.734L101.083 201.142L98.7964 200.525Z" stroke="#45515F" stroke-linecap="round" stroke-linejoin="round"/>
<path d="M195.709 23.204L202.51 25.592L203.155 26.0232L203.907 27.1778L204.323 27.5857L204.922 27.7756L209.642 26.6304L211.051 26.7648L211.174 27.3771L211.356 27.924L214.226 32.8221L214.59 32.9518L216.163 32.9056L219.527 31.6364L220.466 31.7708L221.229 32.5118L221.969 33.9196L222.462 35.1323L222.773 36.3678L222.644 37.4321L221.828 38.0984L221.716 38.3895L221.669 38.6765L221.71 38.9588L221.827 39.2271L224.24 38.7834L227.762 35.3642L230.157 35.6097L231.952 36.9885L232.815 37.3958L233.772 37.1737L234.465 36.2993L234.876 35.1562L235.293 34.2579L236.027 34.1007L238.087 34.1422L239.942 34.6191L241.685 35.6097L246.522 40.7485L247.038 42.4537L245.254 43.1885L245.471 43.863V44.1588L245.313 44.4084L245.067 44.9258L244.978 45.3783L244.902 46.0664L244.908 46.5925L245.067 46.5417L244.579 47.2246L243.411 48.3828L242.877 49.1347L241.903 49.3516L240.083 48.8441L239.191 49.1347L238.751 50.2877L237.9 51.021L236.902 51.6156L236.028 52.3489L235.716 52.4734L235.194 52.8055L234.848 52.8377L235.124 53.8288L235.229 54.1007L234.097 53.8428L233.65 55.2574L234.184 56.851L236.028 57.1779L236.761 59.4751L237.031 59.9904L237.759 60.5794L238.176 60.4875L238.581 60.1331L239.244 59.9167H241.833L242.373 60.0869L242.772 60.9151L242.813 61.7433L242.766 62.5528L242.913 63.3296L243.922 64.6767L246.452 65.6051L247.714 66.4919L248.53 67.6449L249.974 70.2805L250.796 71.4003L251.518 72.708L253.237 74.506L253.854 76.1842L254.499 79.2084L255.033 80.3168L256.031 81.6261L250.019 79.6827L249.723 79.8337L249.492 80.1404L249.321 80.5706L249.205 81.0952L249.119 82.2991L248.998 82.8486L248.666 83.2736L242.791 86.0768L242.466 86.356L242.228 86.7441L241.963 87.8541L241.751 88.3408L241.469 88.742L241.133 89.0606L240.354 89.4705L235.278 89.9474L234.397 90.3049L233.572 90.9266L231.371 89.0227L230.715 88.8665L230.447 88.6781L229.548 87.5381L229.33 87.3502L228.833 87.2335L228.189 86.8931L227.515 86.274L226.951 85.437L226.529 84.5445L226.186 84.2819L222.922 83.6281L222.474 83.2933L222.217 82.8185L222.098 82.2503L222.083 80.4518L222.025 79.9764L221.858 79.6412L221.543 79.4077L219.968 78.9345L217.598 78.9765L217.065 79.2432L213.449 82.8061L213.126 82.9638L212.888 82.8891L212.653 82.679L212.43 82.351L212.032 81.4237L211.507 79.1379L211.288 78.8426L210.991 78.7191L208.17 79.5489L207.812 79.979L207.55 80.5421L206.8 82.9478L206.525 83.2959L206.16 83.4148L205.722 83.3167L203.413 81.7345L203.117 81.6364L201.379 82.1554L200.543 82.1445L198.326 81.0464L197.463 81.1144L196.365 81.6655L192.906 84.9227L192.469 84.957L189.338 83.7754L189.505 83.5263L189.47 83.1605L189.249 82.6068L188.502 81.4917L187.955 80.8306L187.521 80.3994L186.614 79.7673L186.456 79.5618L186.316 79.2821L186.334 78.8234L186.421 78.5588L187.345 77.5962L187.584 77.2433L187.654 77.069L187.724 76.8671L187.76 76.6471L187.645 76.152L186.773 73.6301L186.527 72.6852L186.395 71.9556L186.386 70.7538L186.175 69.2344L186.008 68.7315L185.752 68.2152L185.286 67.7876L184.904 67.6247L184.491 67.5956L182.166 67.8982L180.614 67.5261L180.095 67.4851L179.046 67.7197L178.647 67.7518L178.234 67.7129L177.907 67.5858L177.6 67.2459L177.405 66.7732L177.247 65.7535L177.036 65.0519L176.552 64.2642L176.2 63.9233L175.846 63.6898L173.035 62.4755L172.885 62.365L172.762 62.0334L172.682 61.4444L172.762 60.1336L172.947 59.4175L173.097 58.9868L173.59 58.3154L174.074 57.4218L174.268 56.9195L174.357 56.1883L174.311 55.315L173.792 51.7132L173.678 51.3282L173.493 50.9156L173.106 50.2104L172.956 49.678L172.991 48.9718L173.185 48.5079L173.23 48.4617L173.415 48.1783L173.591 47.8623L173.608 47.5297L173.494 47.1883L173.625 47.0668L173.795 46.9698L174.038 46.8992L174.361 46.8914L175.268 47.2121L178.408 49.8638L178.794 50.063L179.148 50.104L179.479 49.9577L181.936 47.18L182.49 46.9501L183.1 46.9444L185.576 47.949L186.664 48.828L188.401 51.0666L189.25 51.7978L189.663 51.9841L190.058 52.0282L190.429 51.9156L190.767 51.6312L191.013 51.1548L191.143 50.5223L191.336 47.6771L191.515 47.2002L191.832 46.9438L193.296 46.4415L193.632 46.414L193.959 46.4727L194.28 46.6413L195.47 47.9147L196.115 48.3532L200.465 49.1243L200.877 49.0408L201.198 48.7772L201.415 48.2826L201.508 47.6843L201.485 47.1317L201.366 46.6107L199.419 42.1262L199.347 41.7832L199.329 41.4293L199.729 39.5208L199.764 38.9759L199.739 38.4352L199.641 37.91L199.469 37.4124L199.21 36.9542L198.51 36.0534L198.255 35.3715L198.089 34.5636L198.008 32.82L198.081 32.0115L198.226 31.3281L198.435 30.8346L198.536 30.3282L198.405 29.6209L196.518 25.7882L195.709 23.204Z" stroke="#45515F" stroke-linecap="round" stroke-linejoin="round"/>
<path d="M276.463 55.6041L277.303 56.1095L278.617 55.9528L284.452 57.5921L285.074 57.974L286.395 59.0881L287.123 59.4747L287.903 59.484L289.635 59.1249L290.298 59.3273L290.175 59.5759L290.369 60.5421L290.721 61.692L291.062 62.4647L291.619 63.0718L293.621 64.3406L294.971 64.7313L297.636 64.6535L298.81 65.1542L297.765 65.5771L297.923 65.9124L298.123 66.2113L298.358 66.4686L298.616 66.6938L298.546 67.8516L298.657 68.9766L299.051 69.8904L299.808 70.4643L300.424 68.839L301.681 68.7425L302.576 73.9877L302.52 74.4013L302.36 74.8616L302.117 75.3219L301.805 75.7349L301.445 76.0546L301.05 76.2336L300.641 76.2258L299.853 75.7276L299.507 75.683L299.193 75.8086L298.902 76.067L297.596 77.9912L292.994 80.5639L292.242 81.4388L291.964 81.9769L291.78 82.5929L291.659 83.9416L291.521 84.421L290.944 85.3603L290.815 85.6763L290.776 86.0769L291.421 88.6876L291.44 89.1094L291.37 89.5069L291.185 89.8888L287.804 94.6421L287.584 95.0894L287.437 95.5679L287.375 96.0624L287.402 96.5559L287.525 97.0338L287.755 97.4816L289.344 99.0404L289.477 99.2906L289.502 99.5573L289.401 99.8546L287.77 101.993L287.601 102.43L287.492 102.928L287.225 106.134L287.275 106.524L287.414 106.859L287.667 107.138L288.406 107.474L290.862 107.799L291.109 107.965L291.241 108.201L291.398 109.095L291.521 109.377L291.753 109.613L296.612 112.089L297.011 112.102L298.609 111.225L299.008 111.161L299.408 111.314L303.776 116.042L304.612 116.463L307.49 116.621L308.811 115.594L309.116 115.453L309.446 115.474L311.522 116.877L312.975 116.991L315.034 116.308L316.673 117.094L317.99 118.228L318.243 118.627L318.336 119.01L318.014 121.906L318.066 122.481L318.235 122.956L318.55 123.288L318.94 123.409L319.312 123.33L320.351 122.659L320.678 122.549L320.999 122.623L321.319 122.959L323.056 126.612L323.433 127.009L325.222 127.846L326.739 129.166L327.349 129.944L327.56 130.411L327.813 131.381L327.919 132.489L329.538 132.905L330.263 133.474L331.114 134.458L330.263 136.754L329.436 136.96L328.735 136.892L328.408 136.723L327.875 136.104L327.589 135.882L327.29 135.768L326.988 135.77L326.694 135.894L326.424 136.149L326.189 136.542L325.825 137.596L325.616 137.942L325.388 138.165L324.684 138.556L324.477 138.748L324.299 139.048L324.176 139.443L324.119 139.873L324.138 140.727L324.298 141.669L322.769 142.352L317.78 141.339L316.917 141.303L316.274 141.387L315.585 141.66L315.373 141.841L315.268 142.096L315.349 142.448L315.719 143.33L315.861 143.889V144.278L315.746 144.639L315.561 144.905L315.314 145.151L314.969 145.293L314.563 145.354L310.519 145.273L310.078 145.383L309.099 145.789L308.359 146.211L308.068 146.452L307.831 146.75L307.557 147.237L307.294 147.817L307.013 148.301L306.661 148.611L306.325 148.729L305.741 148.613L303.303 147.511L302.801 147.412L301.601 146.756L300.201 145.554L299.326 145.225L298.971 145.184L297.906 145.045L297.671 146.446L297.582 147.939L298.041 149.429L298.531 150.044L298.023 151.093L297.829 151.338L295.889 153.214L295.58 153.606L295.308 154.034L295.123 154.24L294.868 154.366L294.683 154.38L294.453 154.335L290.753 154.425L290.358 154.542L290.102 154.854L289.947 155.303L289.698 156.904L289.555 157.333L289.316 157.61L289.032 157.709L288.78 157.664L288.56 157.515L288.378 157.304L288.126 156.853L288.069 156.713L288.114 156.558L288.176 156.149L288.198 155.652L288.1 155.018L287.423 153.444L286.358 151.855L285.202 150.738L283.078 150.076L282.132 149.52L281.809 149.127L281.636 148.643L281.722 146.939L281.647 146.498L281.509 146.122L281.32 145.804L278.682 143.23L278.397 142.762L278.205 142.317L277.824 140.28L277.317 138.959L276.622 137.855L276.219 137.494L274.003 136.572L273.444 136.542L272.962 136.663L272.597 136.969L272.386 137.494L272.284 138.539L272.321 138.911L272.406 139.215L273.442 140.951L273.843 141.98L273.978 142.54L274.036 143.101L273.992 143.638L273.824 144.128L273.162 145.168L272.246 146.184L271.744 146.562L271.24 146.786L270.755 146.809L267.666 144.407L267.389 143.96L267.344 143.536L267.594 143.146L267.962 142.766L268.23 142.363L268.405 141.937L268.492 141.488L268.498 141.016L268.425 140.52L267.015 136.91L266.868 136.322L266.838 135.83L266.961 135.47L267.6 135.155L267.751 134.969L267.748 134.73L267.613 134.45L265.19 132.034L264.419 130.726L264.204 130.112L264.157 129.602L264.315 129.254L264.718 129.125L266.523 129.558L266.868 129.463L267.175 129.127L267.443 128.466L267.671 127.401L268.238 126.808L268.581 125.486L268.739 123.727L268.871 123.102L270.623 121.283L270.201 118.302L269.637 117.449L268.721 117.1L268.431 116.786L268.22 116.293L268.07 114.815L265.717 110.026L264.81 108.655L264.484 108.014L264.367 107.27L264.455 106.575L265.374 104.595L265.294 102.477L265.347 100.099L265.294 99.5651L264.872 97.8786L264.642 95.9083L264.536 95.4745L264.378 95.0687L263.98 94.3884L263.944 93.968L264.129 93.4932L265.1 92.9312L265.311 92.8498L265.655 92.6168L266.817 91.3636L268.563 90.1115L268.819 89.8665L268.977 89.5516L269.064 89.2039L269.021 88.6071L268.951 88.2942L268.589 87.3389L268.669 86.4106L270.095 81.6023L272.247 76.1028L272.883 75.9399L273.417 75.463L274.362 74.147L275.043 73.6748L275.541 73.6567L276.592 74.0329L277.103 73.996L277.243 73.6701L277.231 72.5965L277.39 72.3531L278.223 72.3671L278.564 72.6012L278.828 73.1377L279.432 74.0458L280.119 74.3074L280.483 73.5508L280.371 72.3812L279.632 71.3994L279.55 69.2417L278.951 67.6481L277.918 66.5091L276.533 65.696L275.471 64.5974L274.913 62.8736L274.491 60.9785L273.845 59.3496L272.025 56.6565L272.019 55.4131L273.563 54.4734L274.861 54.6394L276.463 55.6041Z" stroke="#45515F" stroke-linecap="round" stroke-linejoin="round"/>
<path d="M256.031 81.6261L257.986 83.434L260.369 84.6736L262.675 84.5045L264.425 82.1112L265.687 81.1959L266.379 80.2115L266.996 79.0112L268.017 77.4628L269.291 76.3674L270.418 76.2023L271.557 76.2802L272.247 76.1038L270.096 81.6032L268.669 86.4115L268.59 87.3398L268.951 88.2952L269.021 88.6081L269.065 89.2048L268.978 89.5525L268.819 89.8675L268.564 90.1124L266.818 91.3645L265.656 92.6177L265.312 92.8507L265.101 92.9322L264.13 93.4942L263.944 93.969L263.981 94.3893L264.379 95.0696L264.537 95.4754L264.643 95.9092L264.873 97.8795L265.294 99.566L265.348 100.1L265.294 102.478L265.374 104.596L264.456 106.576L264.367 107.271L264.484 108.015L264.81 108.656L265.717 110.027L268.071 114.816L268.221 116.294L268.431 116.787L268.722 117.101L269.638 117.45L270.202 118.303L270.624 121.284L268.872 123.103L268.74 123.728L268.581 125.487L268.238 126.809L267.672 127.402L267.055 127.538L264.209 126.093L262.88 125.627L261.462 125.496L259.548 125.634L259.029 125.572L258.321 125.228L257.891 125.117L254.858 125.128L254.365 125.334L254.074 125.718L254.004 126.454L253.899 127.026L253.714 127.385L253.212 127.801L246.48 128.457L245.112 128.335L244.002 127.993L241.675 126.487L239.676 125.756L239.068 125.32L238.668 124.742L238.308 124.09L237.797 123.451L237.057 122.826L234.923 121.406L233.251 120.562L232.103 120.216L230.642 120.147L229.418 120.268L228.799 120.127L228.376 119.823L228.191 119.435L228.024 118.986L227.62 118.575L226.985 118.226L225.679 117.947L224.834 117.647L224.068 117.259L223.272 116.715L222.885 116.555L222.542 116.551L222.304 116.769L222.172 116.995L221.9 117.704L221.696 118.049L221.433 118.249L220.799 118.479L220.526 118.632L219.651 119.629L219.096 119.978L218.567 119.985L217.942 119.81L217.168 119.475L216.674 119.52L216.267 119.726L214.83 119.341L213.935 117.524L213.158 116.472L212.232 115.732L210.762 115.014L210.544 114.795L210.405 114.492L210.283 113.605L210.078 113.204L209.774 112.864L208.985 112.369L207.462 112.006L204.872 109.976L203.879 109.701L199.55 110.051L199.219 109.874L198.618 109.204L197.154 106.811L196.061 105.517L193.601 103.883L193.681 103.177L193.909 102.267L194.192 101.432L194.324 100.917L194.388 100.434L194.424 98.6698L194.459 98.289L194.529 98.031L194.679 97.714L194.802 97.2719L194.723 96.8365L194.192 96.2024L193.778 95.8599L193.383 95.6549L192.634 95.4406L192.176 95.1116L190.104 93.1128L189.707 92.8528L187.777 92.2228L186.446 91.3599L186.033 90.9395L185.382 89.8934L185.658 89.4632L186.708 88.9521L187.864 88.6594L188.369 88.6817L188.475 87.7721L188.502 87.4613L188.484 87.1551L188.272 86.1536L188.207 85.7073V85.2413L188.272 84.9456L188.404 84.6851L189.338 83.7764L192.469 84.958L192.906 84.9238L196.365 81.6665L197.463 81.1154L198.326 81.0475L200.543 82.1455L201.379 82.1564L203.117 81.6375L203.413 81.7355L205.722 83.3177L206.16 83.4158L206.525 83.297L206.8 82.9488L207.55 80.5431L207.812 79.9801L208.17 79.5499L210.991 78.7201L211.288 78.8436L211.507 79.1389L212.032 81.4247L212.43 82.352L212.653 82.68L212.888 82.8901L213.126 82.9649L213.449 82.8071L217.065 79.2442L217.598 78.9775L219.968 78.9355L221.543 79.4087L221.858 79.6422L222.025 79.9775L222.083 80.4528L222.098 82.2514L222.217 82.8196L222.474 83.2944L222.922 83.6291L226.186 84.2829L226.529 84.5455L226.951 85.438L227.515 86.275L228.189 86.8941L228.833 87.2345L229.33 87.3513L229.548 87.5391L230.447 88.6792L230.715 88.8675L231.371 89.0237L233.572 90.9276L234.397 90.306L235.278 89.9484L240.354 89.4715L241.133 89.0616L241.469 88.743L241.751 88.3419L241.963 87.8551L242.228 86.7452L242.466 86.357L242.791 86.0778L248.666 83.2747L248.998 82.8497L249.119 82.3001L249.205 81.0962L249.321 80.5716L249.492 80.1414L249.723 79.8348L250.019 79.6838L256.031 81.6261Z" stroke="#45515F" stroke-linecap="round" stroke-linejoin="round"/>
<path d="M301.679 68.7417L302.918 69.7474L303.446 71.3996L303.734 71.5922L304.039 71.6612L304.338 71.5968L304.632 71.3996L306.299 69.3707L309.005 69.1226L314.082 70.0224L315.397 69.6779L316.372 68.8787L318.057 66.541L318.374 65.8151L318.521 65.2085L318.891 64.9692L319.853 65.3278L320.17 65.6267L321.215 67.0418L321.355 67.2436L321.385 67.4823L321.344 67.7486L321.215 68.0288L320.598 69.6908L320.487 70.5035L320.616 71.3986L321.215 71.9954L322.101 73.6377L321.567 74.9812L320.417 75.9806L317.999 77.4336L316.484 78.0293L313.743 78.1346L313.121 78.4507L312.705 79.3437L312.822 79.9898L315.581 83.4919L316.467 83.8946L317.042 83.7893L317.524 83.5101L318.128 83.3684L318.874 83.5698L320.418 84.3383L321.216 84.5074L321.239 84.5941L321.251 84.6766L321.239 84.7451L321.216 84.8089L320.688 85.2619L320.505 85.7466L320.681 86.2541L321.215 86.7891L321.843 87.5436L322.231 88.5218L322.548 89.6141L322.994 90.6696L323.634 91.5559L327.314 95.2267L329.38 95.6646L331.447 95.0347L333.12 93.5376L334.153 93.2683L336.43 93.1998L338.279 92.6472L338.567 92.259L338.467 91.3774L338.068 90.765L337.581 90.7515L337.129 90.8932L336.829 90.7656L336.577 88.7641L337.522 89.0007L338.327 89.2026L341.643 91.3774L341.273 93.0078L342.012 93.8661L345.64 94.5552L346.503 95.0342L348.293 96.581L348.962 96.882L350.295 97.1602L350.97 97.662L351.211 98.1456L351.604 99.5134L351.921 100.111L353.048 101.036L353.87 100.872L355.461 99.4818L355.396 99.3313L355.32 99.2311L355.22 99.1808H355.097L357.386 98.898L359.582 99.6821L363.802 102.02L365.123 102.015L367.359 100.58L368.198 101.09L368.551 102.69L368.41 104.043L368.657 105.122L370.165 105.937L368.604 107.752L368.627 110.113L369.613 112.786L370.951 115.548L371.521 118.104L371.879 118.762L372.636 119.293L374.385 119.447L375.195 119.692L375.934 120.3L377.05 121.62L377.766 122.051L378.593 121.983L379.48 121.597L380.366 121.443L381.217 122.078L381.452 122.763L381.833 125.781L382.098 126.624L382.767 128.155L383.019 128.947L383.835 132.681L383.999 134.49L383.759 135.95L381.434 136.013L380.372 136.42L378.042 138.571L376.451 138.661L374.808 138.156L372.947 137.216L372.554 137.134L372.16 137.216L370.54 138.074L368.028 137.708L366.86 138.449L366.566 139.167L366.426 140.793L366.138 141.561L365.669 142.039L363.802 143.045L361.384 146.013L360.11 146.852L358.455 146.478L358.419 147.536L357.792 147.521L357.468 147.386L357.153 147.147L356.879 146.779L356.674 146.253L356.222 143.757L356.053 143.2L355.806 142.707L355.454 142.301L354.478 141.681L354.096 141.249L352.913 138.709L352.628 138.393L351.652 138.019L347.339 138.088L346.954 137.946L345.243 136.728L344.71 136.509L335.854 137.387L335.376 137.286L334.978 137.078L334.664 136.759L334.44 136.323L334.205 135.241L334.047 134.871L333.848 134.633L333.621 134.499L331.118 134.457L330.267 133.473L329.542 132.904L327.923 132.488L327.817 131.38L327.564 130.41L327.354 129.943L326.743 129.164L325.226 127.845L323.437 127.008L323.06 126.611L321.323 122.958L321.004 122.622L320.682 122.548L320.355 122.658L319.317 123.329L318.945 123.407L318.554 123.287L318.239 122.954L318.071 122.48L318.018 121.905L318.34 119.009L318.248 118.626L317.994 118.227L316.677 117.092L315.038 116.307L312.979 116.99L311.527 116.876L309.45 115.473L309.12 115.452L308.815 115.593L307.495 116.62L304.616 116.462L303.78 116.041L299.412 111.313L299.012 111.16L298.613 111.224L297.016 112.1L296.616 112.088L291.757 109.612L291.525 109.376L291.403 109.094L291.245 108.2L291.113 107.964L290.866 107.797L288.41 107.473L287.671 107.137L287.418 106.858L287.279 106.522L287.229 106.133L287.497 102.926L287.605 102.429L287.774 101.992L289.405 99.8533L289.506 99.556L289.481 99.2893L289.349 99.0391L287.759 97.4803L287.529 97.0325L287.406 96.5546L287.379 96.0611L287.441 95.5666L287.589 95.0881L287.808 94.6408L291.189 89.8876L291.375 89.5056L291.445 89.1081L291.425 88.6863L290.78 86.0756L290.819 85.675L290.949 85.359L291.525 84.4197L291.664 83.9403L291.785 82.5916L291.968 81.9757L292.246 81.4375L292.998 80.5626L297.6 77.9899L298.907 76.0657L299.197 75.8073L299.512 75.6817L299.857 75.7264L300.645 76.2245L301.054 76.2323L301.449 76.0533L301.809 75.7336L302.121 75.3206L302.365 74.8603L302.525 74.4L302.581 73.9864L301.679 68.7417Z" stroke="#45515F" stroke-linecap="round" stroke-linejoin="round"/>
<path d="M276.521 214.484L274.561 212.198L273.774 206.506L272.43 204.612L271.496 204.541L269.313 205.319L268.221 205.452L267.176 205.061L265.122 203.695L264.253 203.397L262.093 203.487L261.189 203.326L260.443 202.801L260.033 201.782L259.821 200.544L259.375 199.507L258.289 199.065L257.238 198.941L253.845 197.952L252.877 197.328L252.355 197.15L251.832 197.221L250.805 197.658L250.218 197.684L248.581 197.443L247.595 198.103L244.713 203.054L244.09 203.637L243.198 203.9L242.881 203.797L242.13 203.184L240.95 203.362L240.886 203.42L232.944 202.24L227.696 202.556L224.685 201.247L218.973 197.079L218.891 196.651V196.054L218.592 195.684L217.629 195.933L217.571 195.024L217.148 194.636L216.508 194.609L215.792 194.779L216.374 194.007L215.898 194.038L215.475 193.846L214.853 193.391L213.767 193.311L213.38 193.146L213.098 192.704L212.869 191.642L212.54 191.392L210.803 191.397L210.31 191.517L208.291 192.588L207.334 192.891H206.025L204.751 192.588L200.343 190.093L196.961 188.775L196.965 188.754L197.106 187.937L197.343 187.418L197.554 186.726L198.42 184.537L198.694 183.632V183.277L198.853 182.883L199.113 182.643L199.449 182.555L199.836 182.62L200.25 182.836L200.665 183.201L201.738 184.901L202.07 185.089L202.391 185.019L202.688 184.775L203.147 184.096L203.327 183.721L203.72 183.242L204.316 182.77L204.675 182.626L205.061 182.603L205.458 182.748L207.162 184.233L207.493 184.344L207.845 184.296L211.953 180.557L213.55 179.826L215.518 180.017L215.886 179.826L216.166 179.453L216.455 178.237L216.676 177.827L216.953 177.584L217.252 177.472L217.788 177.482L218.024 177.553L219.49 175.728L219.91 175.497L220.286 175.532L220.579 175.928L220.829 176.45L221.102 176.816L221.399 177.053L222.08 177.245L223.782 177.173L224.133 177.03L225.144 176.269L225.398 176.202L229.315 176.848L229.904 176.64L230.377 176.253L231.551 174.498L231.783 174.288L235.778 172.999L237.018 171.476L237.412 170.625L237.504 170.207L237.507 169.804L237.405 169.424L236.948 168.309L236.872 167.919L236.877 167.513L236.985 167.09L237.224 166.643L238.019 165.682L238.272 165.206L238.392 164.754L238.389 164.335L238.277 163.963L238.067 163.648L237.772 163.402L237.064 163.041L236.829 162.721L236.69 162.302L236.632 161.809L236.715 160.714L236.978 159.65L237.182 159.245L237.457 158.982L238.655 158.502L238.83 158.315L238.894 158.018L238.858 157.692L238.765 157.426L238.364 156.692L238.266 156.366L238.222 155.948L238.256 155.406L238.382 154.811L238.591 154.253L239.188 153.284L239.904 152.559L244.858 149.526L245.084 149.1L245.145 148.575L245.075 147.973L244.006 144.618L243.892 143.989L243.765 140.006L243.436 138.836L243.458 138.429L243.614 138.138L243.873 137.943L245.573 137.637L245.799 137.363L245.961 136.959L246.056 136.467L246.081 135.928L246.034 135.385L245.91 134.881L245.71 134.457L244.148 132.9L244.002 132.519L244.012 132.062L244.718 130.315L244.984 129.302L245.11 128.332L246.478 128.454L253.21 127.798L253.712 127.381L253.897 127.023L254.003 126.45L254.073 125.715L254.363 125.331L254.856 125.125L257.889 125.114L258.32 125.225L259.027 125.569L259.546 125.631L261.461 125.493L262.878 125.624L264.207 126.09L267.053 127.535L267.67 127.399L267.442 128.464L267.174 129.124L266.867 129.461L266.522 129.556L264.717 129.122L264.314 129.252L264.156 129.6L264.203 130.11L264.418 130.724L265.189 132.032L267.612 134.448L267.747 134.728L267.75 134.966L267.599 135.153L266.96 135.468L266.837 135.828L266.867 136.32L267.014 136.908L268.424 140.518L268.497 141.013L268.491 141.486L268.404 141.935L268.229 142.361L267.961 142.764L267.593 143.144L267.343 143.534L267.388 143.958L267.665 144.404L270.754 146.807L271.239 146.784L271.743 146.56L272.245 146.182L273.161 145.166L273.823 144.126L273.991 143.635L274.035 143.098L273.977 142.538L273.842 141.977L273.441 140.948L272.405 139.213L272.32 138.909L272.283 138.537L272.385 137.491L272.595 136.967L272.961 136.661L273.443 136.54L274.002 136.569L276.218 137.491L276.621 137.853L277.316 138.957L277.823 140.278L278.204 142.315L278.396 142.76L278.681 143.228L281.319 145.802L281.508 146.12L281.646 146.496L281.721 146.937L281.634 148.64L281.808 149.125L282.131 149.518L283.077 150.074L285.201 150.736L286.357 151.852L287.422 153.441L288.099 155.016L288.197 155.649L288.175 156.146L288.113 156.556L288.068 156.711L288.013 156.902L287.079 158.586L286.946 159.149L286.997 159.879L287.499 161.583L288.27 163.195L288.997 164.211L290.487 165.097L290.726 165.345L290.925 165.691L291.073 166.166L291.108 166.672L290.993 167.094L290.759 167.441L290.05 167.949L288.511 168.521L288.235 168.788L286.764 170.897L285.898 171.678L285.794 172.086L285.919 172.494L286.221 172.879L286.65 173.218L287.69 173.668L288.677 173.682L291.445 172.729L291.871 172.757L292.193 172.976L292.35 173.409L292.387 173.996L292.237 176.687L292.35 177.145L292.578 177.479L292.889 177.755L295.225 178.851L298.739 179.581L299.01 179.766L299.226 180.103L299.518 181.012L299.697 182.259L301.709 183.115L302.725 183.936L303.339 184.878L303.706 185.095L304.125 185.142L304.569 185.057L306.374 184.077L308.048 184.303L309.354 184.827L309.569 185.042L309.941 185.665L310.223 186.471L310.4 187.368L310.572 187.75L310.937 188.013L314.014 188.929L314.553 189.311L314.994 189.858L315.367 190.545L315.91 192.074L316.332 194.024L310.031 196.51L307.953 196.185L306.215 194.344L305.388 193.943L304.038 194.34L302.996 195.025L301.889 195.753L300.903 195.94L294.423 192.645L291.694 191.931L289.152 192.475L286.1 194.705L285.583 195.508L285.249 197.135L284.433 198.173L282.478 199.87L281.081 202.256L278.211 210.556L277.559 211.753L276.661 212.852L276.521 214.484Z" stroke="#45515F" stroke-linecap="round" stroke-linejoin="round"/>
<path d="M356.972 151.674L354.871 153.324L347.229 156.312L345.556 157.9L344.188 160.13L343.126 162.781L342.404 165.632L342.198 167.961L342.208 168.484L342.281 172.36L341.905 174.265L340.725 176.267L339.052 177.829L337.168 178.697L334.122 178.46L332.748 178.675L331.557 179.445L330.805 180.957L330.453 182.24L330.013 184.918L329.549 186.102L328.504 187.125L327.418 187.187L326.221 186.982L324.824 187.223L323.908 187.987L321.947 191.371L320.944 192.205L316.333 194.026L315.911 192.077L315.367 190.547L314.995 189.86L314.554 189.314L314.015 188.931L310.937 188.016L310.573 187.752L310.401 187.37L310.224 186.473L309.942 185.668L309.57 185.045L309.355 184.83L308.049 184.305L306.375 184.079L304.57 185.06L304.126 185.144L303.707 185.098L303.34 184.88L302.726 183.938L301.71 183.118L299.698 182.262L299.519 181.014L299.227 180.105L299.011 179.768L298.74 179.584L295.226 178.853L292.89 177.757L292.579 177.481L292.35 177.148L292.238 176.689L292.388 173.998L292.351 173.411L292.194 172.979L291.872 172.76L291.445 172.731L288.677 173.684L287.691 173.671L286.651 173.221L286.222 172.881L285.92 172.496L285.795 172.089L285.899 171.681L286.765 170.899L288.236 168.79L288.512 168.524L290.051 167.951L290.759 167.444L290.994 167.097L291.109 166.675L291.074 166.169L290.925 165.693L290.727 165.348L290.487 165.1L288.998 164.214L288.271 163.198L287.5 161.586L286.998 159.881L286.947 159.152L287.08 158.589L288.014 156.905L288.069 156.713L288.126 156.853L288.378 157.305L288.56 157.516L288.78 157.664L289.032 157.709L289.316 157.611L289.554 157.334L289.698 156.907L289.948 155.306L290.102 154.857L290.358 154.545L290.754 154.428L294.454 154.337L294.683 154.383L294.868 154.369L295.123 154.243L295.309 154.036L295.581 153.609L295.889 153.217L297.83 151.341L298.023 151.096L298.531 150.047L298.041 149.432L297.583 147.942L297.671 146.449L297.906 145.048L298.972 145.187L299.326 145.228L300.201 145.557L301.601 146.759L302.801 147.415L303.303 147.514L305.741 148.616L306.325 148.732L306.661 148.614L307.013 148.304L307.295 147.82L307.558 147.24L307.831 146.753L308.068 146.455L308.359 146.214L309.099 145.792L310.079 145.386L310.519 145.276L314.564 145.357L314.969 145.296L315.314 145.154L315.561 144.908L315.746 144.642L315.861 144.281V143.892L315.72 143.333L315.349 142.451L315.268 142.099L315.373 141.844L315.585 141.663L316.274 141.389L316.917 141.306L317.78 141.342L322.77 142.355L324.298 141.672L324.139 140.73L324.119 139.876L324.176 139.446L324.299 139.051L324.477 138.751L324.685 138.559L325.388 138.168L325.616 137.945L325.825 137.599L326.189 136.545L326.424 136.152L326.695 135.897L326.988 135.773L327.29 135.771L327.589 135.885L327.875 136.107L328.408 136.726L328.735 136.895L329.437 136.963L330.263 136.757L331.114 134.461L333.617 134.503L333.844 134.637L334.043 134.876L334.201 135.246L334.436 136.327L334.66 136.763L334.974 137.082L335.372 137.291L335.85 137.391L344.706 136.513L345.239 136.732L346.95 137.95L347.335 138.092L351.648 138.023L352.624 138.397L352.909 138.713L354.092 141.253L354.474 141.685L355.45 142.305L355.802 142.712L356.049 143.204L356.218 143.761L356.67 146.257L356.875 146.784L357.149 147.152L357.464 147.39L357.788 147.525L358.415 147.54L358.31 150.624L356.972 151.674Z" stroke="#45515F" stroke-linecap="round" stroke-linejoin="round"/>
<path d="M245.111 128.334L244.985 129.304L244.719 130.317L244.013 132.064L244.003 132.521L244.149 132.902L245.711 134.459L245.911 134.883L246.035 135.387L246.082 135.93L246.057 136.469L245.962 136.961L245.799 137.365L245.574 137.639L243.874 137.945L243.615 138.14L243.459 138.431L243.436 138.838L243.766 140.008L243.893 143.991L244.007 144.62L245.076 147.975L245.146 148.577L245.085 149.102L244.859 149.528L239.905 152.561L239.189 153.286L238.592 154.255L238.383 154.813L238.257 155.409L238.223 155.95L238.266 156.368L238.365 156.694L238.766 157.428L238.859 157.694L238.895 158.02L238.83 158.317L238.656 158.504L237.457 158.984L237.183 159.247L236.978 159.652L236.715 160.716L236.633 161.811L236.69 162.304L236.83 162.723L237.065 163.043L237.772 163.404L238.068 163.65L238.278 163.965L238.39 164.337L238.392 164.756L238.273 165.208L238.019 165.684L237.224 166.645L236.986 167.092L236.878 167.515L236.873 167.921L236.949 168.311L237.406 169.426L237.508 169.806L237.505 170.209L237.413 170.627L237.018 171.478L235.779 173.001L231.784 174.29L231.552 174.5L230.377 176.255L229.905 176.642L229.316 176.85L225.398 176.204L225.145 176.271L224.134 177.032L223.782 177.175L222.08 177.247L221.4 177.055L221.103 176.818L220.83 176.452L220.58 175.93L220.287 175.534L219.911 175.499L219.491 175.73L218.025 177.555L217.788 177.484L217.253 177.474L216.953 177.586L216.676 177.829L216.455 178.239L216.167 179.455L215.887 179.828L215.519 180.019L213.551 179.828L211.954 180.559L207.845 184.298L207.494 184.346L207.163 184.235L205.458 182.75L205.062 182.605L204.676 182.628L204.316 182.772L203.721 183.244L203.328 183.723L203.148 184.098L202.689 184.777L202.392 185.021L202.07 185.091L201.738 184.903L200.666 183.203L200.251 182.838L199.837 182.623L199.449 182.557L199.114 182.645L198.854 182.885L198.694 183.279L198.642 182.973L198.36 182.528L198.104 182.282L197.833 182.108L197.169 181.965L196.27 181.893L195.875 181.804L195.523 181.56L195.311 181.174L195.065 180.587L194.889 180.375L194.694 180.294H194.516L194.41 180.256L194.333 180.037L194.287 179.683L194.41 178.99L194.516 178.654L194.756 178.309L196.604 176.121L196.887 175.542L197.01 175.12L197.071 174.498L197.134 174.117L197.266 173.771L197.416 173.623L197.714 173.567L198.968 173.486L199.355 173.39L199.646 173.236L199.884 173.053L200.032 172.847L200.042 172.613L199.936 172.303L199.576 171.824L196.878 169.156L196.667 169.012L196.473 168.999L196.235 169.052L194.031 169.936L193.221 169.994L190.542 169.503L190.286 169.515L189.336 169.685L189.071 169.631L188.86 169.51L186.164 166.94L185.881 166.567L185.697 165.979L185.555 165.207L185.441 163.793L185.212 163.059L184.895 162.607L184.408 162.414L181.643 162.091L180.997 161.911L180.76 161.753L177.775 160.188L177.421 160.167L177.106 160.265L176.82 160.469L175.827 161.984L175.585 162.155L175.338 162.165L173.056 160.675L171.559 158.676L169.926 157.586L168.656 156.341L167.741 155.809L167.252 155.761L166.756 155.936L165.78 156.84L165.274 157.006L164.753 156.934L163.676 156.277L161.545 154.281L161.248 153.829L161.086 153.39L161.026 152.96L161.159 151.163L161.121 150.742L161.015 150.438L160.856 150.209L159.916 149.294L159.667 148.874L159.521 148.34L159.534 147.725L160.733 142.985L160.779 141.379L160.627 139.955L159.781 136.899L159.925 136.553L160.252 136.33L162.26 135.746L162.651 135.446L162.852 135.057L162.856 134.644L162.714 134.232L162.479 133.841L161.671 132.975L162.129 132.78L162.793 132.182L163.039 131.755L163.197 131.351L163.286 131.056L163.47 130.726L163.629 130.554L164.721 129.973L164.879 129.785L164.931 129.544L164.809 129.033L164.772 128.824L164.799 128.594L164.896 128.394L165.055 128.245L165.319 128.177L165.788 128.211L168.024 129.204L168.65 129.236L169.427 129.137L170.766 128.743L172.415 128.783L173.356 129.173L174.977 128.919L179.429 126.768L179.57 125.707L179.42 124.749L179.13 123.986L178.84 123.508L178.519 123.142L175.957 121.22L175.694 120.862L175.596 120.481L175.764 119.848L176.037 119.365L177.331 117.872L177.807 117.191L177.948 116.839L178.035 116.488L178.106 116.105L178.229 115.734L178.414 115.425L178.655 115.132L178.892 114.916L178.963 114.879L179.35 114.757L179.526 114.767L179.658 114.812L179.869 114.975L180.362 115.27L180.67 115.334L180.935 115.336L181.137 115.282L183.464 113.898L185.44 113.12L187.465 111.313L187.808 111.118L188.023 111.113L188.331 111.2L189.265 111.332L190.03 111.193L190.514 110.957L190.84 110.659L191.052 110.331L191.187 109.963L191.404 108.553L191.495 108.185L191.61 107.83L191.706 107.621L191.882 107.313L192.085 107.013L192.507 106.564L192.692 106.437L193.282 106.224L193.494 105.984L193.573 105.54L193.555 104.611L193.599 103.883L196.058 105.517L197.152 106.811L198.616 109.204L199.217 109.874L199.548 110.051L203.876 109.701L204.87 109.976L207.46 112.006L208.982 112.369L209.771 112.864L210.076 113.204L210.28 113.605L210.403 114.492L210.541 114.795L210.76 115.014L212.23 115.732L213.156 116.472L213.933 117.524L214.828 119.341L216.265 119.726L216.672 119.52L217.166 119.475L217.939 119.81L218.565 119.985L219.094 119.978L219.648 119.629L220.523 118.632L220.797 118.479L221.431 118.249L221.694 118.049L221.897 117.704L222.169 116.995L222.301 116.769L222.54 116.551L222.883 116.555L223.269 116.715L224.065 117.259L224.832 117.647L225.676 117.947L226.983 118.226L227.617 118.575L228.021 118.986L228.189 119.435L228.373 119.823L228.796 120.127L229.415 120.268L230.639 120.147L232.101 120.216L233.248 120.562L234.921 121.406L237.055 122.826L237.795 123.451L238.305 124.09L238.666 124.742L239.066 125.32L239.673 125.756L241.673 126.487L244 127.993L245.111 128.334Z" stroke="#45515F" stroke-linecap="round" stroke-linejoin="round"/>
<path d="M193.6 103.88L193.556 104.608L193.574 105.537L193.495 105.981L193.283 106.221L192.692 106.434L192.508 106.561L192.086 107.01L191.882 107.31L191.707 107.618L191.611 107.827L191.496 108.182L191.405 108.55L191.188 109.96L191.053 110.328L190.84 110.656L190.515 110.954L190.03 111.19L189.266 111.329L188.332 111.197L188.024 111.11L187.809 111.115L187.466 111.31L185.441 113.117L183.465 113.895L181.138 115.279L180.935 115.333L180.671 115.331L180.363 115.267L179.87 114.972L179.659 114.809L179.527 114.764L179.351 114.754L178.964 114.876L178.893 114.913L178.656 115.129L178.415 115.422L178.23 115.731L178.107 116.102L178.036 116.485L177.949 116.836L177.807 117.188L177.332 117.869L176.038 119.362L175.764 119.845L175.597 120.478L175.695 120.859L175.958 121.217L178.52 123.139L178.841 123.505L179.131 123.983L179.421 124.746L179.571 125.704L179.43 126.765L174.978 128.916L173.357 129.17L172.416 128.78L170.767 128.74L169.428 129.134L168.651 129.233L168.025 129.201L165.789 128.208L165.32 128.174L165.056 128.242L164.897 128.391L164.8 128.591L164.773 128.821L164.81 129.03L164.932 129.541L164.88 129.782L164.721 129.97L163.63 130.551L163.471 130.723L163.287 131.053L163.198 131.348L163.04 131.752L162.794 132.179L162.13 132.777L161.672 132.972L161.302 133.026L161.038 132.922L160.783 132.76L160.518 132.524L160.228 132.203L159.99 131.845L159.815 131.454L159.639 130.899L159.503 130.614L159.124 130.369L158.438 130.125L157.346 130.324L156.773 130.27L156.483 130.089L156.456 129.523L156.421 129.288L156.228 128.957L155.916 128.69L154.235 128.174L153.936 128.002L153.751 127.812L153.345 127.255L153.034 126.924L152.815 126.875L152.541 126.971L151.845 127.572L151.669 127.781L151.432 128.134L151.08 128.854L151.027 129.103L150.992 129.375L150.851 131.669L150.49 132.212L149.694 132.844L147.855 133.239L147.466 133.42L146.637 134.279L145.28 135.134L144.664 135.314L144.057 135.396L142.707 135.178L142.609 135.079L142.583 134.857L142.601 134.613L142.653 134.351L141.958 134.163L135.649 134.419L134.583 134.278L133.638 133.753L132.881 133.564L132.176 133.596L131.709 133.699L129.047 135.198L128.467 135.266L128.035 135.228L127.779 135.138L127.612 135.05L127.471 134.941L127.345 134.819L127.071 134.419L126.958 134.215L126.72 133.932L126.517 133.79L126.244 133.686L126.024 133.65L125.866 133.587L125.743 133.456L125.628 133.227L125.417 132.655L125.232 132.461L124.933 132.3L124.255 132.124L123.346 132.118L122.667 132.246L122.395 132.334L122.157 132.497L121.132 133.529L120.005 133.99L116.692 134.426L115.186 134.37L114.452 134.112L113.396 134.029L113.061 133.918L112.365 133.366L111.794 133.054L111.359 133.005L110.953 133.077L110.319 133.42L109.95 133.728L109.676 134.325L109.368 135.333L109.227 135.5L109.042 135.645L106.301 136.504L105.87 136.726L105.562 136.96L104.546 137.489L103.955 137.557L103.48 137.5L102.45 136.907L102.13 136.671L101.813 136.554L101.434 136.468L100.245 136.425L99.928 136.318L99.268 135.858L99.0007 135.789L98.6749 135.83L95.3792 137.769L95.3704 136.972L95.4415 136.667L95.5499 136.423L95.7959 135.659L95.963 134.809V134.298L95.8369 133.688L95.4503 133.096L94.9039 132.425L94.7103 132.023L94.5692 131.498L94.4908 130.598L94.5433 128.43L94.4374 127.94L94.2179 127.506L93.7161 126.915L93.3368 126.645L93.0545 126.505L92.8002 126.419L92.5158 126.223L92.2865 125.906L92.1542 125.231L92.2076 124.919L92.3571 124.692L92.6918 124.402L92.7914 124.171L92.7566 123.955L92.6155 123.727L91.8817 123.278L91.8729 123.16L92.2159 122.87L92.6741 122.602L92.7649 122.346L92.6912 122.031L91.8278 121.251L91.5994 120.888L91.7494 120.474L92.0576 120.058L92.7291 119.407L93.3715 119.001L94.0856 118.702L95.7492 118.287L96.1846 118.069L96.6236 117.66L98.0324 116.077L98.2172 115.691L98.2083 115.424L98.0672 115.124L97.663 114.888L97.1077 114.665L96.9666 114.538L96.8877 114.311L96.9054 113.789L97.0029 113.344L97.5659 111.398L97.6007 110.955L97.5395 110.58L97.4071 110.057L97.3724 109.748V109.502L98.0864 107.705L98.1476 107.464L98.2 107.123L98.2177 106.727L98.1829 105.966L98.2006 105.586L98.3241 105.293L98.4476 105.163L98.6147 105.12L99.1637 105.066L99.4719 104.972L99.7091 104.86L99.8502 104.769L99.9114 104.613L99.9389 104.378L99.8767 103.949L99.3225 102.064L99.2249 101.617L99.2073 101.243L99.242 100.86L99.3308 100.549L99.0926 100.128L98.5887 99.5931L95.6101 98.07L95.4866 97.6705L95.4327 97.3264L95.1955 97.0026L94.8349 96.7696L92.9419 96.1905L92.6212 96.012L92.2346 95.6794L90.7469 94.0365L90.2529 93.7075L89.6374 93.4221L88.5679 93.1211L88.0049 93.0796L87.5467 93.1186L86.7803 93.2991L85.9879 93.3749L84.9719 93.2467L84.4701 92.9312L81.712 90.264L80.725 89.784L79.7889 89.5655L79.0401 89.2734L78.7143 89.2635L78.4237 89.3549L77.2706 89.9999L76.6542 90.1545L76.3698 90.169L76.0527 90.127L75.7705 90.0087L75.5598 89.7347L75.5509 89.3549L75.7891 88.7192L76.0175 88.2537L76.1845 87.8194L76.211 87.3441L76.1845 86.9601L75.5068 85.1895L76.0958 84.3432L76.8119 83.9727L77.693 83.7303L78.2561 83.4413L79.7121 81.9769L80.3722 81.5281L80.9186 80.8415L81.464 79.5292L82.2216 78.3227L82.5387 77.9652L83.2013 77.5843L86.5245 76.2024L88.954 74.6135L89.4854 74.0546L89.6789 73.8891L90.092 73.6364L90.5761 73.4766L91.2014 73.4854L91.5543 73.5772L91.9061 73.7516L92.1433 73.8294H92.4256L93.4239 73.5632L98.8362 70.7372L99.3204 70.6952L99.7786 70.8934L100.148 71.1684L100.58 71.3293L100.975 71.2649L101.609 70.7626L101.935 70.4248L102.291 69.9376L102.634 69.5473L105.999 67.4307L106.537 67.2148L107.303 67.2657L107.779 67.22L108.218 67.0405L108.556 66.5169L108.671 66.1858L108.688 65.8879L108.615 65.3223L108.626 64.9451L108.688 64.4537L108.821 64.0676L109.058 63.6862L109.498 63.4791L110.185 63.3178L112.557 63.2394L113.948 63.5129L115.28 63.9975L116.424 64.1402L120.901 63.3728L122.753 64.0666L123.043 63.997L123.456 63.7946L124.683 62.7672L125.158 62.4574L125.599 62.3282L127.201 62.1953L128.2 62.2638L128.64 62.1699L129.088 61.9234L129.537 61.2478L129.732 60.801L129.854 60.4284L129.952 60.2219L130.225 59.812L130.278 59.5956V59.264L130.198 58.9656L129.987 58.3325L129.917 58.0445L129.926 57.7399L129.987 57.1691L129.961 56.8199L129.872 56.479L129.609 55.6907L129.529 55.3311L129.582 54.9767L129.793 54.8013L130.251 54.8843L131.003 55.2284L131.302 55.3088L131.602 55.3363L131.936 55.1931L132.429 54.903L134.084 53.518L134.546 53.2721L134.907 53.0048L134.994 52.8274L135.082 52.6037L135.276 51.912L135.347 51.1855V50.6396L135.408 50.2317L135.488 49.9251L135.655 49.579L135.866 49.2614L136.253 48.989L136.87 48.8094L139.4 48.7487L140.477 48.9241L141.348 48.8644L141.745 48.9241L142 49.0538L142.115 49.2723L142.221 49.5333L142.264 49.7502L142.299 50.006L142.326 50.2945L142.397 50.5483L142.529 50.7564L142.687 50.8711L143.18 50.9375L144.169 50.8524L149.261 49.5219L151.562 47.9807L153.643 46.9906L154.144 46.6076L154.813 45.9429L155.245 45.6425L156.189 45.1298L156.665 44.7048L157.07 44.2009L157.669 43.0048L157.898 42.6561L158.259 42.2477L159.43 41.2535L159.758 40.8446L160.42 39.7694L160.631 39.511L160.904 39.3812L161.23 39.3999L161.784 39.6308L162.251 39.6448L162.896 39.3491L163.31 39.2427L163.707 39.3029L164.252 39.7611L164.719 39.9832L166.078 39.8856L166.368 39.9692L166.668 40.1726L167.75 41.4621L168.094 41.79L168.516 41.9473L168.898 42.0308L170.368 41.638L170.87 44.2616L171.469 45.3664L173.488 47.1852L173.603 47.5266L173.585 47.8593L173.409 48.1753L173.224 48.4586L173.179 48.5048L172.986 48.9687L172.951 49.675L173.101 50.2074L173.487 50.9126L173.672 51.3251L173.787 51.7101L174.306 55.3119L174.351 56.1853L174.262 56.9164L174.069 57.4187L173.584 58.3123L173.091 58.9838L172.942 59.4145L172.757 60.1306L172.677 61.4414L172.757 62.0303L172.879 62.3619L173.029 62.4724L175.841 63.6867L176.194 63.9202L176.546 64.2612L177.03 65.0489L177.241 65.7504L177.4 66.7701L177.594 67.2428L177.901 67.5827L178.228 67.7099L178.641 67.7488L179.041 67.7166L180.089 67.4821L180.608 67.5231L182.161 67.8951L184.485 67.5926L184.898 67.6216L185.28 67.7846L185.747 68.2122L186.003 68.7285L186.17 69.2313L186.38 70.7507L186.389 71.9525L186.522 72.6821L186.767 73.6271L187.64 76.149L187.754 76.644L187.718 76.864L187.648 77.0659L187.578 77.2403L187.34 77.5931L186.415 78.5557L186.328 78.8204L186.31 79.2791L186.45 79.5588L186.608 79.7643L187.515 80.3963L187.95 80.8275L188.496 81.4886L189.243 82.6038L189.464 83.1575L189.499 83.5233L189.332 83.7724L188.398 84.681L188.266 84.9415L188.201 85.2373V85.7033L188.266 86.1495L188.478 87.151L188.496 87.4572L188.47 87.768L188.364 88.6777L187.858 88.6554L186.703 88.948L185.652 89.4592L185.376 89.8893L186.028 90.9355L186.441 91.3558L187.771 92.2187L189.701 92.8487L190.098 93.1087L192.17 95.1076L192.628 95.4366L193.377 95.6509L193.772 95.8558L194.186 96.1983L194.718 96.8324L194.797 97.2678L194.673 97.7099L194.523 98.027L194.453 98.2849L194.418 98.6658L194.382 100.43L194.318 100.913L194.186 101.427L193.904 102.263L193.675 103.173L193.6 103.88ZM142.661 93.3381L144.725 93.2374L145.993 92.9131L146.328 92.2789L146.398 92.0818L146.416 91.8586L146.398 91.6646L146.293 91.3792L146.17 91.1119L146.055 90.7964L146.011 90.5702L146.09 89.7804L146.055 89.4898L145.994 89.2449L145.73 88.7104L145.668 88.5391L145.677 88.3954L145.747 88.2164L145.923 87.9626L147.503 86.4017L147.978 85.7707L148.109 85.45L148.137 85.1688L148.057 84.7251L147.811 84.2991L147.485 84.023L146.293 83.6338L145.905 83.4169L145.711 83.2379L145.509 82.9701L145.315 82.5856L144.936 82.0387L144.725 81.8596L144.513 81.7361L143.182 81.3817L142.759 81.1752L142.513 80.8042L142.318 80.2365L142.072 79.9013L141.367 79.3932L140.461 78.441L140.166 78.2257L139.806 78.0747L139.189 77.9548L136.387 78.2802L128.914 80.4606L128.677 80.6298L128.545 80.8685L128.501 81.1617L128.553 81.5052L128.642 81.8207L128.668 82.0911L128.588 82.3111L128.36 82.5737L128.043 82.7568L127.717 82.8378L127.435 82.7844L126.024 82.2052L125.689 82.1622L125.346 82.2052L122.657 83.1969L121.582 83.8263L121.452 83.9722L121.389 84.1091L121.372 84.228L121.36 84.366L121.452 84.5305L121.628 84.7365L122.675 85.3743L123.001 85.6623L123.151 85.8293L123.239 86.0053L123.213 86.2113L123.142 86.4214L122.983 86.7753L122.905 87L122.852 87.2149V87.4567L122.914 87.658L123.09 87.9216L124.49 89.6781L124.642 89.9345L124.898 90.496L125.197 91.5514L125.32 91.8571L125.443 92.0869L125.584 92.293L127.117 94.0671L127.267 94.4086L127.328 94.7241L127.293 95.34L127.258 95.6088L127.222 96.2025L127.275 96.7136L127.354 96.8542L127.453 96.9549L127.601 97.0644L127.788 97.1438L128.413 97.2512L130.794 96.2746L134.873 95.5491L137.411 94.7391L137.754 94.5414L138.59 93.7516L139.506 93.0713L140.061 92.9073L140.442 92.8518L140.592 92.8705L140.706 92.9208L140.874 93.021L141.675 93.2353L142.661 93.3381Z" stroke="#45515F" stroke-linecap="round" stroke-linejoin="round"/>
<path d="M142.662 93.3382L141.676 93.2375L140.875 93.0232L140.708 92.9231L140.593 92.8727L140.443 92.8541L140.063 92.9096L139.507 93.0736L138.591 93.7539L137.755 94.5436L137.412 94.7414L134.874 95.5514L130.795 96.2768L128.414 97.2534L127.789 97.146L127.602 97.0666L127.454 96.9571L127.355 96.8565L127.276 96.7158L127.223 96.2047L127.259 95.6111L127.294 95.3423L127.329 94.7263L127.268 94.4108L127.118 94.0694L125.585 92.2952L125.444 92.0892L125.321 91.8593L125.198 91.5537L124.899 90.4982L124.643 89.9367L124.491 89.6804L123.091 87.9238L122.915 87.6602L122.853 87.4589V87.2171L122.906 87.0023L122.984 86.7776L123.143 86.4237L123.214 86.2135L123.24 86.0075L123.152 85.8316L123.002 85.6645L122.676 85.3765L121.629 84.7387L121.453 84.5327L121.361 84.3682L121.373 84.2302L121.39 84.1114L121.453 83.9744L121.583 83.8286L122.658 83.1991L125.347 82.2075L125.69 82.1644L126.025 82.2075L127.436 82.7866L127.718 82.84L128.044 82.7591L128.361 82.5759L128.589 82.3133L128.669 82.0933L128.643 81.8229L128.555 81.5075L128.502 81.1639L128.546 80.8707L128.678 80.632L128.915 80.4629L136.388 78.2824L139.19 77.957L139.807 78.0769L140.167 78.2279L140.462 78.4433L141.368 79.3955L142.073 79.9035L142.319 80.2387L142.514 80.8064L142.76 81.1774L143.183 81.384L144.514 81.7384L144.727 81.8619L144.937 82.0409L145.317 82.5878L145.51 82.9724L145.712 83.2401L145.906 83.4191L146.294 83.636L147.486 84.0252L147.812 84.3013L148.058 84.7273L148.138 85.171L148.11 85.4522L147.979 85.7729L147.504 86.4039L145.924 87.9648L145.748 88.2186L145.678 88.3976L145.669 88.5414L145.731 88.7126L145.995 89.2471L146.057 89.492L146.091 89.7826L146.012 90.5724L146.056 90.7986L146.171 91.1141L146.294 91.3814L146.399 91.6668L146.417 91.8608L146.399 92.084L146.329 92.2812L145.994 92.9153L144.727 93.2396L142.662 93.3382Z" stroke="#45515F" stroke-linecap="round" stroke-linejoin="round"/>
</g>
<path d="M264 44C254.626 44 247 51.626 247 61C247 65.036 248.449 68.953 251.093 72.048C251.395 72.391 258.52 80.487 260.9 82.756C261.769 83.585 262.884 84 264 84C265.116 84 266.231 83.585 267.101 82.756C269.868 80.117 276.625 72.371 276.921 72.031C279.551 68.953 281 65.036 281 61C281 51.626 273.374 44 264 44ZM264 66C261.239 66 259 63.761 259 61C259 58.239 261.239 56 264 56C266.761 56 269 58.239 269 61C269 63.761 266.761 66 264 66Z" fill="#E5EA11"/>
</g>
<defs>
<clipPath id="clip0_2301_196">
<rect width="384" height="224" fill="white"/>
</clipPath>
<clipPath id="clip1_2301_196">
<rect width="384" height="224" fill="white"/>
</clipPath>
</defs>
</svg>
