<svg width="3840" height="720" viewBox="0 0 3840 720" fill="none" xmlns="http://www.w3.org/2000/svg">
<g opacity="0.04">
<path fill-rule="evenodd" clip-rule="evenodd" d="M1122.49 71.6301L1092.25 41.3839L833.932 41.3838C831.597 49.9824 823.822 56.3558 814.51 56.3558C803.383 56.3558 794.345 47.2628 794.345 36.1642C794.345 25.0657 803.383 16 814.51 16C823.932 16 831.817 22.5108 834.014 31.2743H1096.42L1126.67 61.5206H1345.33L1375.58 31.2743H1637.99C1640.18 22.5108 1648.07 16 1657.49 16C1668.62 16 1677.65 25.0657 1677.65 36.1642C1677.65 47.2628 1668.62 56.3558 1657.49 56.3558C1648.18 56.3558 1640.4 49.9824 1638.07 41.3838L1379.75 41.3839L1349.51 71.6301H1122.49ZM814.51 46.2463C808.96 46.2463 804.455 41.741 804.455 36.1642C804.455 30.5875 808.96 26.1096 814.51 26.1096C818.273 26.1096 821.515 28.2249 823.245 31.2743H818.026C817.009 30.5326 815.856 30.038 814.51 30.038C811.13 30.038 808.356 32.7852 808.356 36.1642C808.356 39.5433 811.103 42.3178 814.51 42.3178C815.636 42.3178 816.652 41.9332 817.559 41.3838H823.081C821.322 44.2683 818.163 46.2463 814.51 46.2463ZM1657.49 46.2463C1663.04 46.2463 1667.55 41.741 1667.55 36.1642C1667.55 30.5875 1663.04 26.1096 1657.49 26.1096C1653.73 26.1096 1650.49 28.2249 1648.75 31.2743H1653.97C1654.99 30.5326 1656.14 30.038 1657.49 30.038C1660.87 30.038 1663.64 32.7852 1663.64 36.1642C1663.64 39.5433 1660.9 42.3178 1657.49 42.3178C1656.36 42.3178 1655.35 41.9332 1654.44 41.3838H1648.92C1650.68 44.2683 1653.84 46.2463 1657.49 46.2463Z" fill="#96A2B1"/>
<path fill-rule="evenodd" clip-rule="evenodd" d="M1099.03 98.4902L1087.55 109.973C1090.93 113.572 1093.01 118.38 1093.01 123.682C1093.01 134.808 1084 143.873 1072.85 143.873C1061.7 143.873 1052.66 134.78 1052.66 123.682C1052.66 112.583 1061.72 103.518 1072.85 103.518L1072.82 103.49C1074.91 103.49 1076.86 103.902 1078.73 104.479L1094.83 88.3806H1377.17L1393.27 104.479C1395.14 103.902 1397.09 103.49 1399.18 103.49L1399.15 103.518C1410.28 103.518 1419.34 112.583 1419.34 123.682C1419.34 134.78 1410.3 143.873 1399.15 143.873C1388 143.873 1378.99 134.808 1378.99 123.682C1378.99 118.38 1381.07 113.572 1384.45 109.973L1372.97 98.4902H1099.03ZM1063.7 119.533C1064.72 117.336 1066.48 115.55 1068.67 114.561L1063.7 119.533ZM1072.85 133.764C1078.4 133.764 1082.9 129.231 1082.9 123.682H1082.93C1082.93 121.154 1081.97 118.874 1080.43 117.116L1077.63 119.946C1078.45 120.989 1079.03 122.253 1079.03 123.682C1079.03 127.088 1076.28 129.835 1072.88 129.835C1069.47 129.835 1066.72 127.088 1066.72 123.682L1063.4 120.385C1063.04 121.429 1062.8 122.528 1062.8 123.682C1062.8 129.258 1067.3 133.764 1072.85 133.764ZM1408.3 119.533C1407.28 117.336 1405.52 115.55 1403.33 114.561L1408.3 119.533ZM1399.15 133.764C1393.6 133.764 1389.1 129.231 1389.1 123.682H1389.07C1389.07 121.154 1390.03 118.874 1391.57 117.116L1394.37 119.946C1393.55 120.989 1392.97 122.253 1392.97 123.682C1392.97 127.088 1395.72 129.835 1399.12 129.835C1402.53 129.835 1405.28 127.088 1405.28 123.682L1408.6 120.385C1408.96 121.429 1409.21 122.528 1409.21 123.682C1409.21 129.258 1404.7 133.764 1399.15 133.764Z" fill="#96A2B1"/>
<path fill-rule="evenodd" clip-rule="evenodd" d="M1207.95 178.737L1186.97 200.11L1212.41 226.867L1097.22 343.649L517.785 343.649L462.375 288.019H371.499C369.411 295.848 362.323 301.645 353.862 301.645C343.752 301.645 335.511 293.431 335.511 283.294C335.511 273.157 343.752 264.943 353.862 264.943C362.433 264.943 369.576 270.876 371.581 278.816H466.193L521.604 334.446L1093.48 334.446L1199.71 226.757L1180.62 206.675L1127.11 261.207H1071.56L1017.77 314.996C1017.22 317.496 1015.1 319.419 1012.41 319.419C1009.34 319.419 1006.84 316.919 1006.84 313.842C1006.84 311.15 1008.76 309.035 1011.29 308.485L1058.56 261.179H964.831L934.887 291.123H879.614L855.164 315.573C854.615 318.1 852.5 320.023 849.807 320.023C846.731 320.023 844.231 317.523 844.231 314.447C844.231 311.754 846.126 309.639 848.654 309.09L866.593 291.151H814.891C812.831 299.035 805.715 304.886 797.199 304.886C787.117 304.886 778.876 296.672 778.876 286.535C778.876 276.398 787.09 268.184 797.199 268.184C805.715 268.184 812.831 274.036 814.891 281.92H931.068L961.013 251.976H1123.23L1195.15 178.709H1152.32L1098.65 232.389L1097.96 231.702C1097.19 232.114 1096.34 232.389 1095.4 232.389C1092.33 232.389 1089.83 229.889 1089.83 226.812C1089.83 223.735 1092.33 221.235 1095.4 221.235C1095.68 221.235 1095.95 221.311 1096.21 221.385C1096.34 221.421 1096.46 221.456 1096.59 221.483L1139.33 178.737H1096.2L1043.51 231.427H851.703L826.951 256.179C826.401 258.707 824.259 260.63 821.594 260.63C818.517 260.63 816.017 258.13 816.017 255.053C816.017 252.361 817.94 250.245 820.468 249.696L838.709 231.455L742.695 231.455V260.08H707.175V205.109H689.73V287.579H653.907V178.764H635.034V318.485H598.634V150.111H581.19V287.552H541.301V177.61H524.378V263.514H486.577V205.109H468.968V232.581H428.75C426.332 239.889 419.519 245.191 411.415 245.191C401.305 245.191 393.064 236.949 393.064 226.84C393.064 216.73 401.305 208.516 411.415 208.516C420.343 208.516 427.788 214.944 429.409 223.406H459.765V195.934H495.753V254.339H515.175V168.435H550.476V278.376H571.987V140.936H607.81V309.309H625.804V169.589H663.055V278.404H680.5V195.934H716.323V250.905H733.465V222.279L893.048 222.279L848.708 177.94H781.293C779.562 186.264 772.172 192.527 763.354 192.527C753.217 192.527 745.003 184.258 745.003 174.176C745.003 164.094 753.245 155.853 763.354 155.853C771.568 155.853 778.436 161.32 780.771 168.765H852.5L906.014 222.279H1039.64L1062.88 199.038L1039.8 178.792H902.196L875.301 151.924H731.185C729.125 159.809 722.009 165.66 713.493 165.66C703.384 165.66 695.142 157.446 695.142 147.309C695.142 137.172 703.384 128.958 713.493 128.958C722.009 128.958 729.125 134.81 731.185 142.694H780.441L762.145 124.398C759.645 123.848 757.722 121.733 757.722 119.041C757.722 115.964 760.222 113.464 763.299 113.464C765.991 113.464 768.107 115.387 768.656 117.915L793.436 142.694H879.092L905.987 169.561H975.573L939.722 133.711C936.975 135.304 933.843 136.293 930.464 136.293C920.355 136.293 912.113 128.052 912.113 117.942C912.113 107.832 920.355 99.591 930.464 99.591C940.574 99.591 948.815 107.832 948.815 117.942C948.815 121.348 947.826 124.48 946.233 127.2L988.567 169.534H1043.21L1069.33 192.473L1092.27 169.534H1379.73L1402.67 192.473L1428.79 169.534H1483.43L1525.77 127.2C1524.17 124.48 1523.19 121.348 1523.19 117.942C1523.19 107.832 1531.43 99.591 1541.54 99.591C1551.65 99.591 1559.89 107.832 1559.89 117.942C1559.89 128.052 1551.65 136.293 1541.54 136.293C1538.16 136.293 1535.03 135.304 1532.28 133.711L1496.43 169.561H1566.01L1592.91 142.694H1678.56L1703.34 117.915C1703.89 115.387 1706.01 113.464 1708.7 113.464C1711.78 113.464 1714.28 115.964 1714.28 119.041C1714.28 121.733 1712.35 123.848 1709.85 124.398L1691.56 142.694H1740.82C1742.88 134.81 1749.99 128.958 1758.51 128.958C1768.62 128.958 1776.86 137.172 1776.86 147.309C1776.86 157.446 1768.62 165.66 1758.51 165.66C1749.99 165.66 1742.88 159.809 1740.82 151.924H1596.7L1569.8 178.792H1432.2L1409.12 199.038L1432.36 222.279H1565.99L1619.5 168.765H1691.23C1693.56 161.32 1700.43 155.853 1708.65 155.853C1718.76 155.853 1727 164.094 1727 174.176C1727 184.258 1718.78 192.527 1708.65 192.527C1699.83 192.527 1692.44 186.264 1690.71 177.94H1623.29L1578.95 222.279L1738.54 222.279V250.905H1755.68V195.934H1791.5V278.404H1808.95V169.589H1846.2V309.309H1864.19V140.936H1900.01V278.376H1921.52V168.435H1956.82V254.339H1976.25V195.934H2012.24V223.406H2042.59C2044.21 214.944 2051.66 208.516 2060.59 208.516C2070.69 208.516 2078.94 216.73 2078.94 226.84C2078.94 236.949 2070.69 245.191 2060.59 245.191C2052.48 245.191 2045.67 239.889 2043.25 232.581H2003.03V205.109H1985.42V263.514H1947.62V177.61H1930.7V287.552H1890.81V150.111H1873.37V318.485H1836.97V178.764H1818.09V287.579H1782.27V205.109H1764.83V260.08H1729.3V231.455L1633.29 231.455L1651.53 249.696C1654.06 250.245 1655.98 252.361 1655.98 255.053C1655.98 258.13 1653.48 260.63 1650.41 260.63C1647.74 260.63 1645.6 258.707 1645.05 256.179L1620.3 231.427H1428.49L1375.8 178.737H1332.67L1375.42 221.483C1375.49 221.467 1375.56 221.449 1375.63 221.43C1375.68 221.416 1375.74 221.4 1375.79 221.385C1376.05 221.311 1376.32 221.235 1376.6 221.235C1379.67 221.235 1382.17 223.735 1382.17 226.812C1382.17 229.889 1379.67 232.389 1376.6 232.389C1375.66 232.389 1374.81 232.114 1374.04 231.702L1373.35 232.389L1319.68 178.709H1276.85L1348.77 251.976H1510.99L1540.93 281.92H1657.11C1659.17 274.036 1666.28 268.184 1674.8 268.184C1684.91 268.184 1693.12 276.398 1693.12 286.535C1693.12 296.672 1684.88 304.886 1674.8 304.886C1666.28 304.886 1659.17 299.035 1657.11 291.151H1605.41L1623.35 309.09C1625.87 309.639 1627.77 311.754 1627.77 314.447C1627.77 317.523 1625.27 320.023 1622.19 320.023C1619.5 320.023 1617.39 318.1 1616.84 315.573L1592.39 291.123H1537.11L1507.17 261.179H1413.44L1460.71 308.485C1463.24 309.035 1465.16 311.15 1465.16 313.842C1465.16 316.919 1462.67 319.419 1459.59 319.419C1456.9 319.419 1454.78 317.496 1454.23 314.996L1400.44 261.207H1344.89L1291.38 206.675L1272.29 226.757L1378.52 334.446L1950.4 334.446L2005.81 278.816H2100.42C2102.42 270.876 2109.57 264.943 2118.14 264.943C2128.25 264.943 2136.49 273.157 2136.49 283.294C2136.49 293.431 2128.25 301.645 2118.14 301.645C2109.68 301.645 2102.59 295.848 2100.5 288.019H2009.63L1954.21 343.649L1374.78 343.649L1259.59 226.867L1285.03 200.11L1264.05 178.737H1207.95ZM921.316 117.942C921.316 122.997 925.409 127.09 930.464 127.09V127.063C931.261 127.063 932.03 126.925 932.772 126.733L929.31 123.272C926.81 122.722 924.887 120.579 924.887 117.915C924.887 114.838 927.387 112.338 930.464 112.338C933.156 112.338 935.272 114.261 935.821 116.788L939.282 120.25C939.475 119.508 939.612 118.739 939.612 117.942C939.612 112.887 935.519 108.794 930.464 108.794C925.409 108.794 921.316 112.887 921.316 117.942ZM704.345 147.254C704.345 152.309 708.438 156.402 713.493 156.402C716.845 156.402 719.757 154.534 721.35 151.842H716.487C715.608 152.419 714.619 152.831 713.493 152.831C710.416 152.831 707.916 150.331 707.916 147.254C707.916 144.177 710.416 141.677 713.493 141.677C714.619 141.677 715.608 142.09 716.487 142.666H721.35C719.757 139.947 716.845 138.106 713.493 138.106C708.438 138.106 704.345 142.199 704.345 147.254ZM754.151 174.121C754.151 179.176 758.244 183.269 763.299 183.269V183.242C767.008 183.242 770.195 181.017 771.623 177.858H767.392C766.349 178.956 764.92 179.671 763.299 179.671C760.222 179.671 757.722 177.171 757.722 174.094C757.722 171.017 760.222 168.517 763.299 168.517C763.549 168.517 763.785 168.584 764.026 168.653C764.13 168.682 764.235 168.712 764.343 168.737V168.682H770.607C768.958 166.457 766.294 164.973 763.299 164.973C758.244 164.973 754.151 169.067 754.151 174.121ZM402.185 226.812C402.185 231.867 406.278 235.96 411.332 235.96C414.217 235.96 416.744 234.587 418.42 232.526H411.332V232.389C408.256 232.389 405.756 229.889 405.756 226.812C405.756 223.735 408.256 221.235 411.332 221.235C413.091 221.235 414.602 222.087 415.618 223.351H419.794C418.42 220.027 415.151 217.664 411.332 217.664C406.278 217.664 402.185 221.757 402.185 226.812ZM344.714 283.294C344.714 288.348 348.807 292.442 353.862 292.442C357.186 292.442 360.043 290.656 361.664 288.019H356.664C355.84 288.513 354.906 288.87 353.862 288.87C350.785 288.87 348.285 286.371 348.285 283.294C348.285 280.217 350.785 277.717 353.862 277.717C355.071 277.717 356.142 278.156 357.049 278.816H361.801C360.235 276.041 357.268 274.146 353.862 274.146C348.807 274.146 344.714 278.239 344.714 283.294ZM787.969 286.563C787.969 291.614 792.083 295.705 797.105 295.711C800.45 295.705 803.355 293.866 804.946 291.151H800.084C799.205 291.728 798.216 292.14 797.089 292.14C794.012 292.14 791.513 289.64 791.513 286.563C791.513 283.486 794.012 280.986 797.089 280.986C798.216 280.986 799.205 281.398 800.084 281.975H804.974C803.38 279.255 800.468 277.415 797.117 277.415C792.062 277.415 787.969 281.508 787.969 286.563ZM1550.68 117.942C1550.68 122.997 1546.59 127.09 1541.54 127.09V127.063C1540.74 127.063 1539.97 126.925 1539.23 126.733L1542.69 123.272C1545.19 122.722 1547.11 120.579 1547.11 117.915C1547.11 114.838 1544.61 112.338 1541.54 112.338C1538.84 112.338 1536.73 114.261 1536.18 116.788L1532.72 120.25C1532.53 119.508 1532.39 118.739 1532.39 117.942C1532.39 112.887 1536.48 108.794 1541.54 108.794C1546.59 108.794 1550.68 112.887 1550.68 117.942ZM1767.66 147.254C1767.66 152.309 1763.56 156.402 1758.51 156.402C1755.16 156.402 1752.24 154.534 1750.65 151.842H1755.51C1756.39 152.419 1757.38 152.831 1758.51 152.831C1761.58 152.831 1764.08 150.331 1764.08 147.254C1764.08 144.177 1761.58 141.677 1758.51 141.677C1757.38 141.677 1756.39 142.09 1755.51 142.666H1750.65C1752.24 139.947 1755.16 138.106 1758.51 138.106C1763.56 138.106 1767.66 142.199 1767.66 147.254ZM1717.85 174.121C1717.85 179.176 1713.76 183.269 1708.7 183.269V183.242C1704.99 183.242 1701.81 181.017 1700.38 177.858H1704.61C1705.65 178.956 1707.08 179.671 1708.7 179.671C1711.78 179.671 1714.28 177.171 1714.28 174.094C1714.28 171.017 1711.78 168.517 1708.7 168.517C1708.45 168.517 1708.22 168.584 1707.97 168.653C1707.92 168.668 1707.87 168.683 1707.81 168.698C1707.76 168.712 1707.71 168.725 1707.66 168.737V168.682H1701.39C1703.04 166.457 1705.71 164.973 1708.7 164.973C1713.76 164.973 1717.85 169.067 1717.85 174.121ZM2069.82 226.812C2069.82 231.867 2065.72 235.96 2060.67 235.96C2057.78 235.96 2055.26 234.587 2053.58 232.526H2060.67V232.389C2063.74 232.389 2066.24 229.889 2066.24 226.812C2066.24 223.735 2063.74 221.235 2060.67 221.235C2058.91 221.235 2057.4 222.087 2056.38 223.351H2052.21C2053.58 220.027 2056.85 217.664 2060.67 217.664C2065.72 217.664 2069.82 221.757 2069.82 226.812ZM2127.29 283.294C2127.29 288.348 2123.19 292.442 2118.14 292.442C2114.81 292.442 2111.96 290.656 2110.34 288.019H2115.34C2116.16 288.513 2117.09 288.87 2118.14 288.87C2121.22 288.87 2123.72 286.371 2123.72 283.294C2123.72 280.217 2121.22 277.717 2118.14 277.717C2116.93 277.717 2115.86 278.156 2114.95 278.816H2110.2C2111.76 276.041 2114.73 274.146 2118.14 274.146C2123.19 274.146 2127.29 278.239 2127.29 283.294ZM1684.03 286.563C1684.03 291.614 1679.92 295.705 1674.89 295.711C1671.55 295.705 1668.64 293.866 1667.05 291.151H1671.92C1672.8 291.728 1673.78 292.14 1674.91 292.14C1677.99 292.14 1680.49 289.64 1680.49 286.563C1680.49 283.486 1677.99 280.986 1674.91 280.986C1673.78 280.986 1672.8 281.398 1671.92 281.975H1667.03C1668.62 279.255 1671.53 277.415 1674.88 277.415C1679.94 277.415 1684.03 281.508 1684.03 286.563Z" fill="#96A2B1"/>
<path fill-rule="evenodd" clip-rule="evenodd" d="M489.847 370.021L437.238 317.412H348.23C346.17 325.297 339.055 331.148 330.539 331.148C320.429 331.148 312.187 322.907 312.187 312.797C312.187 302.688 320.429 294.474 330.539 294.474C339.055 294.474 346.17 300.325 348.23 308.209H441.057L493.638 360.79H1978.36L2030.94 308.209H2123.77C2125.83 300.325 2132.95 294.474 2141.46 294.474C2151.57 294.474 2159.81 302.688 2159.81 312.797C2159.81 322.907 2151.57 331.148 2141.46 331.148C2132.95 331.148 2125.83 325.297 2123.77 317.412H2034.76L1982.15 370.021H489.847ZM330.566 321.945C325.511 321.945 321.418 317.852 321.418 312.797C321.418 307.742 325.511 303.649 330.566 303.649C333.918 303.649 336.829 305.49 338.423 308.209H333.533C332.654 307.633 331.665 307.22 330.539 307.22C327.462 307.22 324.962 309.72 324.962 312.797C324.962 315.874 327.462 318.374 330.539 318.374C331.665 318.374 332.654 317.962 333.533 317.385H338.423C336.829 320.105 333.918 321.945 330.566 321.945ZM2141.43 321.945C2146.49 321.945 2150.58 317.852 2150.58 312.797C2150.58 307.742 2146.49 303.649 2141.43 303.649C2138.08 303.649 2135.17 305.49 2133.58 308.209H2138.47C2139.35 307.633 2140.34 307.22 2141.46 307.22C2144.54 307.22 2147.04 309.72 2147.04 312.797C2147.04 315.874 2144.54 318.374 2141.46 318.374C2140.34 318.374 2139.35 317.962 2138.47 317.385H2133.58C2135.17 320.105 2138.08 321.945 2141.43 321.945Z" fill="#96A2B1"/>
<path fill-rule="evenodd" clip-rule="evenodd" d="M1037.08 408.783L982.111 463.753H927.141L872.17 518.724L558.087 518.724C556.026 526.608 548.911 532.46 540.395 532.46C530.285 532.46 522.044 524.246 522.044 514.109C522.044 503.972 530.285 495.758 540.395 495.758C548.911 495.758 556.026 501.609 558.087 509.494L868.351 509.494L914.119 463.726H844.643L817.144 491.225H487.292L459.793 518.724H365.62C363.56 526.608 356.445 532.46 347.929 532.46C337.819 532.46 329.578 524.246 329.578 514.109C329.578 503.972 337.819 495.758 347.929 495.758C356.445 495.758 363.56 501.609 365.62 509.494H455.975L483.474 481.995H813.326L840.825 454.495H978.265L1024.06 408.7H954.585L930.547 432.738C929.998 435.238 927.882 437.161 925.19 437.161C922.113 437.161 919.613 434.661 919.613 431.584C919.613 428.892 921.509 426.777 924.036 426.227L941.563 408.7H899.587L875.549 432.738C875 435.238 872.857 437.161 870.192 437.161C867.115 437.161 864.615 434.661 864.615 431.584C864.615 428.892 866.511 426.777 869.038 426.227L886.565 408.7H844.588L789.618 463.671L612.975 463.671C610.915 471.555 603.8 477.407 595.283 477.407C585.174 477.407 576.932 469.165 576.932 459.056C576.932 448.946 585.174 440.705 595.283 440.705C603.8 440.705 610.915 446.556 612.975 454.441H785.799L831.594 408.645L733.823 408.645L678.852 436.144H487.265L432.294 491.115H296.2C294.139 499 287.024 504.851 278.508 504.851C268.398 504.851 260.157 496.609 260.157 486.5C260.157 476.39 268.398 468.176 278.508 468.176C287.024 468.176 294.139 474.028 296.2 481.912H428.503L450.151 460.292L401.856 436.144H189.527C187.467 444.029 180.352 449.88 171.835 449.88C161.726 449.88 153.484 441.639 153.484 431.529C153.484 421.42 161.726 413.206 171.835 413.206C180.352 413.206 187.467 419.057 189.527 426.941L336.858 426.941L318.561 408.673L231.641 409.442C229.636 417.409 222.466 423.343 213.894 423.343C203.757 423.343 195.543 415.101 195.543 404.992L195.626 405.101C195.626 394.992 203.867 386.778 213.977 386.778C222.438 386.778 229.498 392.574 231.614 400.376L322.38 399.58L349.879 427.079H404.026L457.019 453.561L483.529 427.079H676.764L731.735 399.58H1740.27L1795.24 427.079H1988.47L2014.98 453.561L2067.97 427.079H2122.12L2149.62 399.58L2240.39 400.376C2242.5 392.574 2249.56 386.778 2258.02 386.778C2268.13 386.778 2276.37 394.992 2276.37 405.101L2276.46 404.992C2276.46 415.101 2268.24 423.343 2258.11 423.343C2249.53 423.343 2242.36 417.409 2240.36 409.442L2153.44 408.673L2135.14 426.941L2282.47 426.941C2284.53 419.057 2291.65 413.206 2300.16 413.206C2310.27 413.206 2318.52 421.42 2318.52 431.529C2318.52 441.639 2310.27 449.88 2300.16 449.88C2291.65 449.88 2284.53 444.029 2282.47 436.144H2070.14L2021.85 460.292L2043.5 481.912H2175.8C2177.86 474.028 2184.98 468.176 2193.49 468.176C2203.6 468.176 2211.84 476.39 2211.84 486.5C2211.84 496.609 2203.6 504.851 2193.49 504.851C2184.98 504.851 2177.86 499 2175.8 491.115H2039.71L1984.74 436.144H1793.15L1738.18 408.645L1640.41 408.645L1686.2 454.441H1859.03C1861.09 446.556 1868.2 440.705 1876.72 440.705C1886.83 440.705 1895.07 448.946 1895.07 459.056C1895.07 469.165 1886.83 477.407 1876.72 477.407C1868.2 477.407 1861.09 471.555 1859.03 463.671L1682.38 463.671L1627.41 408.7H1585.44L1602.96 426.227C1605.49 426.777 1607.38 428.892 1607.38 431.584C1607.38 434.661 1604.88 437.161 1601.81 437.161C1599.14 437.161 1597 435.238 1596.45 432.738L1572.41 408.7H1530.44L1547.96 426.227C1550.49 426.777 1552.39 428.892 1552.39 431.584C1552.39 434.661 1549.89 437.161 1546.81 437.161C1544.12 437.161 1542 435.238 1541.45 432.738L1517.42 408.7H1447.94L1493.73 454.495H1631.18L1658.67 481.995H1988.53L2016.03 509.494H2106.38C2108.44 501.609 2115.56 495.758 2124.07 495.758C2134.18 495.758 2142.42 503.972 2142.42 514.109C2142.42 524.246 2134.18 532.46 2124.07 532.46C2115.56 532.46 2108.44 526.608 2106.38 518.724H2012.21L1984.71 491.225H1654.86L1627.36 463.726H1557.88L1603.65 509.494L1913.91 509.494C1915.97 501.609 1923.09 495.758 1931.61 495.758C1941.71 495.758 1949.96 503.972 1949.96 514.109C1949.96 524.246 1941.71 532.46 1931.61 532.46C1923.09 532.46 1915.97 526.608 1913.91 518.724L1599.83 518.724L1544.86 463.753H1489.89L1434.92 408.783H1037.08ZM221.724 400.321L216.834 400.376C215.955 399.827 214.993 399.415 213.894 399.415C210.818 399.415 208.318 401.915 208.318 404.992C208.318 408.068 210.818 410.568 213.894 410.568C215.048 410.568 216.037 410.156 216.916 409.552L221.806 409.497C220.213 412.244 217.301 414.112 213.894 414.112C208.84 414.112 204.746 410.019 204.746 404.964C204.746 399.909 208.84 395.816 213.894 395.816C217.219 395.816 220.13 397.629 221.724 400.294V400.321ZM278.48 495.675C273.426 495.675 269.332 491.582 269.332 486.527C269.332 481.473 273.426 477.379 278.48 477.379C281.832 477.379 284.744 479.22 286.337 481.94H281.475C280.596 481.363 279.607 480.951 278.48 480.951C275.404 480.951 272.904 483.451 272.904 486.527C272.904 489.604 275.404 492.104 278.48 492.104C279.607 492.104 280.596 491.692 281.475 491.115H286.365C284.771 493.835 281.859 495.675 278.508 495.675H278.48ZM595.311 468.176C590.256 468.176 586.163 464.083 586.163 459.028C586.163 453.974 590.256 449.88 595.311 449.88C598.662 449.88 601.574 451.721 603.168 454.441H598.305C597.426 453.864 596.437 453.452 595.311 453.452C592.234 453.452 589.734 455.951 589.734 459.028C589.734 462.105 592.234 464.605 595.311 464.605C596.437 464.605 597.426 464.193 598.305 463.616H603.168C601.574 466.336 598.662 468.176 595.311 468.176ZM347.929 523.147C342.874 523.147 338.781 519.054 338.781 513.999C338.781 508.944 342.874 504.851 347.929 504.851C351.28 504.851 354.192 506.692 355.785 509.411H350.923C350.044 508.834 349.055 508.422 347.929 508.422C344.852 508.422 342.352 510.922 342.352 513.999C342.352 517.076 344.852 519.576 347.929 519.576C349.055 519.576 350.044 519.164 350.923 518.587H355.785C354.192 521.306 351.28 523.147 347.929 523.147ZM540.34 523.147C535.285 523.147 531.192 519.054 531.192 513.999C531.192 508.944 535.285 504.851 540.34 504.851C543.692 504.851 546.604 506.692 548.197 509.411H543.334C542.455 508.834 541.466 508.422 540.34 508.422C537.236 508.422 534.763 510.922 534.763 513.999C534.763 517.076 537.263 519.576 540.34 519.576C541.466 519.576 542.455 519.164 543.334 518.587H548.197C546.604 521.306 543.692 523.147 540.34 523.147ZM171.78 440.677C166.726 440.677 162.632 436.584 162.632 431.529C162.632 426.474 166.726 422.381 171.78 422.381C175.159 422.381 178.071 424.222 179.665 426.941H174.802C173.923 426.365 172.934 425.925 171.78 425.925C168.704 425.925 166.204 428.425 166.204 431.502C166.204 434.579 168.704 437.078 171.78 437.078C172.907 437.078 173.868 436.666 174.747 436.117H179.637C178.044 438.809 175.132 440.65 171.78 440.65V440.677ZM2250.28 400.321L2255.17 400.376C2256.05 399.827 2257.01 399.415 2258.11 399.415C2261.18 399.415 2263.68 401.915 2263.68 404.992C2263.68 408.068 2261.18 410.568 2258.11 410.568C2256.95 410.568 2255.96 410.156 2255.08 409.552L2250.19 409.497C2251.79 412.244 2254.7 414.112 2258.11 414.112C2263.16 414.112 2267.25 410.019 2267.25 404.964C2267.25 399.909 2263.16 395.816 2258.11 395.816C2254.78 395.816 2251.87 397.629 2250.28 400.294V400.321ZM2193.52 495.675C2198.57 495.675 2202.67 491.582 2202.67 486.527C2202.67 481.473 2198.57 477.379 2193.52 477.379C2190.17 477.379 2187.26 479.22 2185.66 481.94H2190.53C2191.4 481.363 2192.39 480.951 2193.52 480.951C2196.6 480.951 2199.1 483.451 2199.1 486.527C2199.1 489.604 2196.6 492.104 2193.52 492.104C2192.39 492.104 2191.4 491.692 2190.53 491.115H2185.64C2187.23 493.835 2190.14 495.675 2193.49 495.675H2193.52ZM1876.69 468.176C1881.74 468.176 1885.84 464.083 1885.84 459.028C1885.84 453.974 1881.74 449.88 1876.69 449.88C1873.34 449.88 1870.43 451.721 1868.83 454.441H1873.69C1874.57 453.864 1875.56 453.452 1876.69 453.452C1879.77 453.452 1882.27 455.951 1882.27 459.028C1882.27 462.105 1879.77 464.605 1876.69 464.605C1875.56 464.605 1874.57 464.193 1873.69 463.616H1868.83C1870.43 466.336 1873.34 468.176 1876.69 468.176ZM2124.07 523.147C2129.13 523.147 2133.22 519.054 2133.22 513.999C2133.22 508.944 2129.13 504.851 2124.07 504.851C2120.72 504.851 2117.81 506.692 2116.21 509.411H2121.08C2121.96 508.834 2122.95 508.422 2124.07 508.422C2127.15 508.422 2129.65 510.922 2129.65 513.999C2129.65 517.076 2127.15 519.576 2124.07 519.576C2122.95 519.576 2121.96 519.164 2121.08 518.587H2116.21C2117.81 521.306 2120.72 523.147 2124.07 523.147ZM1931.66 523.147C1936.71 523.147 1940.81 519.054 1940.81 513.999C1940.81 508.944 1936.71 504.851 1931.66 504.851C1928.31 504.851 1925.4 506.692 1923.8 509.411H1928.67C1929.54 508.834 1930.53 508.422 1931.66 508.422C1934.76 508.422 1937.24 510.922 1937.24 513.999C1937.24 517.076 1934.74 519.576 1931.66 519.576C1930.53 519.576 1929.54 519.164 1928.67 518.587H1923.8C1925.4 521.306 1928.31 523.147 1931.66 523.147ZM2300.22 440.677C2305.27 440.677 2309.37 436.584 2309.37 431.529C2309.37 426.474 2305.27 422.381 2300.22 422.381C2296.84 422.381 2293.93 424.222 2292.34 426.941H2297.2C2298.08 426.365 2299.07 425.925 2300.22 425.925C2303.3 425.925 2305.8 428.425 2305.8 431.502C2305.8 434.579 2303.3 437.078 2300.22 437.078C2299.09 437.078 2298.13 436.666 2297.25 436.117H2292.36C2293.96 438.809 2296.87 440.65 2300.22 440.65V440.677Z" fill="#96A2B1"/>
<path d="M1064.47 463.615L1012.96 515.124C1012.41 517.652 1010.3 519.575 1007.6 519.575C1004.53 519.575 1002.03 517.075 1002.03 513.998V513.97C1002.03 511.278 1003.92 509.163 1006.45 508.613L1060.68 454.384H1411.32L1465.55 508.613C1468.08 509.163 1469.97 511.278 1469.97 513.97V513.998C1469.97 517.075 1467.47 519.575 1464.4 519.575C1461.7 519.575 1459.59 517.652 1459.04 515.124L1407.53 463.615H1064.47Z" fill="#96A2B1"/>
<path fill-rule="evenodd" clip-rule="evenodd" d="M1201.97 573.832H1270.03L1325 628.803H1391.68C1393.74 636.687 1400.85 642.539 1409.37 642.539C1419.45 642.539 1427.69 634.325 1427.69 624.188C1427.69 614.051 1419.48 605.837 1409.37 605.837C1400.85 605.837 1393.74 611.688 1391.68 619.573H1328.8L1283.03 573.805H1328L1382.97 546.306H1407.47L1462.44 601.276H1599.89L1627.38 628.776H1694.06C1696.12 636.66 1703.23 642.511 1711.75 642.511C1721.86 642.511 1730.1 634.297 1730.1 624.16C1730.1 614.023 1721.86 605.809 1711.75 605.809C1703.23 605.809 1696.12 611.661 1694.06 619.545H1631.18L1612.88 601.249H1749.03C1751.09 609.133 1758.2 614.985 1766.72 614.985C1776.83 614.985 1785.07 606.771 1785.07 596.634C1785.07 586.497 1776.83 578.283 1766.72 578.283C1758.2 578.283 1751.09 584.134 1749.03 592.019H1466.26L1420.47 546.251H1489.94L1517.44 573.75H1611.62C1613.68 581.634 1620.79 587.486 1629.31 587.486C1639.39 587.486 1647.63 579.272 1647.63 569.135C1647.63 558.998 1639.42 550.784 1629.31 550.784C1620.79 550.784 1613.68 556.635 1611.62 564.519L1521.26 564.519L1502.97 546.223H1682.38L1709.85 573.722H1804.03C1806.09 581.607 1813.2 587.458 1821.72 587.458C1831.83 587.458 1840.07 579.244 1840.07 569.107C1840.07 558.97 1831.83 550.756 1821.72 550.756C1813.2 550.756 1806.09 556.608 1804.03 564.492H1713.67L1695.38 546.196H1874.79L1929.76 601.167H2012.23L2067.21 656.137H2149.68L2163.33 669.791C2161.74 672.538 2160.75 675.67 2160.75 679.049C2160.75 689.158 2168.99 697.4 2179.1 697.4C2189.21 697.4 2197.45 689.186 2197.45 679.049C2197.45 668.912 2189.21 660.698 2179.1 660.698C2175.69 660.698 2172.56 661.687 2169.84 663.28L2162.7 656.137H2231.07C2231.95 656.714 2232.94 657.126 2234.07 657.126C2237.15 657.126 2239.65 654.626 2239.65 651.549C2239.65 648.473 2237.15 645.973 2234.07 645.973C2232.94 645.973 2231.95 646.385 2231.07 646.962H2071.05L2025.26 601.167H2094.73L2122.2 628.666H2240.44C2242.5 636.55 2249.62 642.401 2258.13 642.401C2268.27 642.401 2276.48 634.187 2276.48 624.05C2276.48 613.913 2268.24 605.699 2258.13 605.699C2249.62 605.699 2242.5 611.551 2240.44 619.435H2125.99L2107.7 601.139H2314.59L2369.56 656.11H2472V646.907H2373.35L2327.58 601.112H2381.26C2383.32 608.996 2390.44 614.847 2398.95 614.847C2409.06 614.847 2417.3 606.633 2417.3 596.496C2417.3 586.359 2409.06 578.145 2398.95 578.145C2390.44 578.145 2383.32 583.997 2381.26 591.881L2217.64 591.881L2235.94 573.585H2326.29C2328.35 581.469 2335.47 587.321 2343.98 587.321C2354.09 587.321 2362.33 579.107 2362.33 568.97C2362.33 558.833 2354.09 550.619 2343.98 550.619C2335.47 550.619 2328.35 556.47 2326.29 564.355L2232.15 564.355L2204.65 591.854H2135.2L2180.97 546.086H2271.32C2273.38 553.97 2280.5 559.822 2289.01 559.822C2299.08 559.822 2307.29 551.655 2307.36 541.608L2307.36 541.745V541.471L2307.36 541.608C2307.29 531.534 2299.08 523.394 2289.01 523.394C2280.5 523.394 2273.38 529.246 2271.32 537.13H2177.15L2122.18 592.101H1933.58L1878.61 537.13H1380.77L1325.8 564.629H1146.2L1091.23 537.13H593.387L538.417 592.101H349.824L294.853 537.13H200.68C198.62 529.246 191.505 523.394 182.989 523.394C172.925 523.394 164.712 531.534 164.638 541.608C164.638 541.562 164.637 541.516 164.637 541.471V541.745L164.638 541.691L164.638 541.608C164.712 551.655 172.925 559.822 182.989 559.822C191.505 559.822 198.62 553.97 200.68 546.086H291.034L336.802 591.854H267.354L239.855 564.355L145.709 564.355C143.649 556.47 136.534 550.619 128.018 550.619C117.908 550.619 109.667 558.833 109.667 568.97C109.667 579.107 117.908 587.321 128.018 587.321C136.534 587.321 143.649 581.469 145.709 573.585H236.064L254.36 591.881L90.7388 591.881C88.6783 583.997 81.5632 578.145 73.047 578.145C62.9374 578.145 54.6959 586.359 54.6959 596.496C54.6959 606.633 62.9374 614.847 73.047 614.847C81.5632 614.847 88.6783 608.996 90.7388 601.112H144.418L98.6506 646.907H0V656.11H102.442L157.412 601.139H364.301L346.005 619.435H231.558C229.498 611.551 222.383 605.699 213.867 605.699C203.757 605.699 195.516 613.913 195.516 624.05C195.516 634.187 203.729 642.401 213.867 642.401C222.383 642.401 229.498 636.55 231.558 628.666H349.796L377.268 601.167H446.744L400.949 646.962H240.926C240.047 646.385 239.058 645.973 237.932 645.973C234.855 645.973 232.355 648.473 232.355 651.549C232.355 654.626 234.855 657.126 237.932 657.126C239.058 657.126 240.047 656.714 240.926 656.137H309.303L302.161 663.28C299.441 661.687 296.309 660.698 292.903 660.698C282.793 660.698 274.552 668.912 274.552 679.049C274.552 689.186 282.793 697.4 292.903 697.4C303.012 697.4 311.254 689.158 311.254 679.049C311.254 675.67 310.265 672.538 308.671 669.791L322.325 656.137H404.794L459.765 601.167H542.235L597.206 546.196H776.623L758.327 564.492H667.973C665.912 556.608 658.797 550.756 650.281 550.756C640.172 550.756 631.93 558.97 631.93 569.107C631.93 579.244 640.172 587.458 650.281 587.458C658.797 587.458 665.912 581.607 667.973 573.722H762.146L789.617 546.223H969.034L950.738 564.519L860.384 564.519C858.324 556.635 851.209 550.784 842.692 550.784C832.583 550.784 824.369 558.998 824.369 569.135C824.369 579.272 832.61 587.486 842.692 587.486C851.209 587.486 858.324 581.634 860.384 573.75H954.557L982.056 546.251H1051.53L1005.74 592.019H722.971C720.911 584.134 713.796 578.283 705.279 578.283C695.17 578.283 686.928 586.497 686.928 596.634C686.928 606.771 695.17 614.985 705.279 614.985C713.796 614.985 720.911 609.133 722.971 601.249H859.121L840.824 619.545H777.942C775.881 611.661 768.766 605.809 760.25 605.809C750.141 605.809 741.899 614.023 741.899 624.16C741.899 634.297 750.141 642.511 760.25 642.511C768.766 642.511 775.881 636.66 777.942 628.776H844.615L872.115 601.276H1009.56L1064.53 546.306H1089.03L1144 573.805H1188.97L1143.2 619.573H1080.32C1078.26 611.688 1071.15 605.837 1062.63 605.837C1052.52 605.837 1044.31 614.051 1044.31 624.188C1044.31 634.325 1052.55 642.539 1062.63 642.539C1071.15 642.539 1078.26 636.687 1080.32 628.803H1147L1201.97 573.832ZM190.845 536.883H185.983C185.104 536.306 184.115 535.894 182.989 535.894C179.912 535.894 177.412 538.394 177.412 541.471C177.412 544.548 179.912 547.047 182.989 547.047C184.115 547.047 185.104 546.635 185.983 546.058H190.845C189.252 548.778 186.34 550.619 182.989 550.619C177.934 550.619 173.84 546.526 173.84 541.471C173.84 536.416 177.934 532.323 182.989 532.323C186.34 532.323 189.252 534.163 190.845 536.883ZM128.018 578.118C122.963 578.118 118.87 574.025 118.87 568.97C118.87 563.915 122.963 559.822 128.018 559.822C131.369 559.822 134.281 561.662 135.875 564.382H131.012C130.133 563.805 129.144 563.393 128.018 563.393C124.941 563.393 122.441 565.893 122.441 568.97C122.441 572.047 124.941 574.547 128.018 574.547C129.144 574.547 130.133 574.134 131.012 573.558H135.875C134.281 576.277 131.369 578.118 128.018 578.118ZM208.317 623.941C208.317 625.726 209.197 627.237 210.488 628.254V628.528H210.9C211.779 629.105 212.768 629.517 213.894 629.517C215.021 629.517 216.009 629.105 216.888 628.528H221.751C220.158 631.248 217.246 633.089 213.894 633.089C208.839 633.089 204.746 628.995 204.746 623.941C204.746 618.886 208.839 614.792 213.894 614.792C217.246 614.792 220.158 616.633 221.751 619.353H216.888C216.009 618.776 215.021 618.364 213.894 618.364C212.768 618.364 211.779 618.776 210.9 619.353H210.488V619.628C209.197 620.644 208.317 622.155 208.317 623.941ZM295.265 670.093L291.804 673.554C289.304 674.104 287.381 676.219 287.381 678.911C287.381 681.988 289.881 684.488 292.958 684.488C295.622 684.488 297.765 682.565 298.315 680.038L301.776 676.576C301.968 677.318 302.106 678.087 302.106 678.884C302.106 683.939 298.012 688.032 292.958 688.032C287.903 688.032 283.809 683.939 283.809 678.884C283.809 673.829 287.903 669.736 292.958 669.736C293.754 669.736 294.523 669.873 295.265 670.065V670.093ZM644.704 568.97C644.704 572.047 647.204 574.547 650.281 574.547C651.407 574.547 652.397 574.135 653.276 573.558H658.138C656.545 576.277 653.633 578.118 650.281 578.118C645.226 578.118 641.133 574.025 641.133 568.97C641.133 563.915 645.226 559.822 650.281 559.822C653.633 559.822 656.545 561.662 658.138 564.382H653.276C652.397 563.805 651.407 563.393 650.281 563.393C647.204 563.393 644.704 565.893 644.704 568.97ZM837.116 568.97C837.116 572.047 839.616 574.547 842.692 574.547C843.819 574.547 844.808 574.135 845.687 573.558H850.577C848.983 576.277 846.072 578.118 842.72 578.118C837.693 578.118 833.572 574.025 833.572 568.97C833.572 563.915 837.665 559.822 842.72 559.822C846.072 559.822 848.983 561.662 850.577 564.382H845.714C844.835 563.805 843.846 563.393 842.72 563.393C839.643 563.393 837.143 565.893 837.143 568.97H837.116ZM754.646 623.941C754.646 627.017 757.146 629.517 760.223 629.517C761.349 629.517 762.338 629.105 763.217 628.528H768.079C766.486 631.248 763.574 633.089 760.223 633.089C755.168 633.089 751.075 628.995 751.075 623.941C751.075 618.886 755.168 614.792 760.223 614.792C763.574 614.792 766.486 616.633 768.079 619.353H763.217C762.338 618.776 761.349 618.364 760.223 618.364C757.146 618.364 754.646 620.864 754.646 623.941ZM699.675 596.441C699.675 599.518 702.175 602.018 705.252 602.018C706.378 602.018 707.367 601.606 708.246 601.029H713.109C711.515 603.749 708.603 605.59 705.252 605.59C700.197 605.59 696.104 601.496 696.104 596.441C696.104 591.387 700.197 587.293 705.252 587.293C708.603 587.293 711.515 589.134 713.109 591.854H708.246C707.367 591.277 706.378 590.865 705.252 590.865C702.175 590.865 699.675 593.365 699.675 596.441ZM1057 623.941C1057 627.017 1059.5 629.517 1062.58 629.517C1063.7 629.517 1064.69 629.105 1065.57 628.528H1070.43C1068.84 631.248 1065.93 633.089 1062.58 633.089C1057.55 633.089 1053.43 628.995 1053.43 623.941C1053.43 618.886 1057.52 614.793 1062.58 614.793C1065.93 614.793 1068.84 616.633 1070.43 619.353H1065.54C1064.66 618.776 1063.67 618.364 1062.55 618.364C1059.47 618.364 1056.97 620.864 1056.97 623.941H1057ZM67.4703 596.469C67.4703 599.546 69.9702 602.046 73.047 602.046C74.1733 602.046 75.1624 601.634 76.0415 601.057H80.9041C79.3107 603.776 76.3986 605.617 73.047 605.617C67.9922 605.617 63.899 601.524 63.899 596.469C63.899 591.414 68.0197 587.321 73.047 587.321C76.3986 587.321 79.3107 589.161 80.9041 591.881H76.0415C75.1624 591.304 74.1733 590.892 73.047 590.892C69.9702 590.892 67.4703 593.392 67.4703 596.469ZM2281.15 536.883H2286.02C2286.9 536.306 2287.89 535.894 2289.01 535.894C2292.09 535.894 2294.59 538.394 2294.59 541.471C2294.59 544.548 2292.09 547.047 2289.01 547.047C2287.89 547.047 2286.9 546.635 2286.02 546.058H2281.15C2282.75 548.778 2285.66 550.619 2289.01 550.619C2294.07 550.619 2298.16 546.526 2298.16 541.471C2298.16 536.416 2294.07 532.323 2289.01 532.323C2285.66 532.323 2282.75 534.163 2281.15 536.883ZM2343.98 578.118C2349.04 578.118 2353.13 574.025 2353.13 568.97C2353.13 563.915 2349.04 559.822 2343.98 559.822C2340.63 559.822 2337.72 561.662 2336.13 564.382H2340.99C2341.87 563.805 2342.86 563.393 2343.98 563.393C2347.06 563.393 2349.56 565.893 2349.56 568.97C2349.56 572.047 2347.06 574.547 2343.98 574.547C2342.86 574.547 2341.87 574.134 2340.99 573.558H2336.13C2337.72 576.277 2340.63 578.118 2343.98 578.118ZM2263.68 623.941C2263.68 625.726 2262.8 627.237 2261.51 628.254V628.528H2261.1C2260.22 629.105 2259.23 629.517 2258.11 629.517C2256.98 629.517 2255.99 629.105 2255.11 628.528H2250.25C2251.84 631.248 2254.75 633.089 2258.11 633.089C2263.16 633.089 2267.25 628.995 2267.25 623.941C2267.25 618.886 2263.16 614.792 2258.11 614.792C2254.75 614.792 2251.84 616.633 2250.25 619.353H2255.11C2255.99 618.776 2256.98 618.364 2258.11 618.364C2259.23 618.364 2260.22 618.776 2261.1 619.353H2261.51V619.628C2262.8 620.644 2263.68 622.155 2263.68 623.941ZM2176.73 670.093L2180.2 673.554C2182.7 674.104 2184.62 676.219 2184.62 678.911C2184.62 681.988 2182.12 684.488 2179.04 684.488C2176.38 684.488 2174.24 682.565 2173.69 680.038L2170.22 676.576C2170.03 677.318 2169.89 678.087 2169.89 678.884C2169.89 683.939 2173.99 688.032 2179.04 688.032C2184.1 688.032 2188.19 683.939 2188.19 678.884C2188.19 673.829 2184.1 669.736 2179.04 669.736C2178.25 669.736 2177.48 669.873 2176.73 670.065V670.093ZM1827.3 568.97C1827.3 572.047 1824.8 574.547 1821.72 574.547C1820.59 574.547 1819.6 574.135 1818.72 573.558H1813.86C1815.46 576.277 1818.37 578.118 1821.72 578.118C1826.77 578.118 1830.87 574.025 1830.87 568.97C1830.87 563.915 1826.77 559.822 1821.72 559.822C1818.37 559.822 1815.46 561.662 1813.86 564.382H1818.72C1819.6 563.805 1820.59 563.393 1821.72 563.393C1824.8 563.393 1827.3 565.893 1827.3 568.97ZM1634.88 568.97C1634.88 572.047 1632.38 574.547 1629.31 574.547C1628.18 574.547 1627.19 574.135 1626.31 573.558H1621.42C1623.02 576.277 1625.93 578.118 1629.28 578.118C1634.31 578.118 1638.43 574.025 1638.43 568.97C1638.43 563.915 1634.33 559.822 1629.28 559.822C1625.93 559.822 1623.02 561.662 1621.42 564.382H1626.29C1627.16 563.805 1628.15 563.393 1629.28 563.393C1632.36 563.393 1634.86 565.893 1634.86 568.97H1634.88ZM1717.35 623.941C1717.35 627.017 1714.85 629.517 1711.78 629.517C1710.65 629.517 1709.66 629.105 1708.78 628.528H1703.92C1705.51 631.248 1708.43 633.089 1711.78 633.089C1716.83 633.089 1720.93 628.995 1720.93 623.941C1720.93 618.886 1716.83 614.792 1711.78 614.792C1708.43 614.792 1705.51 616.633 1703.92 619.353H1708.78C1709.66 618.776 1710.65 618.364 1711.78 618.364C1714.85 618.364 1717.35 620.864 1717.35 623.941ZM1772.32 596.441C1772.32 599.518 1769.83 602.018 1766.75 602.018C1765.62 602.018 1764.63 601.606 1763.75 601.029H1758.89C1760.48 603.749 1763.4 605.59 1766.75 605.59C1771.8 605.59 1775.9 601.496 1775.9 596.441C1775.9 591.387 1771.8 587.293 1766.75 587.293C1763.4 587.293 1760.48 589.134 1758.89 591.854H1763.75C1764.63 591.277 1765.62 590.865 1766.75 590.865C1769.83 590.865 1772.32 593.365 1772.32 596.441ZM1415 623.941C1415 627.017 1412.5 629.517 1409.42 629.517C1408.3 629.517 1407.31 629.105 1406.43 628.528H1401.57C1403.16 631.248 1406.07 633.089 1409.42 633.089C1414.45 633.089 1418.57 628.995 1418.57 623.941C1418.57 618.886 1414.48 614.793 1409.42 614.793C1406.07 614.793 1403.16 616.633 1401.57 619.353H1406.46C1407.34 618.776 1408.33 618.364 1409.45 618.364C1412.53 618.364 1415.03 620.864 1415.03 623.941H1415ZM2404.53 596.469C2404.53 599.546 2402.03 602.046 2398.95 602.046C2397.83 602.046 2396.84 601.634 2395.96 601.057H2391.1C2392.69 603.776 2395.6 605.617 2398.95 605.617C2404.01 605.617 2408.1 601.524 2408.1 596.469C2408.1 591.414 2403.98 587.321 2398.95 587.321C2395.6 587.321 2392.69 589.161 2391.1 591.881H2395.96C2396.84 591.304 2397.83 590.892 2398.95 590.892C2402.03 590.892 2404.53 593.392 2404.53 596.469Z" fill="#96A2B1"/>
</g>
<g opacity="0.04">
<path fill-rule="evenodd" clip-rule="evenodd" d="M2629.64 81.2465C2627.39 89.9276 2619.56 96.356 2610.19 96.356C2599.07 96.356 2590.03 87.2903 2590.03 76.1642C2590.03 65.0382 2599.09 56.0001 2610.19 56.0001C2619.56 56.0001 2627.39 62.4559 2629.64 71.1095L2793.73 71.1094L2854.22 131.602H2900.4L2862.3 93.4988C2859.31 95.257 2855.84 96.3558 2852.14 96.3558C2841.01 96.3558 2831.97 87.2902 2831.97 76.1642C2831.97 65.0382 2841.04 56 2852.14 56C2863.23 56 2872.33 65.0656 2872.33 76.1642C2872.33 79.9003 2871.23 83.3618 2869.47 86.3287L2914.72 131.574H2940.76L2971.01 101.328H3098.99L3129.24 131.574H3155.28L3200.53 86.3287C3198.77 83.3618 3197.67 79.9003 3197.67 76.1642C3197.67 65.0656 3206.77 56 3217.86 56C3228.96 56 3238.03 65.0382 3238.03 76.1642C3238.03 87.2902 3228.99 96.3558 3217.86 96.3558C3214.16 96.3558 3210.69 95.257 3207.7 93.4988L3169.6 131.602H3215.78L3276.27 71.1094L3440.36 71.1095C3442.61 62.4559 3450.44 56.0001 3459.81 56.0001C3470.91 56.0001 3479.97 65.0382 3479.97 76.1642C3479.97 87.2903 3470.93 96.356 3459.81 96.356C3450.44 96.356 3442.61 89.9276 3440.36 81.2465V81.1915L3280.44 81.1915L3219.95 141.684H3125.04L3094.79 111.438H2975.21L2944.96 141.684H2850.05L2789.56 81.1915L2629.64 81.1915V81.2465ZM2604.04 76.178C2604.05 72.778 2606.79 70.0656 2610.19 70.0656C2611.43 70.0656 2612.5 70.5326 2613.49 71.137H2618.85C2617.09 68.1701 2613.9 66.1371 2610.19 66.1371C2604.64 66.1371 2600.14 70.6425 2600.14 76.1918C2600.14 81.741 2604.64 86.2464 2610.19 86.2464C2613.87 86.2464 2617.09 84.2409 2618.85 81.2465H2613.49C2612.53 81.8784 2611.43 82.3179 2610.19 82.3179C2606.79 82.3179 2604.05 79.5781 2604.04 76.178ZM2854.69 85.8892L2850.87 82.0706C2848.1 81.4937 2845.98 79.1312 2845.98 76.1917C2845.98 72.7852 2848.73 70.0655 2852.14 70.0655C2855.08 70.0655 2857.41 72.1808 2858.01 74.9279L2861.83 78.7465C2862.05 77.9224 2862.19 77.0708 2862.19 76.1917C2862.19 70.6424 2857.69 66.1371 2852.14 66.1371C2846.59 66.1371 2842.08 70.6424 2842.08 76.1917C2842.08 81.741 2846.59 86.2463 2852.14 86.2463C2853.02 86.2463 2853.87 86.0815 2854.69 85.8892ZM3465.96 76.178C3465.95 72.778 3463.21 70.0656 3459.81 70.0656C3458.57 70.0656 3457.5 70.5326 3456.51 71.137H3451.15C3452.91 68.1701 3456.1 66.1371 3459.81 66.1371C3465.36 66.1371 3469.86 70.6425 3469.86 76.1918C3469.86 81.741 3465.36 86.2464 3459.81 86.2464C3456.13 86.2464 3452.91 84.2409 3451.15 81.2465H3456.51C3457.47 81.8784 3458.57 82.3179 3459.81 82.3179C3463.21 82.3179 3465.95 79.5781 3465.96 76.178ZM3215.31 85.8892L3219.13 82.0706C3221.9 81.4937 3224.02 79.1312 3224.02 76.1917C3224.02 72.7852 3221.27 70.0655 3217.86 70.0655C3214.92 70.0655 3212.59 72.1808 3211.99 74.9279L3208.17 78.7465C3207.95 77.9224 3207.81 77.0708 3207.81 76.1917C3207.81 70.6424 3212.31 66.1371 3217.86 66.1371C3223.41 66.1371 3227.92 70.6424 3227.92 76.1917C3227.92 81.741 3223.41 86.2463 3217.86 86.2463C3216.98 86.2463 3216.13 86.0815 3215.31 85.8892Z" fill="#96A2B1"/>
<path fill-rule="evenodd" clip-rule="evenodd" d="M2992.3 423.901H3077.7L3077.73 423.956L3077.81 424.093L3078.01 423.956H3228.94L3229.02 424.093L3229.21 423.956H3288.74L3288.96 424.395L3289.84 423.956L3360.25 423.956C3362.5 432.637 3370.33 439.065 3379.7 439.065C3390.83 439.065 3399.89 430.027 3399.89 418.901C3399.89 407.775 3390.83 398.709 3379.7 398.709C3370.33 398.709 3362.5 405.165 3360.25 413.846H3310.09L3348.38 394.699H3595.38C3597.63 403.352 3605.46 409.835 3614.83 409.835C3625.96 409.835 3635.02 400.797 3635.02 389.671C3635.02 378.545 3625.96 369.48 3614.83 369.48C3605.46 369.48 3597.63 375.935 3595.38 384.589H3345.99L3287.45 413.846H3244.37L3318.47 364.452H3478.93C3481.18 373.133 3489.01 379.562 3498.38 379.562C3509.5 379.562 3518.57 370.524 3518.57 359.37C3518.57 348.217 3509.5 339.178 3498.38 339.178C3489.01 339.178 3481.18 345.634 3478.93 354.315H3315.39L3226.13 413.819H3093.14L3167.23 364.425H3206.74C3208.99 373.106 3216.82 379.534 3226.19 379.534C3237.31 379.534 3246.38 370.496 3246.38 359.342C3246.38 348.189 3237.31 339.151 3226.19 339.151C3216.82 339.151 3208.99 345.607 3206.74 354.288H3164.18L3074.93 413.791H2995.07L2905.82 354.288H2863.26C2861.01 345.607 2853.18 339.151 2843.81 339.151C2832.69 339.151 2823.62 348.189 2823.62 359.342C2823.62 370.496 2832.69 379.534 2843.81 379.534C2853.18 379.534 2861.01 373.106 2863.26 364.425H2902.77L2976.86 413.819H2843.87L2754.61 354.315H2591.07C2588.82 345.634 2580.99 339.178 2571.62 339.178C2560.5 339.178 2551.43 348.217 2551.43 359.37C2551.43 370.524 2560.5 379.562 2571.62 379.562C2580.99 379.562 2588.82 373.133 2591.07 364.452H2751.53L2825.63 413.846H2782.55L2724.01 384.589H2474.62C2472.37 375.935 2464.54 369.48 2455.17 369.48C2444.04 369.48 2434.98 378.545 2434.98 389.671C2434.98 400.797 2444.04 409.835 2455.17 409.835C2464.54 409.835 2472.37 403.352 2474.62 394.699H2721.62L2759.91 413.846H2709.75C2707.5 405.165 2699.67 398.709 2690.3 398.709C2679.17 398.709 2670.11 407.775 2670.11 418.901C2670.11 430.027 2679.17 439.065 2690.3 439.065C2699.67 439.065 2707.5 432.637 2709.75 423.956L2780.16 423.956L2781.04 424.395L2781.26 423.956H2840.79L2840.98 424.093L2841.06 423.956H2991.99L2992.19 424.093L2992.27 423.956L2992.3 423.901ZM2684.12 418.901C2684.12 415.495 2686.87 412.747 2690.27 412.747C2691.51 412.747 2692.58 413.215 2693.57 413.846H2698.93C2697.17 410.852 2693.98 408.846 2690.27 408.846C2684.72 408.846 2680.19 413.352 2680.19 418.901C2680.19 424.45 2684.7 428.956 2690.27 428.956C2693.95 428.956 2697.17 426.923 2698.93 423.956H2693.57C2692.61 424.588 2691.51 425.055 2690.27 425.055C2686.87 425.055 2684.12 422.308 2684.12 418.901ZM2449.02 389.644C2449.02 386.237 2451.76 383.49 2455.17 383.49C2456.41 383.49 2457.48 383.957 2458.44 384.562H2463.82C2462.09 381.595 2458.88 379.562 2455.17 379.562C2449.62 379.562 2445.12 384.094 2445.12 389.644C2445.12 395.193 2449.62 399.698 2455.17 399.698C2458.88 399.698 2462.07 397.666 2463.82 394.699H2458.47C2457.51 395.331 2456.41 395.797 2455.17 395.797C2451.76 395.797 2449.02 393.05 2449.02 389.671V389.644ZM2565.44 359.384C2565.45 355.984 2568.19 353.244 2571.6 353.244C2572.83 353.244 2573.93 353.711 2574.89 354.343H2580.25C2578.52 351.376 2575.3 349.343 2571.6 349.343C2566.05 349.343 2561.54 353.876 2561.54 359.398C2561.54 364.919 2566.05 369.452 2571.6 369.452C2575.3 369.452 2578.49 367.419 2580.25 364.452H2574.89C2573.93 365.084 2572.83 365.524 2571.6 365.524C2568.19 365.524 2565.45 362.784 2565.44 359.384ZM2837.63 359.384C2837.64 355.984 2840.38 353.244 2843.78 353.244C2845.02 353.244 2846.12 353.711 2847.08 354.343H2852.44C2850.68 351.376 2847.49 349.343 2843.78 349.343C2838.23 349.343 2833.73 353.876 2833.73 359.398C2833.73 364.919 2838.23 369.452 2843.78 369.452C2847.49 369.452 2850.68 367.419 2852.44 364.452H2847.08C2846.12 365.084 2845.02 365.524 2843.78 365.524C2840.38 365.524 2837.64 362.784 2837.63 359.384ZM3385.88 418.901C3385.88 415.495 3383.13 412.747 3379.73 412.747C3378.49 412.747 3377.42 413.215 3376.43 413.846H3371.07C3372.83 410.852 3376.02 408.846 3379.73 408.846C3385.28 408.846 3389.81 413.352 3389.81 418.901C3389.81 424.45 3385.3 428.956 3379.73 428.956C3376.05 428.956 3372.83 426.923 3371.07 423.956H3376.43C3377.39 424.588 3378.49 425.055 3379.73 425.055C3383.13 425.055 3385.88 422.308 3385.88 418.901ZM3620.98 389.644C3620.98 386.237 3618.24 383.49 3614.83 383.49C3613.59 383.49 3612.52 383.957 3611.56 384.562H3606.18C3607.91 381.595 3611.12 379.562 3614.83 379.562C3620.38 379.562 3624.88 384.094 3624.88 389.644C3624.88 395.193 3620.38 399.698 3614.83 399.698C3611.12 399.698 3607.93 397.666 3606.18 394.699H3611.53C3612.49 395.331 3613.59 395.797 3614.83 395.797C3618.24 395.797 3620.98 393.05 3620.98 389.671V389.644ZM3504.56 359.384C3504.55 355.984 3501.81 353.244 3498.4 353.244C3497.17 353.244 3496.07 353.711 3495.11 354.343H3489.75C3491.48 351.376 3494.7 349.343 3498.4 349.343C3503.95 349.343 3508.46 353.876 3508.46 359.398C3508.46 364.919 3503.95 369.452 3498.4 369.452C3494.7 369.452 3491.51 367.419 3489.75 364.452H3495.11C3496.07 365.084 3497.17 365.524 3498.4 365.524C3501.81 365.524 3504.55 362.784 3504.56 359.384ZM3232.37 359.384C3232.36 355.984 3229.62 353.244 3226.22 353.244C3224.98 353.244 3223.88 353.711 3222.92 354.343H3217.56C3219.32 351.376 3222.51 349.343 3226.22 349.343C3231.77 349.343 3236.27 353.876 3236.27 359.398C3236.27 364.919 3231.77 369.452 3226.22 369.452C3222.51 369.452 3219.32 367.419 3217.56 364.452H3222.92C3223.88 365.084 3224.98 365.524 3226.22 365.524C3229.62 365.524 3232.36 362.784 3232.37 359.384Z" fill="#96A2B1"/>
<path fill-rule="evenodd" clip-rule="evenodd" d="M3035 325.512L3036.69 325.527L3064.55 353.381H3107.68C3109.93 362.062 3117.76 368.491 3127.13 368.491C3138.23 368.491 3147.29 359.482 3147.32 348.354C3147.29 337.253 3138.23 328.217 3127.13 328.217C3117.76 328.217 3109.93 334.673 3107.68 343.354H3068.75L3050.84 325.442L3280.47 323.19L3310.69 292.971H3548.46L3578.7 323.217H3682.3C3684.55 331.898 3692.38 338.327 3701.75 338.327C3712.88 338.327 3721.94 329.289 3721.94 318.163C3721.94 307.037 3712.88 297.971 3701.75 297.971C3692.38 297.971 3684.55 304.427 3682.3 313.08H3582.88L3562.74 292.944H3722.57C3723.54 293.575 3724.63 294.042 3725.87 294.042C3729.28 294.042 3732.02 291.295 3732.02 287.889C3732.02 284.482 3729.28 281.735 3725.87 281.735C3724.63 281.735 3723.56 282.202 3722.57 282.807H3306.49L3276.21 313.08L3137.95 314.426L3189.68 262.697L3461.87 262.697L3492.11 232.451H3744.36C3746.61 241.132 3754.44 247.588 3763.81 247.588C3774.93 247.588 3784 238.522 3784 227.396C3784 216.27 3774.96 207.205 3763.81 207.205C3754.44 207.205 3746.61 213.661 3744.36 222.314H3683.7L3691.67 214.347C3694.72 216.188 3698.23 217.314 3702.05 217.314C3713.18 217.314 3722.22 208.249 3722.22 197.123C3722.22 185.997 3713.18 176.958 3702.05 176.958C3690.93 176.958 3681.89 186.024 3681.89 197.123C3681.89 200.776 3682.93 204.128 3684.64 207.095L3669.42 222.314H3487.97L3457.72 252.56L3185.53 252.56L3123.55 314.536H2946.45L2884.47 252.56L2612.28 252.56L2582.03 222.314H2400.58L2385.36 207.095C2387.07 204.128 2388.11 200.776 2388.11 197.123C2388.11 186.024 2379.07 176.958 2367.95 176.958C2356.82 176.958 2347.78 185.997 2347.78 197.123C2347.78 208.249 2356.82 217.314 2367.95 217.314C2371.77 217.314 2375.28 216.188 2378.33 214.347L2386.3 222.314H2325.64C2323.39 213.661 2315.56 207.205 2306.19 207.205C2295.04 207.205 2286 216.27 2286 227.396C2286 238.522 2295.07 247.588 2306.19 247.588C2315.56 247.588 2323.39 241.132 2325.64 232.451H2577.89L2608.13 262.697L2880.32 262.697L2932.05 314.426L2793.79 313.08L2763.51 282.807H2347.43C2346.44 282.202 2345.37 281.735 2344.13 281.735C2340.72 281.735 2337.98 284.482 2337.98 287.889C2337.98 291.295 2340.72 294.042 2344.13 294.042C2345.37 294.042 2346.47 293.575 2347.43 292.944H2507.26L2487.12 313.08H2387.7C2385.45 304.427 2377.62 297.971 2368.25 297.971C2357.12 297.971 2348.06 307.037 2348.06 318.163C2348.06 329.289 2357.12 338.327 2368.25 338.327C2377.62 338.327 2385.45 331.898 2387.7 323.217H2491.3L2521.54 292.971H2759.31L2789.53 323.19L3019.16 325.442L3001.25 343.354H2962.32C2960.07 334.673 2952.24 328.217 2942.87 328.217C2931.77 328.217 2922.71 337.253 2922.68 348.354C2922.71 359.482 2931.77 368.491 2942.87 368.491C2952.24 368.491 2960.07 362.062 2962.32 353.381H3005.45L3033.31 325.527L3035 325.512ZM2951.51 353.464H2946.17C2945.21 354.095 2944.11 354.535 2942.87 354.535C2939.47 354.535 2936.72 351.788 2936.72 348.381C2936.72 344.975 2939.47 342.228 2942.87 342.228C2944.11 342.228 2945.18 342.695 2946.17 343.326H2951.53C2949.77 340.36 2946.58 338.327 2942.87 338.327C2937.32 338.327 2932.82 342.859 2932.82 348.381C2932.82 353.903 2937.32 358.436 2942.87 358.436C2946.54 358.436 2949.75 356.416 2951.51 353.464ZM2358.17 318.163C2358.17 312.613 2362.67 308.108 2368.22 308.108C2371.93 308.108 2375.15 310.141 2376.88 313.108H2371.52C2370.56 312.476 2369.46 312.009 2368.22 312.009C2364.82 312.009 2362.07 314.756 2362.07 318.163C2362.07 321.569 2364.82 324.316 2368.22 324.316C2369.46 324.316 2370.56 323.849 2371.52 323.217H2376.88C2375.12 326.212 2371.93 328.217 2368.22 328.217C2362.67 328.217 2358.17 323.712 2358.17 318.163ZM2367.04 203.166L2370.7 206.82C2369.82 207.067 2368.88 207.26 2367.92 207.26C2362.37 207.26 2357.87 202.754 2357.87 197.205C2357.87 191.656 2362.37 187.15 2367.92 187.15C2373.47 187.15 2377.97 191.656 2377.97 197.205C2377.97 198.002 2377.84 198.771 2377.67 199.513L2373.72 195.557C2372.98 193.002 2370.72 191.079 2367.92 191.079C2364.51 191.079 2361.77 193.826 2361.77 197.205C2361.77 200.282 2364.07 202.727 2367.04 203.166ZM2306.14 221.298C2302.73 221.298 2299.99 224.037 2299.98 227.437L2299.98 227.424V227.451L2299.98 227.437C2299.99 230.81 2302.73 233.55 2306.14 233.55C2307.4 233.55 2308.47 233.11 2309.43 232.479H2314.79C2313.03 235.446 2309.85 237.478 2306.14 237.478C2300.59 237.478 2296.08 232.973 2296.08 227.424C2296.08 221.874 2300.59 217.369 2306.14 217.369C2309.85 217.369 2313.03 219.402 2314.79 222.369H2309.43C2308.44 221.737 2307.37 221.298 2306.14 221.298ZM3118.49 353.464H3123.83C3124.79 354.095 3125.89 354.535 3127.13 354.535C3130.53 354.535 3133.28 351.788 3133.28 348.381C3133.28 344.975 3130.53 342.228 3127.13 342.228C3125.89 342.228 3124.82 342.695 3123.83 343.326H3118.47C3120.23 340.36 3123.42 338.327 3127.13 338.327C3132.68 338.327 3137.18 342.859 3137.18 348.381C3137.18 353.903 3132.68 358.436 3127.13 358.436C3123.46 358.436 3120.25 356.416 3118.49 353.464ZM3711.83 318.163C3711.83 312.613 3707.33 308.108 3701.78 308.108C3698.07 308.108 3694.85 310.141 3693.12 313.108H3698.48C3699.44 312.476 3700.54 312.009 3701.78 312.009C3705.18 312.009 3707.93 314.756 3707.93 318.163C3707.93 321.569 3705.18 324.316 3701.78 324.316C3700.54 324.316 3699.44 323.849 3698.48 323.217H3693.12C3694.88 326.212 3698.07 328.217 3701.78 328.217C3707.33 328.217 3711.83 323.712 3711.83 318.163ZM3702.96 203.166L3699.3 206.82C3700.18 207.067 3701.12 207.26 3702.08 207.26C3707.63 207.26 3712.13 202.754 3712.13 197.205C3712.13 191.656 3707.63 187.15 3702.08 187.15C3696.53 187.15 3692.03 191.656 3692.03 197.205C3692.03 198.002 3692.16 198.771 3692.33 199.513L3696.28 195.557C3697.02 193.002 3699.28 191.079 3702.08 191.079C3705.49 191.079 3708.23 193.826 3708.23 197.205C3708.23 200.282 3705.93 202.727 3702.96 203.166ZM3763.86 221.298C3767.27 221.298 3770.01 224.037 3770.02 227.437C3770.01 230.81 3767.27 233.55 3763.86 233.55C3762.6 233.55 3761.53 233.11 3760.57 232.479H3755.21C3756.97 235.446 3760.15 237.478 3763.86 237.478C3769.41 237.478 3773.92 232.973 3773.92 227.424C3773.92 221.874 3769.41 217.369 3763.86 217.369C3760.15 217.369 3756.97 219.402 3755.21 222.369H3760.57C3761.56 221.737 3762.63 221.298 3763.86 221.298Z" fill="#96A2B1"/>
<path fill-rule="evenodd" clip-rule="evenodd" d="M2974.36 221.517L2914.8 161.959H2824.06L2763.57 101.466H2720.16C2717.91 92.7853 2710.08 86.3296 2700.71 86.3296C2689.59 86.3296 2680.55 95.3951 2680.55 106.521C2680.55 117.647 2689.59 126.685 2700.71 126.685C2710.08 126.685 2717.91 120.257 2720.16 111.576H2759.39L2809.77 161.931L2672.86 161.931L2612.36 101.439H2461.13L2446.13 86.412C2447.92 83.4451 2448.99 79.9836 2448.99 76.2474C2448.99 65.1489 2439.92 56.0833 2428.8 56.0833C2417.67 56.0833 2408.61 65.1214 2408.61 76.2474C2408.61 87.3734 2417.67 96.4391 2428.8 96.4391C2432.51 96.4391 2435.97 95.3402 2438.96 93.582L2446.82 101.439H2393.08C2390.83 92.7579 2383 86.3021 2373.63 86.3021C2362.51 86.3021 2353.47 95.3677 2353.47 106.494C2353.47 117.62 2362.51 126.658 2373.63 126.658C2383 126.658 2390.83 120.229 2393.08 111.548H2608.13L2658.52 161.904H2599.45C2597.17 153.25 2589.34 146.795 2579.97 146.795C2568.85 146.795 2559.78 155.833 2559.78 166.959C2559.78 178.085 2568.85 187.15 2579.97 187.15C2589.37 187.15 2597.2 180.695 2599.45 172.014L2910.57 172.013L2960.07 221.517L2883.98 221.847L2869.5 207.369C2871.26 204.348 2872.35 200.914 2872.35 197.177C2872.35 186.079 2863.26 177.013 2852.16 177.013C2841.06 177.013 2832 186.051 2832 197.177C2832 208.303 2841.04 217.369 2852.16 217.369C2855.87 217.369 2859.33 216.27 2862.33 214.512L2869.72 221.902L2763.51 222.369L2733.27 192.15H2496.21C2493.93 183.469 2486.1 177.013 2476.74 177.013C2465.64 177.013 2456.57 186.051 2456.57 197.177C2456.57 208.303 2465.61 217.369 2476.74 217.369C2486.1 217.369 2493.93 210.913 2496.19 202.26L2496.27 202.287H2729.15L2759.39 232.561L3035 231.358L3310.61 232.561L3340.85 202.287H3573.73L3573.81 202.26C3576.07 210.913 3583.9 217.369 3593.26 217.369C3604.39 217.369 3613.43 208.303 3613.43 197.177C3613.43 186.051 3604.36 177.013 3593.26 177.013C3583.9 177.013 3576.07 183.469 3573.79 192.15H3336.73L3306.49 222.369L3200.28 221.902L3207.67 214.512C3210.67 216.27 3214.13 217.369 3217.84 217.369C3228.96 217.369 3238 208.303 3238 197.177C3238 186.051 3228.94 177.013 3217.84 177.013C3206.74 177.013 3197.65 186.079 3197.65 197.177C3197.65 200.914 3198.74 204.348 3200.5 207.369L3186.02 221.847L3109.93 221.517L3159.43 172.013L3470.55 172.014C3472.8 180.695 3480.63 187.15 3490.03 187.15C3501.15 187.15 3510.22 178.085 3510.22 166.959C3510.22 155.833 3501.15 146.795 3490.03 146.795C3480.66 146.795 3472.83 153.25 3470.55 161.904H3411.48L3461.87 111.548H3676.92C3679.17 120.229 3687 126.658 3696.37 126.658C3707.49 126.658 3716.53 117.62 3716.53 106.494C3716.53 95.3677 3707.49 86.3021 3696.37 86.3021C3687 86.3021 3679.17 92.7579 3676.92 101.439H3623.18L3631.04 93.582C3634.03 95.3402 3637.49 96.4391 3641.2 96.4391C3652.33 96.4391 3661.39 87.3734 3661.39 76.2474C3661.39 65.1214 3652.33 56.0833 3641.2 56.0833C3630.08 56.0833 3621.01 65.1489 3621.01 76.2474C3621.01 79.9836 3622.08 83.4451 3623.87 86.412L3608.87 101.439H3457.64L3397.14 161.931L3260.23 161.931L3310.61 111.576H3349.84C3352.09 120.257 3359.92 126.685 3369.29 126.685C3380.41 126.685 3389.45 117.647 3389.45 106.521C3389.45 95.3951 3380.41 86.3296 3369.29 86.3296C3359.92 86.3296 3352.09 92.7853 3349.84 101.466H3306.43L3245.94 161.959H3155.2L3095.64 221.517H2974.36ZM2476.74 191.051C2473.33 191.051 2470.59 193.791 2470.58 197.164C2470.59 200.564 2473.33 203.304 2476.74 203.304C2477.97 203.304 2479.04 202.864 2480 202.232H2485.39C2483.63 205.227 2480.42 207.232 2476.74 207.232C2471.19 207.232 2466.68 202.727 2466.68 197.177C2466.68 191.628 2471.19 187.123 2476.74 187.123C2480.44 187.123 2483.63 189.156 2485.39 192.15H2480.03C2479.07 191.518 2477.97 191.051 2476.74 191.051ZM2850.87 203.084L2854.69 206.902C2853.87 207.122 2853.01 207.26 2852.14 207.26C2846.59 207.26 2842.08 202.754 2842.08 197.205C2842.08 191.656 2846.59 187.15 2852.14 187.15C2857.68 187.15 2862.19 191.656 2862.19 197.205C2862.19 198.084 2862.05 198.936 2861.83 199.76L2858.01 195.941C2857.41 193.194 2855.08 191.079 2852.14 191.079C2848.73 191.079 2845.98 193.826 2845.98 197.205C2845.98 200.144 2848.1 202.507 2850.87 203.084ZM2427.45 82.0989L2431.27 85.9174C2430.45 86.1097 2429.59 86.2745 2428.72 86.2745C2423.17 86.2745 2418.66 81.7692 2418.66 76.2199C2418.66 70.6706 2423.17 66.1653 2428.72 66.1653C2434.26 66.1653 2438.77 70.6706 2438.77 76.2199C2438.77 77.099 2438.63 77.9507 2438.41 78.7748L2434.59 74.9562C2434.02 72.2091 2431.65 70.0938 2428.72 70.0938C2425.31 70.0938 2422.56 72.8134 2422.56 76.2199C2422.56 79.1594 2424.68 81.522 2427.45 82.0989ZM2373.58 100.313C2370.17 100.313 2367.43 103.06 2367.43 106.466C2367.43 109.845 2370.17 112.592 2373.58 112.592C2374.82 112.592 2375.91 112.153 2376.88 111.521H2382.23C2380.48 114.488 2377.29 116.521 2373.58 116.521C2368.03 116.521 2363.53 112.043 2363.53 106.466C2363.53 100.89 2368.03 96.3841 2373.58 96.3841C2377.29 96.3841 2380.48 98.417 2382.23 101.411H2376.88C2375.91 100.78 2374.82 100.313 2373.58 100.313ZM2700.6 100.313C2697.22 100.313 2694.48 103.06 2694.48 106.466V106.494C2694.48 109.873 2697.22 112.62 2700.6 112.62C2701.84 112.62 2702.94 112.18 2703.9 111.548H2709.26C2707.5 114.515 2704.31 116.548 2700.6 116.548C2695.05 116.548 2690.55 112.07 2690.55 106.494C2690.55 100.917 2695.05 96.4116 2700.6 96.4116C2704.31 96.4116 2707.5 98.417 2709.26 101.411H2703.9C2702.94 100.78 2701.84 100.313 2700.6 100.313ZM2579.92 160.833C2576.54 160.833 2573.79 163.58 2573.79 166.959C2573.79 170.365 2576.51 173.112 2579.92 173.112C2581.16 173.112 2582.25 172.673 2583.22 172.041H2588.57C2586.81 175.008 2583.63 177.041 2579.92 177.041C2574.37 177.041 2569.86 172.508 2569.86 166.959C2569.86 161.409 2574.37 156.904 2579.92 156.904C2583.63 156.904 2586.81 158.937 2588.57 161.904H2583.22C2582.25 161.3 2581.16 160.833 2579.92 160.833ZM3593.26 191.051C3596.67 191.051 3599.41 193.791 3599.42 197.164C3599.41 200.564 3596.67 203.304 3593.26 203.304C3592.03 203.304 3590.96 202.864 3590 202.232H3584.61C3586.37 205.227 3589.58 207.232 3593.26 207.232C3598.81 207.232 3603.32 202.727 3603.32 197.177C3603.32 191.628 3598.81 187.123 3593.26 187.123C3589.56 187.123 3586.37 189.156 3584.61 192.15H3589.97C3590.93 191.518 3592.03 191.051 3593.26 191.051ZM3219.13 203.084L3215.31 206.902C3216.13 207.122 3216.99 207.26 3217.86 207.26C3223.41 207.26 3227.92 202.754 3227.92 197.205C3227.92 191.656 3223.41 187.15 3217.86 187.15C3212.32 187.15 3207.81 191.656 3207.81 197.205C3207.81 198.084 3207.95 198.936 3208.17 199.76L3211.99 195.941C3212.59 193.194 3214.92 191.079 3217.86 191.079C3221.27 191.079 3224.02 193.826 3224.02 197.205C3224.02 200.144 3221.9 202.507 3219.13 203.084ZM3642.55 82.0989L3638.73 85.9174C3639.55 86.1097 3640.41 86.2745 3641.28 86.2745C3646.83 86.2745 3651.34 81.7692 3651.34 76.2199C3651.34 70.6706 3646.83 66.1653 3641.28 66.1653C3635.74 66.1653 3631.23 70.6706 3631.23 76.2199C3631.23 77.099 3631.37 77.9507 3631.59 78.7748L3635.41 74.9562C3635.98 72.2091 3638.35 70.0938 3641.28 70.0938C3644.69 70.0938 3647.44 72.8134 3647.44 76.2199C3647.44 79.1594 3645.32 81.522 3642.55 82.0989ZM3696.42 100.313C3699.83 100.313 3702.57 103.06 3702.57 106.466C3702.57 109.845 3699.83 112.592 3696.42 112.592C3695.18 112.592 3694.09 112.153 3693.12 111.521H3687.77C3689.52 114.488 3692.71 116.521 3696.42 116.521C3701.97 116.521 3706.47 112.043 3706.47 106.466C3706.47 100.89 3701.97 96.3841 3696.42 96.3841C3692.71 96.3841 3689.52 98.417 3687.77 101.411H3693.12C3694.09 100.78 3695.18 100.313 3696.42 100.313ZM3369.4 100.313C3372.78 100.313 3375.52 103.06 3375.52 106.466V106.494C3375.52 109.873 3372.78 112.62 3369.4 112.62C3368.16 112.62 3367.06 112.18 3366.1 111.548H3360.74C3362.5 114.515 3365.69 116.548 3369.4 116.548C3374.95 116.548 3379.45 112.07 3379.45 106.494C3379.45 100.917 3374.95 96.4116 3369.4 96.4116C3365.69 96.4116 3362.5 98.417 3360.74 101.411H3366.1C3367.06 100.78 3368.16 100.313 3369.4 100.313ZM3490.08 160.833C3493.46 160.833 3496.21 163.58 3496.21 166.959C3496.21 170.365 3493.49 173.112 3490.08 173.112C3488.84 173.112 3487.75 172.673 3486.78 172.041H3481.43C3483.19 175.008 3486.37 177.041 3490.08 177.041C3495.63 177.041 3500.14 172.508 3500.14 166.959C3500.14 161.409 3495.63 156.904 3490.08 156.904C3486.37 156.904 3483.19 158.937 3481.43 161.904H3486.78C3487.75 161.3 3488.84 160.833 3490.08 160.833Z" fill="#96A2B1"/>
</g>
</svg>
