<svg width="24" height="24" viewBox="0 0 24 24" fill="none" xmlns="http://www.w3.org/2000/svg">
<path d="M12 0.47998C11.4896 0.47998 10.9795 0.531386 10.4709 0.632793C6.69576 1.34702 3.84 4.66624 3.84 8.63998C3.84 10.5284 4.50448 12.2644 5.57343 13.6387C6.19504 14.4832 7.46966 16.0413 8.64562 17.7609C9.82462 19.485 10.8753 21.386 11.0437 22.6706C11.0453 22.6813 11.0471 22.6919 11.0494 22.7025C11.136 23.1356 11.504 23.52 12 23.52C12.496 23.52 12.864 23.1356 12.9506 22.7025C12.9528 22.6922 12.9547 22.6819 12.9562 22.6715C13.1252 21.4045 14.128 19.5802 15.2709 17.9044C16.4048 16.2418 17.6445 14.7198 18.315 13.8037L18.3394 13.7794C18.3509 13.7677 18.3619 13.7555 18.3722 13.7428C19.498 12.3611 20.16 10.5735 20.16 8.63998C20.16 4.6679 17.3066 1.34984 13.5337 0.63373C13.0236 0.531696 12.512 0.47998 12 0.47998ZM12 1.43998C12.2841 1.43998 12.5684 1.46472 12.8531 1.50092L9.52687 5.56686L6.95718 3.51092C7.95127 2.53604 9.22503 1.84533 10.6491 1.57592C10.6506 1.57561 10.6522 1.5753 10.6537 1.57498C11.1036 1.48501 11.552 1.43998 12 1.43998ZM13.9219 1.70998C15.8754 2.24856 17.4924 3.5913 18.4022 5.35873L15.8156 8.51998C15.7482 6.46331 14.0726 4.79998 12 4.79998C11.7423 4.79998 11.5162 4.89837 11.2725 4.94717L13.9219 1.70998ZM6.31968 4.23092L8.91843 6.31029L5.17218 10.889C4.93436 10.1815 4.8 9.42671 4.8 8.63998C4.8 6.9755 5.37081 5.44859 6.31968 4.23092ZM12 5.75998C13.5963 5.75998 14.88 7.04371 14.88 8.63998C14.88 10.2362 13.5963 11.52 12 11.52C10.4037 11.52 9.12 10.2362 9.12 8.63998C9.12 7.04371 10.4037 5.75998 12 5.75998ZM18.8241 6.35904C19.0642 7.0763 19.2 7.84147 19.2 8.63998C19.2 10.351 18.615 11.9194 17.6325 13.1287L17.6128 13.1484C17.5951 13.1659 17.5788 13.1847 17.5641 13.2047C16.9346 14.0673 15.6509 15.6433 14.4778 17.3634C13.3121 19.0727 12.2339 20.9083 12.0094 22.514C12 22.5609 11.984 22.56 12 22.56C12.016 22.56 12 22.5609 11.9906 22.514C11.7793 20.9817 10.773 19.2203 9.66 17.5594L18.8241 6.35904ZM8.17781 8.72998C8.22868 10.8013 9.91676 12.48 12 12.48C12.2444 12.48 12.458 12.3843 12.69 12.3403L9.09375 16.7353C7.98802 15.1673 6.864 13.7741 6.33843 13.0594C6.33598 13.0559 6.33348 13.0524 6.33093 13.049C6.05025 12.6882 5.80614 12.2974 5.595 11.8865L8.17781 8.72998Z" fill="white" stroke="white" stroke-width="0.5"/>
</svg>
