<svg width="24" height="24" viewBox="0 0 24 24" fill="none" xmlns="http://www.w3.org/2000/svg">
<path d="M5.61111 2C3.6267 2 2 3.6267 2 5.61111V18.3889C2 20.3733 3.6267 22 5.61111 22H18.3889C20.3733 22 22 20.3733 22 18.3889V5.61111C22 3.6267 20.3733 2 18.3889 2H5.61111ZM5.61111 3.66667H18.3889C19.4723 3.66667 20.3333 4.52774 20.3333 5.61111V6.44444H3.66667V5.61111C3.66667 4.52774 4.52774 3.66667 5.61111 3.66667ZM3.66667 8.11111H20.3333V18.3889C20.3333 19.4723 19.4723 20.3333 18.3889 20.3333H5.61111C4.52774 20.3333 3.66667 19.4723 3.66667 18.3889V8.11111ZM7.27778 10.3333C6.90942 10.3333 6.55615 10.4797 6.29569 10.7401C6.03522 11.0006 5.88889 11.3539 5.88889 11.7222C5.88889 12.0906 6.03522 12.4438 6.29569 12.7043C6.55615 12.9648 6.90942 13.1111 7.27778 13.1111C7.64613 13.1111 7.9994 12.9648 8.25987 12.7043C8.52034 12.4438 8.66667 12.0906 8.66667 11.7222C8.66667 11.3539 8.52034 11.0006 8.25987 10.7401C7.9994 10.4797 7.64613 10.3333 7.27778 10.3333ZM12 10.3333C11.6316 10.3333 11.2784 10.4797 11.0179 10.7401C10.7574 11.0006 10.6111 11.3539 10.6111 11.7222C10.6111 12.0906 10.7574 12.4438 11.0179 12.7043C11.2784 12.9648 11.6316 13.1111 12 13.1111C12.3684 13.1111 12.7216 12.9648 12.9821 12.7043C13.2426 12.4438 13.3889 12.0906 13.3889 11.7222C13.3889 11.3539 13.2426 11.0006 12.9821 10.7401C12.7216 10.4797 12.3684 10.3333 12 10.3333ZM16.7222 10.3333C16.3539 10.3333 16.0006 10.4797 15.7401 10.7401C15.4797 11.0006 15.3333 11.3539 15.3333 11.7222C15.3333 12.0906 15.4797 12.4438 15.7401 12.7043C16.0006 12.9648 16.3539 13.1111 16.7222 13.1111C17.0906 13.1111 17.4438 12.9648 17.7043 12.7043C17.9648 12.4438 18.1111 12.0906 18.1111 11.7222C18.1111 11.3539 17.9648 11.0006 17.7043 10.7401C17.4438 10.4797 17.0906 10.3333 16.7222 10.3333ZM7.27778 15.3333C6.90942 15.3333 6.55615 15.4797 6.29569 15.7401C6.03522 16.0006 5.88889 16.3539 5.88889 16.7222C5.88889 17.0906 6.03522 17.4438 6.29569 17.7043C6.55615 17.9648 6.90942 18.1111 7.27778 18.1111C7.64613 18.1111 7.9994 17.9648 8.25987 17.7043C8.52034 17.4438 8.66667 17.0906 8.66667 16.7222C8.66667 16.3539 8.52034 16.0006 8.25987 15.7401C7.9994 15.4797 7.64613 15.3333 7.27778 15.3333ZM12 15.3333C11.6316 15.3333 11.2784 15.4797 11.0179 15.7401C10.7574 16.0006 10.6111 16.3539 10.6111 16.7222C10.6111 17.0906 10.7574 17.4438 11.0179 17.7043C11.2784 17.9648 11.6316 18.1111 12 18.1111C12.3684 18.1111 12.7216 17.9648 12.9821 17.7043C13.2426 17.4438 13.3889 17.0906 13.3889 16.7222C13.3889 16.3539 13.2426 16.0006 12.9821 15.7401C12.7216 15.4797 12.3684 15.3333 12 15.3333Z" fill="white"/>
</svg>
