<svg width="24" height="24" viewBox="0 0 24 24" fill="none" xmlns="http://www.w3.org/2000/svg">
<path d="M4.6369 2.86035C3.94469 2.86035 3.36846 3.42798 3.36846 4.12129V6.3666C2.99765 6.49371 2.6641 6.72212 2.41034 7.03223C2.00619 7.52548 1.84522 8.1762 1.97346 8.80129C2.41991 10.961 3.05574 14.0436 3.07877 14.1554C3.05556 14.268 2.42268 17.3354 1.97721 19.4954C1.84768 20.1238 2.00982 20.7774 2.41596 21.2738C2.82296 21.7699 3.43266 22.0585 4.07627 22.0585H19.8731C20.5244 22.0585 21.1414 21.767 21.5541 21.2644H21.555C21.9674 20.7614 22.1302 20.0987 21.9994 19.4625C21.5539 17.3034 20.9273 14.2656 20.9044 14.1544C20.9276 14.0416 21.5624 10.9565 22.0078 8.7966C22.1363 8.17292 21.9768 7.52301 21.5719 7.02941C21.3238 6.72657 20.9994 6.50396 20.6391 6.37598V4.12129C20.6391 3.42798 20.0629 2.86035 19.3706 2.86035H4.6369ZM4.6369 3.82035H19.3706C19.5492 3.82035 19.6791 3.95252 19.6791 4.12129V6.25129H4.32846V4.12129C4.32846 3.95252 4.45838 3.82035 4.6369 3.82035ZM4.06221 7.21129H19.9238C20.2759 7.21129 20.6081 7.36767 20.8294 7.63785V7.63879C21.0514 7.90935 21.1378 8.26236 21.0675 8.60348H21.0685C20.6148 10.803 19.9444 14.0579 19.9444 14.0579L19.9247 14.1544L19.9444 14.2519C19.9444 14.2519 20.6055 17.4573 21.0591 19.6557C21.1318 20.0093 21.0423 20.3747 20.8125 20.655C20.582 20.9358 20.2385 21.0985 19.8731 21.0985H4.07627C3.71861 21.0985 3.38314 20.9392 3.15846 20.6654C2.93433 20.3909 2.84648 20.0341 2.91752 19.6894C3.37113 17.49 4.03877 14.2519 4.03877 14.2519L4.05846 14.1544L4.03877 14.0579C4.03877 14.0579 3.36839 10.8064 2.91377 8.60723C2.84373 8.26439 2.9309 7.9112 3.15284 7.64066L3.15377 7.63973C3.37566 7.36857 3.70949 7.21129 4.06221 7.21129ZM9.5944 10.5132C7.46848 10.5132 7.27856 12.4437 7.26752 12.9132H8.16659C8.18003 12.5896 8.32912 11.3307 9.5944 11.3307C10.779 11.3307 10.9435 12.1475 10.9435 12.556C10.9435 12.7605 10.8204 13.7813 9.51284 13.7813H9.14534V14.5575C9.30854 14.5167 9.47196 14.5163 9.67596 14.5163C9.87996 14.5163 11.2697 14.5578 11.2697 15.9469C11.2697 17.2948 9.83965 17.4169 9.63565 17.4169C8.91133 17.4169 8.07203 16.9773 8.04659 15.7932H7.14471C7.15287 16.3821 7.33165 18.1932 9.63565 18.1932C10.0849 18.1932 12.2091 18.0709 12.2091 15.9057C12.2091 14.5578 11.3102 14.1488 10.861 14.0672V14.0269C11.147 13.8637 11.8828 13.3725 11.8828 12.5147C11.8828 12.1878 11.8005 10.5132 9.5944 10.5132ZM15.6216 10.5675C15.5016 11.0955 15.2633 11.4582 14.9081 11.655C14.5529 11.8518 14.073 11.9504 13.4672 11.9504V12.6263H15.3469V18.0441H16.3285V10.5675H15.6216Z" fill="white" stroke="white"/>
</svg>
