<svg width="24" height="24" viewBox="0 0 24 24" fill="none" xmlns="http://www.w3.org/2000/svg">
<path d="M12 2C6.48603 2 2 6.48613 2 12.0002C2 17.5143 6.48603 22.0004 12 22.0004C17.514 22.0004 22 17.5143 22 12.0002C22 6.48613 17.514 2 12 2ZM12 3.50003C12.3663 3.50003 12.7382 3.65249 13.1465 4.02836C13.5548 4.40423 13.9689 5.00132 14.3232 5.77254C14.6082 6.39285 14.8184 7.18824 15.0107 8.00013H8.98926C9.18155 7.18824 9.39175 6.39285 9.67676 5.77254C10.0311 5.00132 10.4452 4.40423 10.8535 4.02836C11.2618 3.65249 11.6337 3.50003 12 3.50003ZM8.88867 4.09379C8.68188 4.41873 8.48809 4.7665 8.31348 5.14655C7.93297 5.97473 7.64747 6.95501 7.42578 8.00013H4.49805C5.44372 6.22605 7.00017 4.83529 8.88867 4.09379ZM15.1113 4.09379C16.9998 4.83529 18.5563 6.22605 19.502 8.00013H16.5742C16.3525 6.95501 16.067 5.97473 15.6865 5.14655C15.5119 4.7665 15.3181 4.41873 15.1113 4.09379ZM3.87402 9.50016H7.23047C7.12772 10.3163 7 11.1161 7 12.0002C7 12.8843 7.12771 13.6841 7.23047 14.5003H3.87402C3.63216 13.7101 3.5 12.8709 3.5 12.0002C3.5 11.1296 3.63216 10.2903 3.87402 9.50016ZM8.7334 9.50016H15.2666C15.3781 10.3069 15.5 11.1105 15.5 12.0002C15.5 12.8899 15.3781 13.6935 15.2666 14.5003H8.7334C8.62189 13.6935 8.5 12.8899 8.5 12.0002C8.5 11.1105 8.62189 10.3069 8.7334 9.50016ZM16.7695 9.50016H20.126C20.3678 10.2903 20.5 11.1296 20.5 12.0002C20.5 12.8709 20.3678 13.7101 20.126 14.5003H16.7695C16.8723 13.6841 17 12.8843 17 12.0002C17 11.1161 16.8723 10.3163 16.7695 9.50016ZM4.49805 16.0003H7.42578C7.64747 17.0454 7.93297 18.0257 8.31348 18.8539C8.48809 19.2339 8.68188 19.5817 8.88867 19.9066C7.00017 19.1651 5.44372 17.7744 4.49805 16.0003ZM8.98926 16.0003H15.0107C14.8184 16.8122 14.6082 17.6076 14.3232 18.2279C13.9689 18.9991 13.5548 19.5962 13.1465 19.9721C12.7382 20.3479 12.3663 20.5004 12 20.5004C11.6337 20.5004 11.2618 20.3479 10.8535 19.9721C10.4452 19.5962 10.0311 18.9991 9.67676 18.2279C9.39175 17.6076 9.18155 16.8122 8.98926 16.0003ZM16.5742 16.0003H19.502C18.5563 17.7744 16.9998 19.1651 15.1113 19.9066C15.3181 19.5817 15.5119 19.2339 15.6865 18.8539C16.067 18.0257 16.3525 17.0454 16.5742 16.0003Z" fill="white"/>
</svg>
