<svg width="24" height="24" viewBox="0 0 24 24" fill="none" xmlns="http://www.w3.org/2000/svg">
<path d="M5.61111 2C3.6267 2 2 3.6267 2 5.61111V18.3889C2 20.3733 3.6267 22 5.61111 22H18.3889C20.3733 22 22 20.3733 22 18.3889V5.61111C22 3.6267 20.3733 2 18.3889 2H5.61111ZM5.61111 3.66667H18.3889C19.4723 3.66667 20.3333 4.52774 20.3333 5.61111V6.44444H3.66667V5.61111C3.66667 4.52774 4.52774 3.66667 5.61111 3.66667ZM3.66667 8.11111H20.3333V18.3889C20.3333 19.4723 19.4723 20.3333 18.3889 20.3333H5.61111C4.52774 20.3333 3.66667 19.4723 3.66667 18.3889V8.11111ZM16.1895 10.3247C16.0681 10.3224 15.9478 10.3467 15.8369 10.3958C15.7259 10.4449 15.627 10.5177 15.5471 10.6089L11.1341 15.5113L8.97808 13.3553C8.90129 13.2753 8.80932 13.2114 8.70755 13.1674C8.60577 13.1235 8.49625 13.1002 8.38538 13.0991C8.27451 13.098 8.16454 13.119 8.06189 13.1609C7.95924 13.2028 7.86599 13.2648 7.78759 13.3431C7.7092 13.4215 7.64723 13.5148 7.60532 13.6174C7.56341 13.7201 7.54241 13.8301 7.54353 13.9409C7.54466 14.0518 7.5679 14.1613 7.61188 14.2631C7.65587 14.3649 7.71972 14.4568 7.7997 14.5336L10.5775 17.3114C10.6575 17.3914 10.7529 17.4543 10.8579 17.4963C10.963 17.5382 11.0755 17.5583 11.1886 17.5554C11.3017 17.5524 11.413 17.5265 11.5158 17.4791C11.6185 17.4318 11.7105 17.364 11.7862 17.2799L16.7862 11.7244C16.8956 11.6064 16.9685 11.4592 16.996 11.3007C17.0236 11.1422 17.0047 10.9791 16.9416 10.8311C16.8785 10.6831 16.7739 10.5565 16.6404 10.4666C16.5069 10.3768 16.3503 10.3275 16.1895 10.3247Z" fill="white"/>
</svg>
