<svg width="24" height="24" viewBox="0 0 24 24" fill="none" xmlns="http://www.w3.org/2000/svg">
<path d="M18.5107 4.25457C19.6153 4.81864 20.6729 5.26519 21.19 6.53434C21.7071 7.77998 20.6494 12.9976 20.6494 16.476V16.9695C20.6964 18.2152 20.2029 20.6595 19.1453 20.0719C18.7927 19.8839 18.2992 18.8498 17.8996 17.6746C17.2415 15.7709 17.7821 11.0469 17.2415 10.9528C16.3954 11.9635 14.1392 13.7262 13.2931 14.2667C11.8359 15.2068 11.3659 13.9142 11.1073 13.0681C10.8018 12.034 9.57965 9.75421 9.32112 9.56619C9.1331 9.42517 9.1096 9.63669 9.08609 9.75421C8.99208 10.0597 8.52203 13.2326 8.02847 14.9718C7.48791 16.8285 6.21876 19.9074 5.60769 20.636C5.02012 21.3645 2.55234 21.9756 2.03528 21.9991C1.70624 22.0696 3.77448 17.8861 4.26804 16.1234C4.97312 14.3137 6.03074 10.1067 6.14825 7.28642C6.26577 5.42971 6.10125 3.71401 6.07774 3.19695C6.07774 2.51537 6.75932 2.16283 7.15887 2.06882C7.60542 1.97481 8.56903 1.81029 9.57965 2.89142C10.1672 3.54949 11.0603 5.68824 11.3189 6.2288C11.6244 6.88688 12.9405 9.91873 13.1521 10.6238C13.8101 10.1538 14.7738 9.21365 15.7609 8.15602C16.8185 7.00439 17.9936 5.10067 18.1346 4.13706C18.2757 4.09005 18.3932 4.18406 18.5107 4.25457Z" fill="white"/>
</svg>
