<svg width="24" height="24" viewBox="0 0 24 24" fill="none" xmlns="http://www.w3.org/2000/svg">
<path d="M20.3303 4.52323C18.7535 3.80132 17.0888 3.28918 15.3789 2.99988C15.1449 3.41816 14.9332 3.84852 14.7446 4.28916C12.9232 4.01469 11.071 4.01469 9.24961 4.28916C9.06095 3.84857 8.84924 3.41821 8.61535 2.99988C6.90433 3.29162 5.2386 3.80498 3.66019 4.52701C0.526644 9.16313 -0.322811 13.6841 0.101917 18.1409C1.937 19.4967 3.99098 20.5279 6.17458 21.1895C6.66626 20.5282 7.10134 19.8267 7.47519 19.0923C6.76511 18.8271 6.07975 18.4999 5.42706 18.1145C5.59884 17.9899 5.76684 17.8615 5.92918 17.7369C7.82837 18.6301 9.90124 19.0932 12 19.0932C14.0987 19.0932 16.1715 18.6301 18.0707 17.7369C18.235 17.871 18.403 17.9993 18.5729 18.1145C17.9189 18.5005 17.2323 18.8283 16.5209 19.0942C16.8943 19.8282 17.3294 20.5292 17.8216 21.1895C20.007 20.5305 22.0626 19.4999 23.898 18.1428C24.3963 12.9743 23.0467 8.4949 20.3303 4.52323ZM8.01318 15.4C6.82961 15.4 5.85179 14.3259 5.85179 13.0045C5.85179 11.6832 6.79563 10.5997 8.0094 10.5997C9.22318 10.5997 10.1934 11.6832 10.1727 13.0045C10.1519 14.3259 9.21941 15.4 8.01318 15.4ZM15.9867 15.4C14.8013 15.4 13.8272 14.3259 13.8272 13.0045C13.8272 11.6832 14.7711 10.5997 15.9867 10.5997C17.2024 10.5997 18.1651 11.6832 18.1444 13.0045C18.1236 14.3259 17.193 15.4 15.9867 15.4Z" fill="white"/>
</svg>
